<svg width="1363" height="163" viewBox="0 0 1363 163" fill="none" xmlns="http://www.w3.org/2000/svg">
<path d="M0 15C0 6.71573 6.71573 0 15 0H37V163H15C6.71573 163 0 156.284 0 148V15Z" fill="#424242"/>
<rect width="1097" height="163" transform="translate(37)" fill="#F0F0F0"/>
<path d="M101.906 53.9219L94.3945 51.2383V48.0859L104.602 52.375V54.6367L101.906 53.9219ZM94.3945 56.1719L101.918 53.4297L104.602 52.7852V55.0352L94.3945 59.3242V56.1719ZM122.789 55.3398H126.293C126.223 56.4883 125.906 57.5078 125.344 58.3984C124.789 59.2891 124.012 59.9844 123.012 60.4844C122.02 60.9844 120.824 61.2344 119.426 61.2344C118.332 61.2344 117.352 61.0469 116.484 60.6719C115.617 60.2891 114.875 59.7422 114.258 59.0312C113.648 58.3203 113.184 57.4609 112.863 56.4531C112.543 55.4453 112.383 54.3164 112.383 53.0664V51.8828C112.383 50.6328 112.547 49.5039 112.875 48.4961C113.211 47.4805 113.688 46.6172 114.305 45.9062C114.93 45.1953 115.676 44.6484 116.543 44.2656C117.41 43.8828 118.379 43.6914 119.449 43.6914C120.871 43.6914 122.07 43.9492 123.047 44.4648C124.031 44.9805 124.793 45.6914 125.332 46.5977C125.879 47.5039 126.207 48.5352 126.316 49.6914H122.801C122.762 49.0039 122.625 48.4219 122.391 47.9453C122.156 47.4609 121.801 47.0977 121.324 46.8555C120.855 46.6055 120.23 46.4805 119.449 46.4805C118.863 46.4805 118.352 46.5898 117.914 46.8086C117.477 47.0273 117.109 47.3594 116.812 47.8047C116.516 48.25 116.293 48.8125 116.145 49.4922C116.004 50.1641 115.934 50.9531 115.934 51.8594V53.0664C115.934 53.9492 116 54.7266 116.133 55.3984C116.266 56.0625 116.469 56.625 116.742 57.0859C117.023 57.5391 117.383 57.8828 117.82 58.1172C118.266 58.3438 118.801 58.457 119.426 58.457C120.16 58.457 120.766 58.3398 121.242 58.1055C121.719 57.8711 122.082 57.5234 122.332 57.0625C122.59 56.6016 122.742 56.0273 122.789 55.3398ZM131.766 51.0859V61H128.391V48.3203H131.566L131.766 51.0859ZM135.586 48.2383L135.527 51.3672C135.363 51.3438 135.164 51.3242 134.93 51.3086C134.703 51.2852 134.496 51.2734 134.309 51.2734C133.832 51.2734 133.418 51.3359 133.066 51.4609C132.723 51.5781 132.434 51.7539 132.199 51.9883C131.973 52.2227 131.801 52.5078 131.684 52.8438C131.574 53.1797 131.512 53.5625 131.496 53.9922L130.816 53.7812C130.816 52.9609 130.898 52.207 131.062 51.5195C131.227 50.8242 131.465 50.2188 131.777 49.7031C132.098 49.1875 132.488 48.7891 132.949 48.5078C133.41 48.2266 133.938 48.0859 134.531 48.0859C134.719 48.0859 134.91 48.1016 135.105 48.1328C135.301 48.1562 135.461 48.1914 135.586 48.2383ZM142.781 61.2344C141.797 61.2344 140.914 61.0781 140.133 60.7656C139.352 60.4453 138.688 60.0039 138.141 59.4414C137.602 58.8789 137.188 58.2266 136.898 57.4844C136.609 56.7344 136.465 55.9375 136.465 55.0938V54.625C136.465 53.6641 136.602 52.7852 136.875 51.9883C137.148 51.1914 137.539 50.5 138.047 49.9141C138.562 49.3281 139.188 48.8789 139.922 48.5664C140.656 48.2461 141.484 48.0859 142.406 48.0859C143.305 48.0859 144.102 48.2344 144.797 48.5312C145.492 48.8281 146.074 49.25 146.543 49.7969C147.02 50.3438 147.379 51 147.621 51.7656C147.863 52.5234 147.984 53.3672 147.984 54.2969V55.7031H137.906V53.4531H144.668V53.1953C144.668 52.7266 144.582 52.3086 144.41 51.9414C144.246 51.5664 143.996 51.2695 143.66 51.0508C143.324 50.832 142.895 50.7227 142.371 50.7227C141.926 50.7227 141.543 50.8203 141.223 51.0156C140.902 51.2109 140.641 51.4844 140.438 51.8359C140.242 52.1875 140.094 52.6016 139.992 53.0781C139.898 53.5469 139.852 54.0625 139.852 54.625V55.0938C139.852 55.6016 139.922 56.0703 140.062 56.5C140.211 56.9297 140.418 57.3008 140.684 57.6133C140.957 57.9258 141.285 58.168 141.668 58.3398C142.059 58.5117 142.5 58.5977 142.992 58.5977C143.602 58.5977 144.168 58.4805 144.691 58.2461C145.223 58.0039 145.68 57.6406 146.062 57.1562L147.703 58.9375C147.438 59.3203 147.074 59.6875 146.613 60.0391C146.16 60.3906 145.613 60.6797 144.973 60.9062C144.332 61.125 143.602 61.2344 142.781 61.2344ZM157.395 58.2344V43H160.793V61H157.734L157.395 58.2344ZM149.379 54.8125V54.5664C149.379 53.5977 149.488 52.7188 149.707 51.9297C149.926 51.1328 150.246 50.4492 150.668 49.8789C151.09 49.3086 151.609 48.8672 152.227 48.5547C152.844 48.2422 153.547 48.0859 154.336 48.0859C155.078 48.0859 155.727 48.2422 156.281 48.5547C156.844 48.8672 157.32 49.3125 157.711 49.8906C158.109 50.4609 158.43 51.1367 158.672 51.918C158.914 52.6914 159.09 53.5391 159.199 54.4609V55C159.09 55.8828 158.914 56.7031 158.672 57.4609C158.43 58.2188 158.109 58.8828 157.711 59.4531C157.32 60.0156 156.844 60.4531 156.281 60.7656C155.719 61.0781 155.062 61.2344 154.312 61.2344C153.523 61.2344 152.82 61.0742 152.203 60.7539C151.594 60.4336 151.078 59.9844 150.656 59.4062C150.242 58.8281 149.926 58.1484 149.707 57.3672C149.488 56.5859 149.379 55.7344 149.379 54.8125ZM152.754 54.5664V54.8125C152.754 55.3359 152.793 55.8242 152.871 56.2773C152.957 56.7305 153.094 57.1328 153.281 57.4844C153.477 57.8281 153.727 58.0977 154.031 58.293C154.344 58.4805 154.723 58.5742 155.168 58.5742C155.746 58.5742 156.223 58.4453 156.598 58.1875C156.973 57.9219 157.258 57.5586 157.453 57.0977C157.656 56.6367 157.773 56.1055 157.805 55.5039V53.9688C157.781 53.4766 157.711 53.0352 157.594 52.6445C157.484 52.2461 157.32 51.9062 157.102 51.625C156.891 51.3438 156.625 51.125 156.305 50.9688C155.992 50.8125 155.621 50.7344 155.191 50.7344C154.754 50.7344 154.379 50.8359 154.066 51.0391C153.754 51.2344 153.5 51.5039 153.305 51.8477C153.117 52.1914 152.977 52.5977 152.883 53.0664C152.797 53.5273 152.754 54.0273 152.754 54.5664ZM166.992 48.3203V61H163.605V48.3203H166.992ZM163.395 45.0156C163.395 44.5234 163.566 44.1172 163.91 43.7969C164.254 43.4766 164.715 43.3164 165.293 43.3164C165.863 43.3164 166.32 43.4766 166.664 43.7969C167.016 44.1172 167.191 44.5234 167.191 45.0156C167.191 45.5078 167.016 45.9141 166.664 46.2344C166.32 46.5547 165.863 46.7148 165.293 46.7148C164.715 46.7148 164.254 46.5547 163.91 46.2344C163.566 45.9141 163.395 45.5078 163.395 45.0156ZM175.992 48.3203V50.7109H168.609V48.3203H175.992ZM170.438 45.1914H173.812V57.1797C173.812 57.5469 173.859 57.8281 173.953 58.0234C174.055 58.2188 174.203 58.3555 174.398 58.4336C174.594 58.5039 174.84 58.5391 175.137 58.5391C175.348 58.5391 175.535 58.5312 175.699 58.5156C175.871 58.4922 176.016 58.4688 176.133 58.4453L176.145 60.9297C175.855 61.0234 175.543 61.0977 175.207 61.1523C174.871 61.207 174.5 61.2344 174.094 61.2344C173.352 61.2344 172.703 61.1133 172.148 60.8711C171.602 60.6211 171.18 60.2227 170.883 59.6758C170.586 59.1289 170.438 58.4102 170.438 57.5195V45.1914ZM191.648 52.082V58.8438C191.383 59.1641 190.973 59.5117 190.418 59.8867C189.863 60.2539 189.148 60.5703 188.273 60.8359C187.398 61.1016 186.34 61.2344 185.098 61.2344C183.996 61.2344 182.992 61.0547 182.086 60.6953C181.18 60.3281 180.398 59.793 179.742 59.0898C179.094 58.3867 178.594 57.5273 178.242 56.5117C177.891 55.4883 177.715 54.3203 177.715 53.0078V51.9414C177.715 50.6289 177.883 49.4609 178.219 48.4375C178.562 47.4141 179.051 46.5508 179.684 45.8477C180.316 45.1445 181.07 44.6094 181.945 44.2422C182.82 43.875 183.793 43.6914 184.863 43.6914C186.348 43.6914 187.566 43.9336 188.52 44.418C189.473 44.8945 190.199 45.5586 190.699 46.4102C191.207 47.2539 191.52 48.2227 191.637 49.3164H188.227C188.141 48.7383 187.977 48.2344 187.734 47.8047C187.492 47.375 187.145 47.0391 186.691 46.7969C186.246 46.5547 185.668 46.4336 184.957 46.4336C184.371 46.4336 183.848 46.5547 183.387 46.7969C182.934 47.0312 182.551 47.3789 182.238 47.8398C181.926 48.3008 181.688 48.8711 181.523 49.5508C181.359 50.2305 181.277 51.0195 181.277 51.918V53.0078C181.277 53.8984 181.363 54.6875 181.535 55.375C181.707 56.0547 181.961 56.6289 182.297 57.0977C182.641 57.5586 183.062 57.9062 183.562 58.1406C184.062 58.375 184.645 58.4922 185.309 58.4922C185.863 58.4922 186.324 58.4453 186.691 58.3516C187.066 58.2578 187.367 58.1445 187.594 58.0117C187.828 57.8711 188.008 57.7383 188.133 57.6133V54.5898H184.922V52.082H191.648ZM201.773 57.9648V48.3203H205.148V61H201.973L201.773 57.9648ZM202.148 55.3633L203.145 55.3398C203.145 56.1836 203.047 56.9688 202.852 57.6953C202.656 58.4141 202.363 59.0391 201.973 59.5703C201.582 60.0938 201.09 60.5039 200.496 60.8008C199.902 61.0898 199.203 61.2344 198.398 61.2344C197.781 61.2344 197.211 61.1484 196.688 60.9766C196.172 60.7969 195.727 60.5195 195.352 60.1445C194.984 59.7617 194.695 59.2734 194.484 58.6797C194.281 58.0781 194.18 57.3555 194.18 56.5117V48.3203H197.555V56.5352C197.555 56.9102 197.598 57.2266 197.684 57.4844C197.777 57.7422 197.906 57.9531 198.07 58.1172C198.234 58.2812 198.426 58.3984 198.645 58.4688C198.871 58.5391 199.121 58.5742 199.395 58.5742C200.09 58.5742 200.637 58.4336 201.035 58.1523C201.441 57.8711 201.727 57.4883 201.891 57.0039C202.062 56.5117 202.148 55.9648 202.148 55.3633ZM214.57 58.1406V52.4922C214.57 52.0859 214.504 51.7383 214.371 51.4492C214.238 51.1523 214.031 50.9219 213.75 50.7578C213.477 50.5938 213.121 50.5117 212.684 50.5117C212.309 50.5117 211.984 50.5781 211.711 50.7109C211.438 50.8359 211.227 51.0195 211.078 51.2617C210.93 51.4961 210.855 51.7734 210.855 52.0938H207.48C207.48 51.5547 207.605 51.043 207.855 50.5586C208.105 50.0742 208.469 49.6484 208.945 49.2812C209.422 48.9062 209.988 48.6133 210.645 48.4023C211.309 48.1914 212.051 48.0859 212.871 48.0859C213.855 48.0859 214.73 48.25 215.496 48.5781C216.262 48.9062 216.863 49.3984 217.301 50.0547C217.746 50.7109 217.969 51.5312 217.969 52.5156V57.9414C217.969 58.6367 218.012 59.207 218.098 59.6523C218.184 60.0898 218.309 60.4727 218.473 60.8008V61H215.062C214.898 60.6562 214.773 60.2266 214.688 59.7109C214.609 59.1875 214.57 58.6641 214.57 58.1406ZM215.016 53.2773L215.039 55.1875H213.152C212.707 55.1875 212.32 55.2383 211.992 55.3398C211.664 55.4414 211.395 55.5859 211.184 55.7734C210.973 55.9531 210.816 56.1641 210.715 56.4062C210.621 56.6484 210.574 56.9141 210.574 57.2031C210.574 57.4922 210.641 57.7539 210.773 57.9883C210.906 58.2148 211.098 58.3945 211.348 58.5273C211.598 58.6523 211.891 58.7148 212.227 58.7148C212.734 58.7148 213.176 58.6133 213.551 58.4102C213.926 58.207 214.215 57.957 214.418 57.6602C214.629 57.3633 214.738 57.082 214.746 56.8164L215.637 58.2461C215.512 58.5664 215.34 58.8984 215.121 59.2422C214.91 59.5859 214.641 59.9102 214.312 60.2148C213.984 60.5117 213.59 60.7578 213.129 60.9531C212.668 61.1406 212.121 61.2344 211.488 61.2344C210.684 61.2344 209.953 61.0742 209.297 60.7539C208.648 60.4258 208.133 59.9766 207.75 59.4062C207.375 58.8281 207.188 58.1719 207.188 57.4375C207.188 56.7734 207.312 56.1836 207.562 55.668C207.812 55.1523 208.18 54.7188 208.664 54.3672C209.156 54.0078 209.77 53.7383 210.504 53.5586C211.238 53.3711 212.09 53.2773 213.059 53.2773H215.016ZM223.945 51.0859V61H220.57V48.3203H223.746L223.945 51.0859ZM227.766 48.2383L227.707 51.3672C227.543 51.3438 227.344 51.3242 227.109 51.3086C226.883 51.2852 226.676 51.2734 226.488 51.2734C226.012 51.2734 225.598 51.3359 225.246 51.4609C224.902 51.5781 224.613 51.7539 224.379 51.9883C224.152 52.2227 223.98 52.5078 223.863 52.8438C223.754 53.1797 223.691 53.5625 223.676 53.9922L222.996 53.7812C222.996 52.9609 223.078 52.207 223.242 51.5195C223.406 50.8242 223.645 50.2188 223.957 49.7031C224.277 49.1875 224.668 48.7891 225.129 48.5078C225.59 48.2266 226.117 48.0859 226.711 48.0859C226.898 48.0859 227.09 48.1016 227.285 48.1328C227.48 48.1562 227.641 48.1914 227.766 48.2383ZM236.613 58.2344V43H240.012V61H236.953L236.613 58.2344ZM228.598 54.8125V54.5664C228.598 53.5977 228.707 52.7188 228.926 51.9297C229.145 51.1328 229.465 50.4492 229.887 49.8789C230.309 49.3086 230.828 48.8672 231.445 48.5547C232.062 48.2422 232.766 48.0859 233.555 48.0859C234.297 48.0859 234.945 48.2422 235.5 48.5547C236.062 48.8672 236.539 49.3125 236.93 49.8906C237.328 50.4609 237.648 51.1367 237.891 51.918C238.133 52.6914 238.309 53.5391 238.418 54.4609V55C238.309 55.8828 238.133 56.7031 237.891 57.4609C237.648 58.2188 237.328 58.8828 236.93 59.4531C236.539 60.0156 236.062 60.4531 235.5 60.7656C234.938 61.0781 234.281 61.2344 233.531 61.2344C232.742 61.2344 232.039 61.0742 231.422 60.7539C230.812 60.4336 230.297 59.9844 229.875 59.4062C229.461 58.8281 229.145 58.1484 228.926 57.3672C228.707 56.5859 228.598 55.7344 228.598 54.8125ZM231.973 54.5664V54.8125C231.973 55.3359 232.012 55.8242 232.09 56.2773C232.176 56.7305 232.312 57.1328 232.5 57.4844C232.695 57.8281 232.945 58.0977 233.25 58.293C233.562 58.4805 233.941 58.5742 234.387 58.5742C234.965 58.5742 235.441 58.4453 235.816 58.1875C236.191 57.9219 236.477 57.5586 236.672 57.0977C236.875 56.6367 236.992 56.1055 237.023 55.5039V53.9688C237 53.4766 236.93 53.0352 236.812 52.6445C236.703 52.2461 236.539 51.9062 236.32 51.625C236.109 51.3438 235.844 51.125 235.523 50.9688C235.211 50.8125 234.84 50.7344 234.41 50.7344C233.973 50.7344 233.598 50.8359 233.285 51.0391C232.973 51.2344 232.719 51.5039 232.523 51.8477C232.336 52.1914 232.195 52.5977 232.102 53.0664C232.016 53.5273 231.973 54.0273 231.973 54.5664Z" fill="#888888"/>
<path d="M106.688 119H99.1172L99.1641 112.672H106.688C108.25 112.672 109.57 112.297 110.648 111.547C111.742 110.797 112.57 109.68 113.133 108.195C113.711 106.695 114 104.852 114 102.664V101.188C114 99.5469 113.836 98.1094 113.508 96.875C113.195 95.625 112.727 94.5859 112.102 93.7578C111.477 92.9141 110.695 92.2812 109.758 91.8594C108.836 91.4375 107.773 91.2266 106.57 91.2266H98.9766V84.875H106.57C108.883 84.875 111 85.2734 112.922 86.0703C114.859 86.8516 116.531 87.9766 117.938 89.4453C119.359 90.8984 120.453 92.625 121.219 94.625C122 96.6094 122.391 98.8125 122.391 101.234V102.664C122.391 105.07 122 107.273 121.219 109.273C120.453 111.273 119.367 113 117.961 114.453C116.555 115.906 114.891 117.031 112.969 117.828C111.062 118.609 108.969 119 106.688 119ZM103.828 84.875V119H95.6016V84.875H103.828ZM139.477 112.625V102.172C139.477 101.453 139.375 100.836 139.172 100.32C138.969 99.8047 138.648 99.4062 138.211 99.125C137.773 98.8281 137.188 98.6797 136.453 98.6797C135.859 98.6797 135.352 98.7812 134.93 98.9844C134.508 99.1875 134.188 99.4922 133.969 99.8984C133.75 100.305 133.641 100.82 133.641 101.445H125.742C125.742 100.273 126 99.1875 126.516 98.1875C127.047 97.1719 127.797 96.2891 128.766 95.5391C129.75 94.7891 130.922 94.2109 132.281 93.8047C133.656 93.3828 135.188 93.1719 136.875 93.1719C138.891 93.1719 140.688 93.5078 142.266 94.1797C143.859 94.8516 145.117 95.8594 146.039 97.2031C146.961 98.5312 147.422 100.203 147.422 102.219V112.602C147.422 114.258 147.516 115.516 147.703 116.375C147.891 117.219 148.156 117.961 148.5 118.602V119H140.578C140.203 118.219 139.922 117.266 139.734 116.141C139.562 115 139.477 113.828 139.477 112.625ZM140.438 103.508L140.484 107.727H136.992C136.258 107.727 135.633 107.828 135.117 108.031C134.617 108.234 134.211 108.516 133.898 108.875C133.602 109.219 133.383 109.609 133.242 110.047C133.117 110.484 133.055 110.945 133.055 111.43C133.055 111.898 133.164 112.32 133.383 112.695C133.617 113.055 133.93 113.336 134.32 113.539C134.711 113.742 135.148 113.844 135.633 113.844C136.508 113.844 137.25 113.68 137.859 113.352C138.484 113.008 138.961 112.594 139.289 112.109C139.617 111.625 139.781 111.172 139.781 110.75L141.516 113.984C141.203 114.609 140.844 115.242 140.438 115.883C140.047 116.523 139.555 117.117 138.961 117.664C138.383 118.195 137.672 118.633 136.828 118.977C135.984 119.305 134.961 119.469 133.758 119.469C132.195 119.469 130.758 119.148 129.445 118.508C128.148 117.867 127.109 116.977 126.328 115.836C125.547 114.68 125.156 113.352 125.156 111.852C125.156 110.539 125.391 109.367 125.859 108.336C126.344 107.305 127.07 106.43 128.039 105.711C129.008 104.992 130.242 104.445 131.742 104.07C133.242 103.695 135.008 103.508 137.039 103.508H140.438ZM165.164 93.6406V99.125H149.883V93.6406H165.164ZM153.094 87.3359H160.992V110.727C160.992 111.398 161.07 111.922 161.227 112.297C161.383 112.656 161.648 112.914 162.023 113.07C162.414 113.211 162.93 113.281 163.57 113.281C164.023 113.281 164.398 113.273 164.695 113.258C164.992 113.227 165.273 113.188 165.539 113.141V118.789C164.867 119.008 164.164 119.172 163.43 119.281C162.695 119.406 161.914 119.469 161.086 119.469C159.398 119.469 157.953 119.203 156.75 118.672C155.562 118.141 154.656 117.305 154.031 116.164C153.406 115.023 153.094 113.539 153.094 111.711V87.3359ZM181.477 112.625V102.172C181.477 101.453 181.375 100.836 181.172 100.32C180.969 99.8047 180.648 99.4062 180.211 99.125C179.773 98.8281 179.188 98.6797 178.453 98.6797C177.859 98.6797 177.352 98.7812 176.93 98.9844C176.508 99.1875 176.188 99.4922 175.969 99.8984C175.75 100.305 175.641 100.82 175.641 101.445H167.742C167.742 100.273 168 99.1875 168.516 98.1875C169.047 97.1719 169.797 96.2891 170.766 95.5391C171.75 94.7891 172.922 94.2109 174.281 93.8047C175.656 93.3828 177.188 93.1719 178.875 93.1719C180.891 93.1719 182.688 93.5078 184.266 94.1797C185.859 94.8516 187.117 95.8594 188.039 97.2031C188.961 98.5312 189.422 100.203 189.422 102.219V112.602C189.422 114.258 189.516 115.516 189.703 116.375C189.891 117.219 190.156 117.961 190.5 118.602V119H182.578C182.203 118.219 181.922 117.266 181.734 116.141C181.562 115 181.477 113.828 181.477 112.625ZM182.438 103.508L182.484 107.727H178.992C178.258 107.727 177.633 107.828 177.117 108.031C176.617 108.234 176.211 108.516 175.898 108.875C175.602 109.219 175.383 109.609 175.242 110.047C175.117 110.484 175.055 110.945 175.055 111.43C175.055 111.898 175.164 112.32 175.383 112.695C175.617 113.055 175.93 113.336 176.32 113.539C176.711 113.742 177.148 113.844 177.633 113.844C178.508 113.844 179.25 113.68 179.859 113.352C180.484 113.008 180.961 112.594 181.289 112.109C181.617 111.625 181.781 111.172 181.781 110.75L183.516 113.984C183.203 114.609 182.844 115.242 182.438 115.883C182.047 116.523 181.555 117.117 180.961 117.664C180.383 118.195 179.672 118.633 178.828 118.977C177.984 119.305 176.961 119.469 175.758 119.469C174.195 119.469 172.758 119.148 171.445 118.508C170.148 117.867 169.109 116.977 168.328 115.836C167.547 114.68 167.156 113.352 167.156 111.852C167.156 110.539 167.391 109.367 167.859 108.336C168.344 107.305 169.07 106.43 170.039 105.711C171.008 104.992 172.242 104.445 173.742 104.07C175.242 103.695 177.008 103.508 179.039 103.508H182.438ZM219.047 110.961L226.148 84.875H235.359L223.852 119H217.898L219.047 110.961ZM212.602 84.875L219.703 110.961L220.898 119H214.875L203.438 84.875H212.602ZM249.586 112.625V102.172C249.586 101.453 249.484 100.836 249.281 100.32C249.078 99.8047 248.758 99.4062 248.32 99.125C247.883 98.8281 247.297 98.6797 246.562 98.6797C245.969 98.6797 245.461 98.7812 245.039 98.9844C244.617 99.1875 244.297 99.4922 244.078 99.8984C243.859 100.305 243.75 100.82 243.75 101.445H235.852C235.852 100.273 236.109 99.1875 236.625 98.1875C237.156 97.1719 237.906 96.2891 238.875 95.5391C239.859 94.7891 241.031 94.2109 242.391 93.8047C243.766 93.3828 245.297 93.1719 246.984 93.1719C249 93.1719 250.797 93.5078 252.375 94.1797C253.969 94.8516 255.227 95.8594 256.148 97.2031C257.07 98.5312 257.531 100.203 257.531 102.219V112.602C257.531 114.258 257.625 115.516 257.812 116.375C258 117.219 258.266 117.961 258.609 118.602V119H250.688C250.312 118.219 250.031 117.266 249.844 116.141C249.672 115 249.586 113.828 249.586 112.625ZM250.547 103.508L250.594 107.727H247.102C246.367 107.727 245.742 107.828 245.227 108.031C244.727 108.234 244.32 108.516 244.008 108.875C243.711 109.219 243.492 109.609 243.352 110.047C243.227 110.484 243.164 110.945 243.164 111.43C243.164 111.898 243.273 112.32 243.492 112.695C243.727 113.055 244.039 113.336 244.43 113.539C244.82 113.742 245.258 113.844 245.742 113.844C246.617 113.844 247.359 113.68 247.969 113.352C248.594 113.008 249.07 112.594 249.398 112.109C249.727 111.625 249.891 111.172 249.891 110.75L251.625 113.984C251.312 114.609 250.953 115.242 250.547 115.883C250.156 116.523 249.664 117.117 249.07 117.664C248.492 118.195 247.781 118.633 246.938 118.977C246.094 119.305 245.07 119.469 243.867 119.469C242.305 119.469 240.867 119.148 239.555 118.508C238.258 117.867 237.219 116.977 236.438 115.836C235.656 114.68 235.266 113.352 235.266 111.852C235.266 110.539 235.5 109.367 235.969 108.336C236.453 107.305 237.18 106.43 238.148 105.711C239.117 104.992 240.352 104.445 241.852 104.07C243.352 103.695 245.117 103.508 247.148 103.508H250.547ZM270.258 83V119H262.336V83H270.258ZM283.477 93.6406V119H275.555V93.6406H283.477ZM275.086 87.1016C275.086 85.9766 275.492 85.0547 276.305 84.3359C277.117 83.6172 278.172 83.2578 279.469 83.2578C280.766 83.2578 281.82 83.6172 282.633 84.3359C283.445 85.0547 283.852 85.9766 283.852 87.1016C283.852 88.2266 283.445 89.1484 282.633 89.8672C281.82 90.5859 280.766 90.9453 279.469 90.9453C278.172 90.9453 277.117 90.5859 276.305 89.8672C275.492 89.1484 275.086 88.2266 275.086 87.1016ZM302.93 113.188V83H310.875V119H303.75L302.93 113.188ZM287.367 106.625V106.133C287.367 104.211 287.578 102.461 288 100.883C288.422 99.2891 289.047 97.9219 289.875 96.7812C290.703 95.625 291.734 94.7344 292.969 94.1094C294.203 93.4844 295.625 93.1719 297.234 93.1719C298.672 93.1719 299.93 93.5078 301.008 94.1797C302.086 94.8359 303.008 95.7578 303.773 96.9453C304.539 98.1328 305.164 99.5234 305.648 101.117C306.133 102.695 306.5 104.398 306.75 106.227V106.812C306.5 108.531 306.133 110.156 305.648 111.688C305.164 113.203 304.539 114.547 303.773 115.719C303.008 116.891 302.078 117.812 300.984 118.484C299.906 119.141 298.641 119.469 297.188 119.469C295.578 119.469 294.156 119.148 292.922 118.508C291.703 117.867 290.68 116.969 289.852 115.812C289.039 114.656 288.422 113.297 288 111.734C287.578 110.172 287.367 108.469 287.367 106.625ZM295.266 106.133V106.625C295.266 107.578 295.328 108.461 295.453 109.273C295.578 110.086 295.789 110.805 296.086 111.43C296.398 112.039 296.805 112.516 297.305 112.859C297.82 113.203 298.453 113.375 299.203 113.375C300.219 113.375 301.055 113.133 301.711 112.648C302.383 112.164 302.875 111.477 303.188 110.586C303.516 109.695 303.656 108.648 303.609 107.445V105.594C303.641 104.562 303.57 103.656 303.398 102.875C303.227 102.078 302.953 101.414 302.578 100.883C302.219 100.352 301.758 99.9531 301.195 99.6875C300.648 99.4062 300 99.2656 299.25 99.2656C298.516 99.2656 297.891 99.4375 297.375 99.7812C296.875 100.125 296.469 100.609 296.156 101.234C295.844 101.844 295.617 102.57 295.477 103.414C295.336 104.242 295.266 105.148 295.266 106.133ZM328.523 112.625V102.172C328.523 101.453 328.422 100.836 328.219 100.32C328.016 99.8047 327.695 99.4062 327.258 99.125C326.82 98.8281 326.234 98.6797 325.5 98.6797C324.906 98.6797 324.398 98.7812 323.977 98.9844C323.555 99.1875 323.234 99.4922 323.016 99.8984C322.797 100.305 322.688 100.82 322.688 101.445H314.789C314.789 100.273 315.047 99.1875 315.562 98.1875C316.094 97.1719 316.844 96.2891 317.812 95.5391C318.797 94.7891 319.969 94.2109 321.328 93.8047C322.703 93.3828 324.234 93.1719 325.922 93.1719C327.938 93.1719 329.734 93.5078 331.312 94.1797C332.906 94.8516 334.164 95.8594 335.086 97.2031C336.008 98.5312 336.469 100.203 336.469 102.219V112.602C336.469 114.258 336.562 115.516 336.75 116.375C336.938 117.219 337.203 117.961 337.547 118.602V119H329.625C329.25 118.219 328.969 117.266 328.781 116.141C328.609 115 328.523 113.828 328.523 112.625ZM329.484 103.508L329.531 107.727H326.039C325.305 107.727 324.68 107.828 324.164 108.031C323.664 108.234 323.258 108.516 322.945 108.875C322.648 109.219 322.43 109.609 322.289 110.047C322.164 110.484 322.102 110.945 322.102 111.43C322.102 111.898 322.211 112.32 322.43 112.695C322.664 113.055 322.977 113.336 323.367 113.539C323.758 113.742 324.195 113.844 324.68 113.844C325.555 113.844 326.297 113.68 326.906 113.352C327.531 113.008 328.008 112.594 328.336 112.109C328.664 111.625 328.828 111.172 328.828 110.75L330.562 113.984C330.25 114.609 329.891 115.242 329.484 115.883C329.094 116.523 328.602 117.117 328.008 117.664C327.43 118.195 326.719 118.633 325.875 118.977C325.031 119.305 324.008 119.469 322.805 119.469C321.242 119.469 319.805 119.148 318.492 118.508C317.195 117.867 316.156 116.977 315.375 115.836C314.594 114.68 314.203 113.352 314.203 111.852C314.203 110.539 314.438 109.367 314.906 108.336C315.391 107.305 316.117 106.43 317.086 105.711C318.055 104.992 319.289 104.445 320.789 104.07C322.289 103.695 324.055 103.508 326.086 103.508H329.484ZM354.211 93.6406V99.125H338.93V93.6406H354.211ZM342.141 87.3359H350.039V110.727C350.039 111.398 350.117 111.922 350.273 112.297C350.43 112.656 350.695 112.914 351.07 113.07C351.461 113.211 351.977 113.281 352.617 113.281C353.07 113.281 353.445 113.273 353.742 113.258C354.039 113.227 354.32 113.188 354.586 113.141V118.789C353.914 119.008 353.211 119.172 352.477 119.281C351.742 119.406 350.961 119.469 350.133 119.469C348.445 119.469 347 119.203 345.797 118.672C344.609 118.141 343.703 117.305 343.078 116.164C342.453 115.023 342.141 113.539 342.141 111.711V87.3359ZM365.695 93.6406V119H357.773V93.6406H365.695ZM357.305 87.1016C357.305 85.9766 357.711 85.0547 358.523 84.3359C359.336 83.6172 360.391 83.2578 361.688 83.2578C362.984 83.2578 364.039 83.6172 364.852 84.3359C365.664 85.0547 366.07 85.9766 366.07 87.1016C366.07 88.2266 365.664 89.1484 364.852 89.8672C364.039 90.5859 362.984 90.9453 361.688 90.9453C360.391 90.9453 359.336 90.5859 358.523 89.8672C357.711 89.1484 357.305 88.2266 357.305 87.1016ZM369.586 106.578V106.086C369.586 104.227 369.852 102.516 370.383 100.953C370.914 99.375 371.695 98.0078 372.727 96.8516C373.758 95.6953 375.031 94.7969 376.547 94.1562C378.062 93.5 379.812 93.1719 381.797 93.1719C383.797 93.1719 385.555 93.5 387.07 94.1562C388.602 94.7969 389.883 95.6953 390.914 96.8516C391.945 98.0078 392.727 99.375 393.258 100.953C393.789 102.516 394.055 104.227 394.055 106.086V106.578C394.055 108.422 393.789 110.133 393.258 111.711C392.727 113.273 391.945 114.641 390.914 115.812C389.883 116.969 388.609 117.867 387.094 118.508C385.578 119.148 383.828 119.469 381.844 119.469C379.859 119.469 378.102 119.148 376.57 118.508C375.039 117.867 373.758 116.969 372.727 115.812C371.695 114.641 370.914 113.273 370.383 111.711C369.852 110.133 369.586 108.422 369.586 106.578ZM377.484 106.086V106.578C377.484 107.531 377.555 108.422 377.695 109.25C377.836 110.078 378.07 110.805 378.398 111.43C378.727 112.039 379.172 112.516 379.734 112.859C380.297 113.203 381 113.375 381.844 113.375C382.672 113.375 383.359 113.203 383.906 112.859C384.469 112.516 384.914 112.039 385.242 111.43C385.57 110.805 385.805 110.078 385.945 109.25C386.086 108.422 386.156 107.531 386.156 106.578V106.086C386.156 105.164 386.086 104.297 385.945 103.484C385.805 102.656 385.57 101.93 385.242 101.305C384.914 100.664 384.469 100.164 383.906 99.8047C383.344 99.4453 382.641 99.2656 381.797 99.2656C380.969 99.2656 380.273 99.4453 379.711 99.8047C379.164 100.164 378.727 100.664 378.398 101.305C378.07 101.93 377.836 102.656 377.695 103.484C377.555 104.297 377.484 105.164 377.484 106.086ZM405.328 99.0547V119H397.43V93.6406H404.836L405.328 99.0547ZM404.391 105.453L402.539 105.5C402.539 103.562 402.773 101.836 403.242 100.32C403.711 98.7891 404.375 97.4922 405.234 96.4297C406.094 95.3672 407.117 94.5625 408.305 94.0156C409.508 93.4531 410.844 93.1719 412.312 93.1719C413.484 93.1719 414.555 93.3438 415.523 93.6875C416.508 94.0312 417.352 94.5859 418.055 95.3516C418.773 96.1172 419.32 97.1328 419.695 98.3984C420.086 99.6484 420.281 101.195 420.281 103.039V119H412.336V103.016C412.336 102 412.195 101.227 411.914 100.695C411.633 100.148 411.227 99.7734 410.695 99.5703C410.164 99.3672 409.516 99.2656 408.75 99.2656C407.938 99.2656 407.25 99.4219 406.688 99.7344C406.125 100.047 405.672 100.484 405.328 101.047C405 101.594 404.758 102.242 404.602 102.992C404.461 103.742 404.391 104.562 404.391 105.453Z" fill="black"/>
<path d="M1134 0H1348C1356.28 0 1363 6.71573 1363 15V148C1363 156.284 1356.28 163 1348 163H1134V0Z" fill="#5BE1E6"/>
<path d="M1210.62 43.625H1286.38V119.375H1210.62V43.625Z" fill="white" fill-opacity="0.01"/>
<path d="M1276.91 72.0312V105.172C1276.91 107.787 1274.79 109.906 1272.17 109.906H1224.83C1222.21 109.906 1220.09 107.787 1220.09 105.172V57.8281C1220.09 55.2134 1222.21 53.0938 1224.83 53.0938H1261.12" stroke="white" stroke-width="7.24" stroke-linecap="round" stroke-linejoin="round"/>
<path d="M1232.72 75.1875L1248.5 87.8125L1276.91 53.0938" stroke="white" stroke-width="7.24" stroke-linecap="round" stroke-linejoin="round"/>
</svg>
