<svg width="1363" height="163" viewBox="0 0 1363 163" fill="none" xmlns="http://www.w3.org/2000/svg">
<path d="M0 15C0 6.71573 6.71573 0 15 0H37V163H15C6.71573 163 0 156.284 0 148V15Z" fill="#424242"/>
<rect width="1097" height="163" transform="translate(37)" fill="#F0F0F0"/>
<path d="M101.906 53.9219L94.3945 51.2383V48.0859L104.602 52.375V54.6367L101.906 53.9219ZM94.3945 56.1719L101.918 53.4297L104.602 52.7852V55.0352L94.3945 59.3242V56.1719ZM122.789 55.3398H126.293C126.223 56.4883 125.906 57.5078 125.344 58.3984C124.789 59.2891 124.012 59.9844 123.012 60.4844C122.02 60.9844 120.824 61.2344 119.426 61.2344C118.332 61.2344 117.352 61.0469 116.484 60.6719C115.617 60.2891 114.875 59.7422 114.258 59.0312C113.648 58.3203 113.184 57.4609 112.863 56.4531C112.543 55.4453 112.383 54.3164 112.383 53.0664V51.8828C112.383 50.6328 112.547 49.5039 112.875 48.4961C113.211 47.4805 113.688 46.6172 114.305 45.9062C114.93 45.1953 115.676 44.6484 116.543 44.2656C117.41 43.8828 118.379 43.6914 119.449 43.6914C120.871 43.6914 122.07 43.9492 123.047 44.4648C124.031 44.9805 124.793 45.6914 125.332 46.5977C125.879 47.5039 126.207 48.5352 126.316 49.6914H122.801C122.762 49.0039 122.625 48.4219 122.391 47.9453C122.156 47.4609 121.801 47.0977 121.324 46.8555C120.855 46.6055 120.23 46.4805 119.449 46.4805C118.863 46.4805 118.352 46.5898 117.914 46.8086C117.477 47.0273 117.109 47.3594 116.812 47.8047C116.516 48.25 116.293 48.8125 116.145 49.4922C116.004 50.1641 115.934 50.9531 115.934 51.8594V53.0664C115.934 53.9492 116 54.7266 116.133 55.3984C116.266 56.0625 116.469 56.625 116.742 57.0859C117.023 57.5391 117.383 57.8828 117.82 58.1172C118.266 58.3438 118.801 58.457 119.426 58.457C120.16 58.457 120.766 58.3398 121.242 58.1055C121.719 57.8711 122.082 57.5234 122.332 57.0625C122.59 56.6016 122.742 56.0273 122.789 55.3398ZM131.766 51.0859V61H128.391V48.3203H131.566L131.766 51.0859ZM135.586 48.2383L135.527 51.3672C135.363 51.3438 135.164 51.3242 134.93 51.3086C134.703 51.2852 134.496 51.2734 134.309 51.2734C133.832 51.2734 133.418 51.3359 133.066 51.4609C132.723 51.5781 132.434 51.7539 132.199 51.9883C131.973 52.2227 131.801 52.5078 131.684 52.8438C131.574 53.1797 131.512 53.5625 131.496 53.9922L130.816 53.7812C130.816 52.9609 130.898 52.207 131.062 51.5195C131.227 50.8242 131.465 50.2188 131.777 49.7031C132.098 49.1875 132.488 48.7891 132.949 48.5078C133.41 48.2266 133.938 48.0859 134.531 48.0859C134.719 48.0859 134.91 48.1016 135.105 48.1328C135.301 48.1562 135.461 48.1914 135.586 48.2383ZM142.781 61.2344C141.797 61.2344 140.914 61.0781 140.133 60.7656C139.352 60.4453 138.688 60.0039 138.141 59.4414C137.602 58.8789 137.188 58.2266 136.898 57.4844C136.609 56.7344 136.465 55.9375 136.465 55.0938V54.625C136.465 53.6641 136.602 52.7852 136.875 51.9883C137.148 51.1914 137.539 50.5 138.047 49.9141C138.562 49.3281 139.188 48.8789 139.922 48.5664C140.656 48.2461 141.484 48.0859 142.406 48.0859C143.305 48.0859 144.102 48.2344 144.797 48.5312C145.492 48.8281 146.074 49.25 146.543 49.7969C147.02 50.3438 147.379 51 147.621 51.7656C147.863 52.5234 147.984 53.3672 147.984 54.2969V55.7031H137.906V53.4531H144.668V53.1953C144.668 52.7266 144.582 52.3086 144.41 51.9414C144.246 51.5664 143.996 51.2695 143.66 51.0508C143.324 50.832 142.895 50.7227 142.371 50.7227C141.926 50.7227 141.543 50.8203 141.223 51.0156C140.902 51.2109 140.641 51.4844 140.438 51.8359C140.242 52.1875 140.094 52.6016 139.992 53.0781C139.898 53.5469 139.852 54.0625 139.852 54.625V55.0938C139.852 55.6016 139.922 56.0703 140.062 56.5C140.211 56.9297 140.418 57.3008 140.684 57.6133C140.957 57.9258 141.285 58.168 141.668 58.3398C142.059 58.5117 142.5 58.5977 142.992 58.5977C143.602 58.5977 144.168 58.4805 144.691 58.2461C145.223 58.0039 145.68 57.6406 146.062 57.1562L147.703 58.9375C147.438 59.3203 147.074 59.6875 146.613 60.0391C146.16 60.3906 145.613 60.6797 144.973 60.9062C144.332 61.125 143.602 61.2344 142.781 61.2344ZM157.395 58.2344V43H160.793V61H157.734L157.395 58.2344ZM149.379 54.8125V54.5664C149.379 53.5977 149.488 52.7188 149.707 51.9297C149.926 51.1328 150.246 50.4492 150.668 49.8789C151.09 49.3086 151.609 48.8672 152.227 48.5547C152.844 48.2422 153.547 48.0859 154.336 48.0859C155.078 48.0859 155.727 48.2422 156.281 48.5547C156.844 48.8672 157.32 49.3125 157.711 49.8906C158.109 50.4609 158.43 51.1367 158.672 51.918C158.914 52.6914 159.09 53.5391 159.199 54.4609V55C159.09 55.8828 158.914 56.7031 158.672 57.4609C158.43 58.2188 158.109 58.8828 157.711 59.4531C157.32 60.0156 156.844 60.4531 156.281 60.7656C155.719 61.0781 155.062 61.2344 154.312 61.2344C153.523 61.2344 152.82 61.0742 152.203 60.7539C151.594 60.4336 151.078 59.9844 150.656 59.4062C150.242 58.8281 149.926 58.1484 149.707 57.3672C149.488 56.5859 149.379 55.7344 149.379 54.8125ZM152.754 54.5664V54.8125C152.754 55.3359 152.793 55.8242 152.871 56.2773C152.957 56.7305 153.094 57.1328 153.281 57.4844C153.477 57.8281 153.727 58.0977 154.031 58.293C154.344 58.4805 154.723 58.5742 155.168 58.5742C155.746 58.5742 156.223 58.4453 156.598 58.1875C156.973 57.9219 157.258 57.5586 157.453 57.0977C157.656 56.6367 157.773 56.1055 157.805 55.5039V53.9688C157.781 53.4766 157.711 53.0352 157.594 52.6445C157.484 52.2461 157.32 51.9062 157.102 51.625C156.891 51.3438 156.625 51.125 156.305 50.9688C155.992 50.8125 155.621 50.7344 155.191 50.7344C154.754 50.7344 154.379 50.8359 154.066 51.0391C153.754 51.2344 153.5 51.5039 153.305 51.8477C153.117 52.1914 152.977 52.5977 152.883 53.0664C152.797 53.5273 152.754 54.0273 152.754 54.5664ZM166.992 48.3203V61H163.605V48.3203H166.992ZM163.395 45.0156C163.395 44.5234 163.566 44.1172 163.91 43.7969C164.254 43.4766 164.715 43.3164 165.293 43.3164C165.863 43.3164 166.32 43.4766 166.664 43.7969C167.016 44.1172 167.191 44.5234 167.191 45.0156C167.191 45.5078 167.016 45.9141 166.664 46.2344C166.32 46.5547 165.863 46.7148 165.293 46.7148C164.715 46.7148 164.254 46.5547 163.91 46.2344C163.566 45.9141 163.395 45.5078 163.395 45.0156ZM175.992 48.3203V50.7109H168.609V48.3203H175.992ZM170.438 45.1914H173.812V57.1797C173.812 57.5469 173.859 57.8281 173.953 58.0234C174.055 58.2188 174.203 58.3555 174.398 58.4336C174.594 58.5039 174.84 58.5391 175.137 58.5391C175.348 58.5391 175.535 58.5312 175.699 58.5156C175.871 58.4922 176.016 58.4688 176.133 58.4453L176.145 60.9297C175.855 61.0234 175.543 61.0977 175.207 61.1523C174.871 61.207 174.5 61.2344 174.094 61.2344C173.352 61.2344 172.703 61.1133 172.148 60.8711C171.602 60.6211 171.18 60.2227 170.883 59.6758C170.586 59.1289 170.438 58.4102 170.438 57.5195V45.1914ZM191.648 52.082V58.8438C191.383 59.1641 190.973 59.5117 190.418 59.8867C189.863 60.2539 189.148 60.5703 188.273 60.8359C187.398 61.1016 186.34 61.2344 185.098 61.2344C183.996 61.2344 182.992 61.0547 182.086 60.6953C181.18 60.3281 180.398 59.793 179.742 59.0898C179.094 58.3867 178.594 57.5273 178.242 56.5117C177.891 55.4883 177.715 54.3203 177.715 53.0078V51.9414C177.715 50.6289 177.883 49.4609 178.219 48.4375C178.562 47.4141 179.051 46.5508 179.684 45.8477C180.316 45.1445 181.07 44.6094 181.945 44.2422C182.82 43.875 183.793 43.6914 184.863 43.6914C186.348 43.6914 187.566 43.9336 188.52 44.418C189.473 44.8945 190.199 45.5586 190.699 46.4102C191.207 47.2539 191.52 48.2227 191.637 49.3164H188.227C188.141 48.7383 187.977 48.2344 187.734 47.8047C187.492 47.375 187.145 47.0391 186.691 46.7969C186.246 46.5547 185.668 46.4336 184.957 46.4336C184.371 46.4336 183.848 46.5547 183.387 46.7969C182.934 47.0312 182.551 47.3789 182.238 47.8398C181.926 48.3008 181.688 48.8711 181.523 49.5508C181.359 50.2305 181.277 51.0195 181.277 51.918V53.0078C181.277 53.8984 181.363 54.6875 181.535 55.375C181.707 56.0547 181.961 56.6289 182.297 57.0977C182.641 57.5586 183.062 57.9062 183.562 58.1406C184.062 58.375 184.645 58.4922 185.309 58.4922C185.863 58.4922 186.324 58.4453 186.691 58.3516C187.066 58.2578 187.367 58.1445 187.594 58.0117C187.828 57.8711 188.008 57.7383 188.133 57.6133V54.5898H184.922V52.082H191.648ZM201.773 57.9648V48.3203H205.148V61H201.973L201.773 57.9648ZM202.148 55.3633L203.145 55.3398C203.145 56.1836 203.047 56.9688 202.852 57.6953C202.656 58.4141 202.363 59.0391 201.973 59.5703C201.582 60.0938 201.09 60.5039 200.496 60.8008C199.902 61.0898 199.203 61.2344 198.398 61.2344C197.781 61.2344 197.211 61.1484 196.688 60.9766C196.172 60.7969 195.727 60.5195 195.352 60.1445C194.984 59.7617 194.695 59.2734 194.484 58.6797C194.281 58.0781 194.18 57.3555 194.18 56.5117V48.3203H197.555V56.5352C197.555 56.9102 197.598 57.2266 197.684 57.4844C197.777 57.7422 197.906 57.9531 198.07 58.1172C198.234 58.2812 198.426 58.3984 198.645 58.4688C198.871 58.5391 199.121 58.5742 199.395 58.5742C200.09 58.5742 200.637 58.4336 201.035 58.1523C201.441 57.8711 201.727 57.4883 201.891 57.0039C202.062 56.5117 202.148 55.9648 202.148 55.3633ZM214.57 58.1406V52.4922C214.57 52.0859 214.504 51.7383 214.371 51.4492C214.238 51.1523 214.031 50.9219 213.75 50.7578C213.477 50.5938 213.121 50.5117 212.684 50.5117C212.309 50.5117 211.984 50.5781 211.711 50.7109C211.438 50.8359 211.227 51.0195 211.078 51.2617C210.93 51.4961 210.855 51.7734 210.855 52.0938H207.48C207.48 51.5547 207.605 51.043 207.855 50.5586C208.105 50.0742 208.469 49.6484 208.945 49.2812C209.422 48.9062 209.988 48.6133 210.645 48.4023C211.309 48.1914 212.051 48.0859 212.871 48.0859C213.855 48.0859 214.73 48.25 215.496 48.5781C216.262 48.9062 216.863 49.3984 217.301 50.0547C217.746 50.7109 217.969 51.5312 217.969 52.5156V57.9414C217.969 58.6367 218.012 59.207 218.098 59.6523C218.184 60.0898 218.309 60.4727 218.473 60.8008V61H215.062C214.898 60.6562 214.773 60.2266 214.688 59.7109C214.609 59.1875 214.57 58.6641 214.57 58.1406ZM215.016 53.2773L215.039 55.1875H213.152C212.707 55.1875 212.32 55.2383 211.992 55.3398C211.664 55.4414 211.395 55.5859 211.184 55.7734C210.973 55.9531 210.816 56.1641 210.715 56.4062C210.621 56.6484 210.574 56.9141 210.574 57.2031C210.574 57.4922 210.641 57.7539 210.773 57.9883C210.906 58.2148 211.098 58.3945 211.348 58.5273C211.598 58.6523 211.891 58.7148 212.227 58.7148C212.734 58.7148 213.176 58.6133 213.551 58.4102C213.926 58.207 214.215 57.957 214.418 57.6602C214.629 57.3633 214.738 57.082 214.746 56.8164L215.637 58.2461C215.512 58.5664 215.34 58.8984 215.121 59.2422C214.91 59.5859 214.641 59.9102 214.312 60.2148C213.984 60.5117 213.59 60.7578 213.129 60.9531C212.668 61.1406 212.121 61.2344 211.488 61.2344C210.684 61.2344 209.953 61.0742 209.297 60.7539C208.648 60.4258 208.133 59.9766 207.75 59.4062C207.375 58.8281 207.188 58.1719 207.188 57.4375C207.188 56.7734 207.312 56.1836 207.562 55.668C207.812 55.1523 208.18 54.7188 208.664 54.3672C209.156 54.0078 209.77 53.7383 210.504 53.5586C211.238 53.3711 212.09 53.2773 213.059 53.2773H215.016ZM223.945 51.0859V61H220.57V48.3203H223.746L223.945 51.0859ZM227.766 48.2383L227.707 51.3672C227.543 51.3438 227.344 51.3242 227.109 51.3086C226.883 51.2852 226.676 51.2734 226.488 51.2734C226.012 51.2734 225.598 51.3359 225.246 51.4609C224.902 51.5781 224.613 51.7539 224.379 51.9883C224.152 52.2227 223.98 52.5078 223.863 52.8438C223.754 53.1797 223.691 53.5625 223.676 53.9922L222.996 53.7812C222.996 52.9609 223.078 52.207 223.242 51.5195C223.406 50.8242 223.645 50.2188 223.957 49.7031C224.277 49.1875 224.668 48.7891 225.129 48.5078C225.59 48.2266 226.117 48.0859 226.711 48.0859C226.898 48.0859 227.09 48.1016 227.285 48.1328C227.48 48.1562 227.641 48.1914 227.766 48.2383ZM236.613 58.2344V43H240.012V61H236.953L236.613 58.2344ZM228.598 54.8125V54.5664C228.598 53.5977 228.707 52.7188 228.926 51.9297C229.145 51.1328 229.465 50.4492 229.887 49.8789C230.309 49.3086 230.828 48.8672 231.445 48.5547C232.062 48.2422 232.766 48.0859 233.555 48.0859C234.297 48.0859 234.945 48.2422 235.5 48.5547C236.062 48.8672 236.539 49.3125 236.93 49.8906C237.328 50.4609 237.648 51.1367 237.891 51.918C238.133 52.6914 238.309 53.5391 238.418 54.4609V55C238.309 55.8828 238.133 56.7031 237.891 57.4609C237.648 58.2188 237.328 58.8828 236.93 59.4531C236.539 60.0156 236.062 60.4531 235.5 60.7656C234.938 61.0781 234.281 61.2344 233.531 61.2344C232.742 61.2344 232.039 61.0742 231.422 60.7539C230.812 60.4336 230.297 59.9844 229.875 59.4062C229.461 58.8281 229.145 58.1484 228.926 57.3672C228.707 56.5859 228.598 55.7344 228.598 54.8125ZM231.973 54.5664V54.8125C231.973 55.3359 232.012 55.8242 232.09 56.2773C232.176 56.7305 232.312 57.1328 232.5 57.4844C232.695 57.8281 232.945 58.0977 233.25 58.293C233.562 58.4805 233.941 58.5742 234.387 58.5742C234.965 58.5742 235.441 58.4453 235.816 58.1875C236.191 57.9219 236.477 57.5586 236.672 57.0977C236.875 56.6367 236.992 56.1055 237.023 55.5039V53.9688C237 53.4766 236.93 53.0352 236.812 52.6445C236.703 52.2461 236.539 51.9062 236.32 51.625C236.109 51.3438 235.844 51.125 235.523 50.9688C235.211 50.8125 234.84 50.7344 234.41 50.7344C233.973 50.7344 233.598 50.8359 233.285 51.0391C232.973 51.2344 232.719 51.5039 232.523 51.8477C232.336 52.1914 232.195 52.5977 232.102 53.0664C232.016 53.5273 231.973 54.0273 231.973 54.5664Z" fill="#888888"/>
<path d="M108.516 110.961L115.617 84.875H124.828L113.32 119H107.367L108.516 110.961ZM102.07 84.875L109.172 110.961L110.367 119H104.344L92.9062 84.875H102.07ZM139.055 112.625V102.172C139.055 101.453 138.953 100.836 138.75 100.32C138.547 99.8047 138.227 99.4062 137.789 99.125C137.352 98.8281 136.766 98.6797 136.031 98.6797C135.438 98.6797 134.93 98.7812 134.508 98.9844C134.086 99.1875 133.766 99.4922 133.547 99.8984C133.328 100.305 133.219 100.82 133.219 101.445H125.32C125.32 100.273 125.578 99.1875 126.094 98.1875C126.625 97.1719 127.375 96.2891 128.344 95.5391C129.328 94.7891 130.5 94.2109 131.859 93.8047C133.234 93.3828 134.766 93.1719 136.453 93.1719C138.469 93.1719 140.266 93.5078 141.844 94.1797C143.438 94.8516 144.695 95.8594 145.617 97.2031C146.539 98.5312 147 100.203 147 102.219V112.602C147 114.258 147.094 115.516 147.281 116.375C147.469 117.219 147.734 117.961 148.078 118.602V119H140.156C139.781 118.219 139.5 117.266 139.312 116.141C139.141 115 139.055 113.828 139.055 112.625ZM140.016 103.508L140.062 107.727H136.57C135.836 107.727 135.211 107.828 134.695 108.031C134.195 108.234 133.789 108.516 133.477 108.875C133.18 109.219 132.961 109.609 132.82 110.047C132.695 110.484 132.633 110.945 132.633 111.43C132.633 111.898 132.742 112.32 132.961 112.695C133.195 113.055 133.508 113.336 133.898 113.539C134.289 113.742 134.727 113.844 135.211 113.844C136.086 113.844 136.828 113.68 137.438 113.352C138.062 113.008 138.539 112.594 138.867 112.109C139.195 111.625 139.359 111.172 139.359 110.75L141.094 113.984C140.781 114.609 140.422 115.242 140.016 115.883C139.625 116.523 139.133 117.117 138.539 117.664C137.961 118.195 137.25 118.633 136.406 118.977C135.562 119.305 134.539 119.469 133.336 119.469C131.773 119.469 130.336 119.148 129.023 118.508C127.727 117.867 126.688 116.977 125.906 115.836C125.125 114.68 124.734 113.352 124.734 111.852C124.734 110.539 124.969 109.367 125.438 108.336C125.922 107.305 126.648 106.43 127.617 105.711C128.586 104.992 129.82 104.445 131.32 104.07C132.82 103.695 134.586 103.508 136.617 103.508H140.016ZM159.727 83V119H151.805V83H159.727ZM172.945 93.6406V119H165.023V93.6406H172.945ZM164.555 87.1016C164.555 85.9766 164.961 85.0547 165.773 84.3359C166.586 83.6172 167.641 83.2578 168.938 83.2578C170.234 83.2578 171.289 83.6172 172.102 84.3359C172.914 85.0547 173.32 85.9766 173.32 87.1016C173.32 88.2266 172.914 89.1484 172.102 89.8672C171.289 90.5859 170.234 90.9453 168.938 90.9453C167.641 90.9453 166.586 90.5859 165.773 89.8672C164.961 89.1484 164.555 88.2266 164.555 87.1016ZM192.398 113.188V83H200.344V119H193.219L192.398 113.188ZM176.836 106.625V106.133C176.836 104.211 177.047 102.461 177.469 100.883C177.891 99.2891 178.516 97.9219 179.344 96.7812C180.172 95.625 181.203 94.7344 182.438 94.1094C183.672 93.4844 185.094 93.1719 186.703 93.1719C188.141 93.1719 189.398 93.5078 190.477 94.1797C191.555 94.8359 192.477 95.7578 193.242 96.9453C194.008 98.1328 194.633 99.5234 195.117 101.117C195.602 102.695 195.969 104.398 196.219 106.227V106.812C195.969 108.531 195.602 110.156 195.117 111.688C194.633 113.203 194.008 114.547 193.242 115.719C192.477 116.891 191.547 117.812 190.453 118.484C189.375 119.141 188.109 119.469 186.656 119.469C185.047 119.469 183.625 119.148 182.391 118.508C181.172 117.867 180.148 116.969 179.32 115.812C178.508 114.656 177.891 113.297 177.469 111.734C177.047 110.172 176.836 108.469 176.836 106.625ZM184.734 106.133V106.625C184.734 107.578 184.797 108.461 184.922 109.273C185.047 110.086 185.258 110.805 185.555 111.43C185.867 112.039 186.273 112.516 186.773 112.859C187.289 113.203 187.922 113.375 188.672 113.375C189.688 113.375 190.523 113.133 191.18 112.648C191.852 112.164 192.344 111.477 192.656 110.586C192.984 109.695 193.125 108.648 193.078 107.445V105.594C193.109 104.562 193.039 103.656 192.867 102.875C192.695 102.078 192.422 101.414 192.047 100.883C191.688 100.352 191.227 99.9531 190.664 99.6875C190.117 99.4062 189.469 99.2656 188.719 99.2656C187.984 99.2656 187.359 99.4375 186.844 99.7812C186.344 100.125 185.938 100.609 185.625 101.234C185.312 101.844 185.086 102.57 184.945 103.414C184.805 104.242 184.734 105.148 184.734 106.133ZM217.992 112.625V102.172C217.992 101.453 217.891 100.836 217.688 100.32C217.484 99.8047 217.164 99.4062 216.727 99.125C216.289 98.8281 215.703 98.6797 214.969 98.6797C214.375 98.6797 213.867 98.7812 213.445 98.9844C213.023 99.1875 212.703 99.4922 212.484 99.8984C212.266 100.305 212.156 100.82 212.156 101.445H204.258C204.258 100.273 204.516 99.1875 205.031 98.1875C205.562 97.1719 206.312 96.2891 207.281 95.5391C208.266 94.7891 209.438 94.2109 210.797 93.8047C212.172 93.3828 213.703 93.1719 215.391 93.1719C217.406 93.1719 219.203 93.5078 220.781 94.1797C222.375 94.8516 223.633 95.8594 224.555 97.2031C225.477 98.5312 225.938 100.203 225.938 102.219V112.602C225.938 114.258 226.031 115.516 226.219 116.375C226.406 117.219 226.672 117.961 227.016 118.602V119H219.094C218.719 118.219 218.438 117.266 218.25 116.141C218.078 115 217.992 113.828 217.992 112.625ZM218.953 103.508L219 107.727H215.508C214.773 107.727 214.148 107.828 213.633 108.031C213.133 108.234 212.727 108.516 212.414 108.875C212.117 109.219 211.898 109.609 211.758 110.047C211.633 110.484 211.57 110.945 211.57 111.43C211.57 111.898 211.68 112.32 211.898 112.695C212.133 113.055 212.445 113.336 212.836 113.539C213.227 113.742 213.664 113.844 214.148 113.844C215.023 113.844 215.766 113.68 216.375 113.352C217 113.008 217.477 112.594 217.805 112.109C218.133 111.625 218.297 111.172 218.297 110.75L220.031 113.984C219.719 114.609 219.359 115.242 218.953 115.883C218.562 116.523 218.07 117.117 217.477 117.664C216.898 118.195 216.188 118.633 215.344 118.977C214.5 119.305 213.477 119.469 212.273 119.469C210.711 119.469 209.273 119.148 207.961 118.508C206.664 117.867 205.625 116.977 204.844 115.836C204.062 114.68 203.672 113.352 203.672 111.852C203.672 110.539 203.906 109.367 204.375 108.336C204.859 107.305 205.586 106.43 206.555 105.711C207.523 104.992 208.758 104.445 210.258 104.07C211.758 103.695 213.523 103.508 215.555 103.508H218.953ZM243.68 93.6406V99.125H228.398V93.6406H243.68ZM231.609 87.3359H239.508V110.727C239.508 111.398 239.586 111.922 239.742 112.297C239.898 112.656 240.164 112.914 240.539 113.07C240.93 113.211 241.445 113.281 242.086 113.281C242.539 113.281 242.914 113.273 243.211 113.258C243.508 113.227 243.789 113.188 244.055 113.141V118.789C243.383 119.008 242.68 119.172 241.945 119.281C241.211 119.406 240.43 119.469 239.602 119.469C237.914 119.469 236.469 119.203 235.266 118.672C234.078 118.141 233.172 117.305 232.547 116.164C231.922 115.023 231.609 113.539 231.609 111.711V87.3359ZM255.164 93.6406V119H247.242V93.6406H255.164ZM246.773 87.1016C246.773 85.9766 247.18 85.0547 247.992 84.3359C248.805 83.6172 249.859 83.2578 251.156 83.2578C252.453 83.2578 253.508 83.6172 254.32 84.3359C255.133 85.0547 255.539 85.9766 255.539 87.1016C255.539 88.2266 255.133 89.1484 254.32 89.8672C253.508 90.5859 252.453 90.9453 251.156 90.9453C249.859 90.9453 248.805 90.5859 247.992 89.8672C247.18 89.1484 246.773 88.2266 246.773 87.1016ZM259.055 106.578V106.086C259.055 104.227 259.32 102.516 259.852 100.953C260.383 99.375 261.164 98.0078 262.195 96.8516C263.227 95.6953 264.5 94.7969 266.016 94.1562C267.531 93.5 269.281 93.1719 271.266 93.1719C273.266 93.1719 275.023 93.5 276.539 94.1562C278.07 94.7969 279.352 95.6953 280.383 96.8516C281.414 98.0078 282.195 99.375 282.727 100.953C283.258 102.516 283.523 104.227 283.523 106.086V106.578C283.523 108.422 283.258 110.133 282.727 111.711C282.195 113.273 281.414 114.641 280.383 115.812C279.352 116.969 278.078 117.867 276.562 118.508C275.047 119.148 273.297 119.469 271.312 119.469C269.328 119.469 267.57 119.148 266.039 118.508C264.508 117.867 263.227 116.969 262.195 115.812C261.164 114.641 260.383 113.273 259.852 111.711C259.32 110.133 259.055 108.422 259.055 106.578ZM266.953 106.086V106.578C266.953 107.531 267.023 108.422 267.164 109.25C267.305 110.078 267.539 110.805 267.867 111.43C268.195 112.039 268.641 112.516 269.203 112.859C269.766 113.203 270.469 113.375 271.312 113.375C272.141 113.375 272.828 113.203 273.375 112.859C273.938 112.516 274.383 112.039 274.711 111.43C275.039 110.805 275.273 110.078 275.414 109.25C275.555 108.422 275.625 107.531 275.625 106.578V106.086C275.625 105.164 275.555 104.297 275.414 103.484C275.273 102.656 275.039 101.93 274.711 101.305C274.383 100.664 273.938 100.164 273.375 99.8047C272.812 99.4453 272.109 99.2656 271.266 99.2656C270.438 99.2656 269.742 99.4453 269.18 99.8047C268.633 100.164 268.195 100.664 267.867 101.305C267.539 101.93 267.305 102.656 267.164 103.484C267.023 104.297 266.953 105.164 266.953 106.086ZM294.797 99.0547V119H286.898V93.6406H294.305L294.797 99.0547ZM293.859 105.453L292.008 105.5C292.008 103.562 292.242 101.836 292.711 100.32C293.18 98.7891 293.844 97.4922 294.703 96.4297C295.562 95.3672 296.586 94.5625 297.773 94.0156C298.977 93.4531 300.312 93.1719 301.781 93.1719C302.953 93.1719 304.023 93.3438 304.992 93.6875C305.977 94.0312 306.82 94.5859 307.523 95.3516C308.242 96.1172 308.789 97.1328 309.164 98.3984C309.555 99.6484 309.75 101.195 309.75 103.039V119H301.805V103.016C301.805 102 301.664 101.227 301.383 100.695C301.102 100.148 300.695 99.7734 300.164 99.5703C299.633 99.3672 298.984 99.2656 298.219 99.2656C297.406 99.2656 296.719 99.4219 296.156 99.7344C295.594 100.047 295.141 100.484 294.797 101.047C294.469 101.594 294.227 102.242 294.07 102.992C293.93 103.742 293.859 104.562 293.859 105.453Z" fill="black"/>
<path d="M1134 0H1348C1356.28 0 1363 6.71573 1363 15V148C1363 156.284 1356.28 163 1348 163H1134V0Z" fill="#5BE1E6"/>
<path d="M1210.62 43.625H1286.38V119.375H1210.62V43.625Z" fill="white" fill-opacity="0.01"/>
<path d="M1276.91 72.0312V105.172C1276.91 107.787 1274.79 109.906 1272.17 109.906H1224.83C1222.21 109.906 1220.09 107.787 1220.09 105.172V57.8281C1220.09 55.2134 1222.21 53.0938 1224.83 53.0938H1261.12" stroke="white" stroke-width="7.24" stroke-linecap="round" stroke-linejoin="round"/>
<path d="M1232.72 75.1875L1248.5 87.8125L1276.91 53.0938" stroke="white" stroke-width="7.24" stroke-linecap="round" stroke-linejoin="round"/>
</svg>
