<svg width="1363" height="163" viewBox="0 0 1363 163" fill="none" xmlns="http://www.w3.org/2000/svg">
<path d="M0 15C0 6.71573 6.71573 0 15 0H37V163H15C6.71573 163 0 156.284 0 148V15Z" fill="#424242"/>
<rect width="1097" height="163" transform="translate(37)" fill="#F0F0F0"/>
<path d="M101.906 53.9219L94.3945 51.2383V48.0859L104.602 52.375V54.6367L101.906 53.9219ZM94.3945 56.1719L101.918 53.4297L104.602 52.7852V55.0352L94.3945 59.3242V56.1719ZM122.789 55.3398H126.293C126.223 56.4883 125.906 57.5078 125.344 58.3984C124.789 59.2891 124.012 59.9844 123.012 60.4844C122.02 60.9844 120.824 61.2344 119.426 61.2344C118.332 61.2344 117.352 61.0469 116.484 60.6719C115.617 60.2891 114.875 59.7422 114.258 59.0312C113.648 58.3203 113.184 57.4609 112.863 56.4531C112.543 55.4453 112.383 54.3164 112.383 53.0664V51.8828C112.383 50.6328 112.547 49.5039 112.875 48.4961C113.211 47.4805 113.688 46.6172 114.305 45.9062C114.93 45.1953 115.676 44.6484 116.543 44.2656C117.41 43.8828 118.379 43.6914 119.449 43.6914C120.871 43.6914 122.07 43.9492 123.047 44.4648C124.031 44.9805 124.793 45.6914 125.332 46.5977C125.879 47.5039 126.207 48.5352 126.316 49.6914H122.801C122.762 49.0039 122.625 48.4219 122.391 47.9453C122.156 47.4609 121.801 47.0977 121.324 46.8555C120.855 46.6055 120.23 46.4805 119.449 46.4805C118.863 46.4805 118.352 46.5898 117.914 46.8086C117.477 47.0273 117.109 47.3594 116.812 47.8047C116.516 48.25 116.293 48.8125 116.145 49.4922C116.004 50.1641 115.934 50.9531 115.934 51.8594V53.0664C115.934 53.9492 116 54.7266 116.133 55.3984C116.266 56.0625 116.469 56.625 116.742 57.0859C117.023 57.5391 117.383 57.8828 117.82 58.1172C118.266 58.3438 118.801 58.457 119.426 58.457C120.16 58.457 120.766 58.3398 121.242 58.1055C121.719 57.8711 122.082 57.5234 122.332 57.0625C122.59 56.6016 122.742 56.0273 122.789 55.3398ZM131.766 51.0859V61H128.391V48.3203H131.566L131.766 51.0859ZM135.586 48.2383L135.527 51.3672C135.363 51.3438 135.164 51.3242 134.93 51.3086C134.703 51.2852 134.496 51.2734 134.309 51.2734C133.832 51.2734 133.418 51.3359 133.066 51.4609C132.723 51.5781 132.434 51.7539 132.199 51.9883C131.973 52.2227 131.801 52.5078 131.684 52.8438C131.574 53.1797 131.512 53.5625 131.496 53.9922L130.816 53.7812C130.816 52.9609 130.898 52.207 131.062 51.5195C131.227 50.8242 131.465 50.2188 131.777 49.7031C132.098 49.1875 132.488 48.7891 132.949 48.5078C133.41 48.2266 133.938 48.0859 134.531 48.0859C134.719 48.0859 134.91 48.1016 135.105 48.1328C135.301 48.1562 135.461 48.1914 135.586 48.2383ZM142.781 61.2344C141.797 61.2344 140.914 61.0781 140.133 60.7656C139.352 60.4453 138.688 60.0039 138.141 59.4414C137.602 58.8789 137.188 58.2266 136.898 57.4844C136.609 56.7344 136.465 55.9375 136.465 55.0938V54.625C136.465 53.6641 136.602 52.7852 136.875 51.9883C137.148 51.1914 137.539 50.5 138.047 49.9141C138.562 49.3281 139.188 48.8789 139.922 48.5664C140.656 48.2461 141.484 48.0859 142.406 48.0859C143.305 48.0859 144.102 48.2344 144.797 48.5312C145.492 48.8281 146.074 49.25 146.543 49.7969C147.02 50.3438 147.379 51 147.621 51.7656C147.863 52.5234 147.984 53.3672 147.984 54.2969V55.7031H137.906V53.4531H144.668V53.1953C144.668 52.7266 144.582 52.3086 144.41 51.9414C144.246 51.5664 143.996 51.2695 143.66 51.0508C143.324 50.832 142.895 50.7227 142.371 50.7227C141.926 50.7227 141.543 50.8203 141.223 51.0156C140.902 51.2109 140.641 51.4844 140.438 51.8359C140.242 52.1875 140.094 52.6016 139.992 53.0781C139.898 53.5469 139.852 54.0625 139.852 54.625V55.0938C139.852 55.6016 139.922 56.0703 140.062 56.5C140.211 56.9297 140.418 57.3008 140.684 57.6133C140.957 57.9258 141.285 58.168 141.668 58.3398C142.059 58.5117 142.5 58.5977 142.992 58.5977C143.602 58.5977 144.168 58.4805 144.691 58.2461C145.223 58.0039 145.68 57.6406 146.062 57.1562L147.703 58.9375C147.438 59.3203 147.074 59.6875 146.613 60.0391C146.16 60.3906 145.613 60.6797 144.973 60.9062C144.332 61.125 143.602 61.2344 142.781 61.2344ZM157.395 58.2344V43H160.793V61H157.734L157.395 58.2344ZM149.379 54.8125V54.5664C149.379 53.5977 149.488 52.7188 149.707 51.9297C149.926 51.1328 150.246 50.4492 150.668 49.8789C151.09 49.3086 151.609 48.8672 152.227 48.5547C152.844 48.2422 153.547 48.0859 154.336 48.0859C155.078 48.0859 155.727 48.2422 156.281 48.5547C156.844 48.8672 157.32 49.3125 157.711 49.8906C158.109 50.4609 158.43 51.1367 158.672 51.918C158.914 52.6914 159.09 53.5391 159.199 54.4609V55C159.09 55.8828 158.914 56.7031 158.672 57.4609C158.43 58.2188 158.109 58.8828 157.711 59.4531C157.32 60.0156 156.844 60.4531 156.281 60.7656C155.719 61.0781 155.062 61.2344 154.312 61.2344C153.523 61.2344 152.82 61.0742 152.203 60.7539C151.594 60.4336 151.078 59.9844 150.656 59.4062C150.242 58.8281 149.926 58.1484 149.707 57.3672C149.488 56.5859 149.379 55.7344 149.379 54.8125ZM152.754 54.5664V54.8125C152.754 55.3359 152.793 55.8242 152.871 56.2773C152.957 56.7305 153.094 57.1328 153.281 57.4844C153.477 57.8281 153.727 58.0977 154.031 58.293C154.344 58.4805 154.723 58.5742 155.168 58.5742C155.746 58.5742 156.223 58.4453 156.598 58.1875C156.973 57.9219 157.258 57.5586 157.453 57.0977C157.656 56.6367 157.773 56.1055 157.805 55.5039V53.9688C157.781 53.4766 157.711 53.0352 157.594 52.6445C157.484 52.2461 157.32 51.9062 157.102 51.625C156.891 51.3438 156.625 51.125 156.305 50.9688C155.992 50.8125 155.621 50.7344 155.191 50.7344C154.754 50.7344 154.379 50.8359 154.066 51.0391C153.754 51.2344 153.5 51.5039 153.305 51.8477C153.117 52.1914 152.977 52.5977 152.883 53.0664C152.797 53.5273 152.754 54.0273 152.754 54.5664ZM166.992 48.3203V61H163.605V48.3203H166.992ZM163.395 45.0156C163.395 44.5234 163.566 44.1172 163.91 43.7969C164.254 43.4766 164.715 43.3164 165.293 43.3164C165.863 43.3164 166.32 43.4766 166.664 43.7969C167.016 44.1172 167.191 44.5234 167.191 45.0156C167.191 45.5078 167.016 45.9141 166.664 46.2344C166.32 46.5547 165.863 46.7148 165.293 46.7148C164.715 46.7148 164.254 46.5547 163.91 46.2344C163.566 45.9141 163.395 45.5078 163.395 45.0156ZM175.992 48.3203V50.7109H168.609V48.3203H175.992ZM170.438 45.1914H173.812V57.1797C173.812 57.5469 173.859 57.8281 173.953 58.0234C174.055 58.2188 174.203 58.3555 174.398 58.4336C174.594 58.5039 174.84 58.5391 175.137 58.5391C175.348 58.5391 175.535 58.5312 175.699 58.5156C175.871 58.4922 176.016 58.4688 176.133 58.4453L176.145 60.9297C175.855 61.0234 175.543 61.0977 175.207 61.1523C174.871 61.207 174.5 61.2344 174.094 61.2344C173.352 61.2344 172.703 61.1133 172.148 60.8711C171.602 60.6211 171.18 60.2227 170.883 59.6758C170.586 59.1289 170.438 58.4102 170.438 57.5195V45.1914ZM191.648 52.082V58.8438C191.383 59.1641 190.973 59.5117 190.418 59.8867C189.863 60.2539 189.148 60.5703 188.273 60.8359C187.398 61.1016 186.34 61.2344 185.098 61.2344C183.996 61.2344 182.992 61.0547 182.086 60.6953C181.18 60.3281 180.398 59.793 179.742 59.0898C179.094 58.3867 178.594 57.5273 178.242 56.5117C177.891 55.4883 177.715 54.3203 177.715 53.0078V51.9414C177.715 50.6289 177.883 49.4609 178.219 48.4375C178.562 47.4141 179.051 46.5508 179.684 45.8477C180.316 45.1445 181.07 44.6094 181.945 44.2422C182.82 43.875 183.793 43.6914 184.863 43.6914C186.348 43.6914 187.566 43.9336 188.52 44.418C189.473 44.8945 190.199 45.5586 190.699 46.4102C191.207 47.2539 191.52 48.2227 191.637 49.3164H188.227C188.141 48.7383 187.977 48.2344 187.734 47.8047C187.492 47.375 187.145 47.0391 186.691 46.7969C186.246 46.5547 185.668 46.4336 184.957 46.4336C184.371 46.4336 183.848 46.5547 183.387 46.7969C182.934 47.0312 182.551 47.3789 182.238 47.8398C181.926 48.3008 181.688 48.8711 181.523 49.5508C181.359 50.2305 181.277 51.0195 181.277 51.918V53.0078C181.277 53.8984 181.363 54.6875 181.535 55.375C181.707 56.0547 181.961 56.6289 182.297 57.0977C182.641 57.5586 183.062 57.9062 183.562 58.1406C184.062 58.375 184.645 58.4922 185.309 58.4922C185.863 58.4922 186.324 58.4453 186.691 58.3516C187.066 58.2578 187.367 58.1445 187.594 58.0117C187.828 57.8711 188.008 57.7383 188.133 57.6133V54.5898H184.922V52.082H191.648ZM201.773 57.9648V48.3203H205.148V61H201.973L201.773 57.9648ZM202.148 55.3633L203.145 55.3398C203.145 56.1836 203.047 56.9688 202.852 57.6953C202.656 58.4141 202.363 59.0391 201.973 59.5703C201.582 60.0938 201.09 60.5039 200.496 60.8008C199.902 61.0898 199.203 61.2344 198.398 61.2344C197.781 61.2344 197.211 61.1484 196.688 60.9766C196.172 60.7969 195.727 60.5195 195.352 60.1445C194.984 59.7617 194.695 59.2734 194.484 58.6797C194.281 58.0781 194.18 57.3555 194.18 56.5117V48.3203H197.555V56.5352C197.555 56.9102 197.598 57.2266 197.684 57.4844C197.777 57.7422 197.906 57.9531 198.07 58.1172C198.234 58.2812 198.426 58.3984 198.645 58.4688C198.871 58.5391 199.121 58.5742 199.395 58.5742C200.09 58.5742 200.637 58.4336 201.035 58.1523C201.441 57.8711 201.727 57.4883 201.891 57.0039C202.062 56.5117 202.148 55.9648 202.148 55.3633ZM214.57 58.1406V52.4922C214.57 52.0859 214.504 51.7383 214.371 51.4492C214.238 51.1523 214.031 50.9219 213.75 50.7578C213.477 50.5938 213.121 50.5117 212.684 50.5117C212.309 50.5117 211.984 50.5781 211.711 50.7109C211.438 50.8359 211.227 51.0195 211.078 51.2617C210.93 51.4961 210.855 51.7734 210.855 52.0938H207.48C207.48 51.5547 207.605 51.043 207.855 50.5586C208.105 50.0742 208.469 49.6484 208.945 49.2812C209.422 48.9062 209.988 48.6133 210.645 48.4023C211.309 48.1914 212.051 48.0859 212.871 48.0859C213.855 48.0859 214.73 48.25 215.496 48.5781C216.262 48.9062 216.863 49.3984 217.301 50.0547C217.746 50.7109 217.969 51.5312 217.969 52.5156V57.9414C217.969 58.6367 218.012 59.207 218.098 59.6523C218.184 60.0898 218.309 60.4727 218.473 60.8008V61H215.062C214.898 60.6562 214.773 60.2266 214.688 59.7109C214.609 59.1875 214.57 58.6641 214.57 58.1406ZM215.016 53.2773L215.039 55.1875H213.152C212.707 55.1875 212.32 55.2383 211.992 55.3398C211.664 55.4414 211.395 55.5859 211.184 55.7734C210.973 55.9531 210.816 56.1641 210.715 56.4062C210.621 56.6484 210.574 56.9141 210.574 57.2031C210.574 57.4922 210.641 57.7539 210.773 57.9883C210.906 58.2148 211.098 58.3945 211.348 58.5273C211.598 58.6523 211.891 58.7148 212.227 58.7148C212.734 58.7148 213.176 58.6133 213.551 58.4102C213.926 58.207 214.215 57.957 214.418 57.6602C214.629 57.3633 214.738 57.082 214.746 56.8164L215.637 58.2461C215.512 58.5664 215.34 58.8984 215.121 59.2422C214.91 59.5859 214.641 59.9102 214.312 60.2148C213.984 60.5117 213.59 60.7578 213.129 60.9531C212.668 61.1406 212.121 61.2344 211.488 61.2344C210.684 61.2344 209.953 61.0742 209.297 60.7539C208.648 60.4258 208.133 59.9766 207.75 59.4062C207.375 58.8281 207.188 58.1719 207.188 57.4375C207.188 56.7734 207.312 56.1836 207.562 55.668C207.812 55.1523 208.18 54.7188 208.664 54.3672C209.156 54.0078 209.77 53.7383 210.504 53.5586C211.238 53.3711 212.09 53.2773 213.059 53.2773H215.016ZM223.945 51.0859V61H220.57V48.3203H223.746L223.945 51.0859ZM227.766 48.2383L227.707 51.3672C227.543 51.3438 227.344 51.3242 227.109 51.3086C226.883 51.2852 226.676 51.2734 226.488 51.2734C226.012 51.2734 225.598 51.3359 225.246 51.4609C224.902 51.5781 224.613 51.7539 224.379 51.9883C224.152 52.2227 223.98 52.5078 223.863 52.8438C223.754 53.1797 223.691 53.5625 223.676 53.9922L222.996 53.7812C222.996 52.9609 223.078 52.207 223.242 51.5195C223.406 50.8242 223.645 50.2188 223.957 49.7031C224.277 49.1875 224.668 48.7891 225.129 48.5078C225.59 48.2266 226.117 48.0859 226.711 48.0859C226.898 48.0859 227.09 48.1016 227.285 48.1328C227.48 48.1562 227.641 48.1914 227.766 48.2383ZM236.613 58.2344V43H240.012V61H236.953L236.613 58.2344ZM228.598 54.8125V54.5664C228.598 53.5977 228.707 52.7188 228.926 51.9297C229.145 51.1328 229.465 50.4492 229.887 49.8789C230.309 49.3086 230.828 48.8672 231.445 48.5547C232.062 48.2422 232.766 48.0859 233.555 48.0859C234.297 48.0859 234.945 48.2422 235.5 48.5547C236.062 48.8672 236.539 49.3125 236.93 49.8906C237.328 50.4609 237.648 51.1367 237.891 51.918C238.133 52.6914 238.309 53.5391 238.418 54.4609V55C238.309 55.8828 238.133 56.7031 237.891 57.4609C237.648 58.2188 237.328 58.8828 236.93 59.4531C236.539 60.0156 236.062 60.4531 235.5 60.7656C234.938 61.0781 234.281 61.2344 233.531 61.2344C232.742 61.2344 232.039 61.0742 231.422 60.7539C230.812 60.4336 230.297 59.9844 229.875 59.4062C229.461 58.8281 229.145 58.1484 228.926 57.3672C228.707 56.5859 228.598 55.7344 228.598 54.8125ZM231.973 54.5664V54.8125C231.973 55.3359 232.012 55.8242 232.09 56.2773C232.176 56.7305 232.312 57.1328 232.5 57.4844C232.695 57.8281 232.945 58.0977 233.25 58.293C233.562 58.4805 233.941 58.5742 234.387 58.5742C234.965 58.5742 235.441 58.4453 235.816 58.1875C236.191 57.9219 236.477 57.5586 236.672 57.0977C236.875 56.6367 236.992 56.1055 237.023 55.5039V53.9688C237 53.4766 236.93 53.0352 236.812 52.6445C236.703 52.2461 236.539 51.9062 236.32 51.625C236.109 51.3438 235.844 51.125 235.523 50.9688C235.211 50.8125 234.84 50.7344 234.41 50.7344C233.973 50.7344 233.598 50.8359 233.285 51.0391C232.973 51.2344 232.719 51.5039 232.523 51.8477C232.336 52.1914 232.195 52.5977 232.102 53.0664C232.016 53.5273 231.973 54.0273 231.973 54.5664Z" fill="#888888"/>
<path d="M118.594 98.4219V104.75H101.086V98.4219H118.594ZM103.828 84.875V119H95.6016V84.875H103.828ZM124.125 84.875V119H115.922V84.875H124.125ZM127.992 106.578V106.086C127.992 104.227 128.258 102.516 128.789 100.953C129.32 99.375 130.102 98.0078 131.133 96.8516C132.164 95.6953 133.438 94.7969 134.953 94.1562C136.469 93.5 138.219 93.1719 140.203 93.1719C142.203 93.1719 143.961 93.5 145.477 94.1562C147.008 94.7969 148.289 95.6953 149.32 96.8516C150.352 98.0078 151.133 99.375 151.664 100.953C152.195 102.516 152.461 104.227 152.461 106.086V106.578C152.461 108.422 152.195 110.133 151.664 111.711C151.133 113.273 150.352 114.641 149.32 115.812C148.289 116.969 147.016 117.867 145.5 118.508C143.984 119.148 142.234 119.469 140.25 119.469C138.266 119.469 136.508 119.148 134.977 118.508C133.445 117.867 132.164 116.969 131.133 115.812C130.102 114.641 129.32 113.273 128.789 111.711C128.258 110.133 127.992 108.422 127.992 106.578ZM135.891 106.086V106.578C135.891 107.531 135.961 108.422 136.102 109.25C136.242 110.078 136.477 110.805 136.805 111.43C137.133 112.039 137.578 112.516 138.141 112.859C138.703 113.203 139.406 113.375 140.25 113.375C141.078 113.375 141.766 113.203 142.312 112.859C142.875 112.516 143.32 112.039 143.648 111.43C143.977 110.805 144.211 110.078 144.352 109.25C144.492 108.422 144.562 107.531 144.562 106.578V106.086C144.562 105.164 144.492 104.297 144.352 103.484C144.211 102.656 143.977 101.93 143.648 101.305C143.32 100.664 142.875 100.164 142.312 99.8047C141.75 99.4453 141.047 99.2656 140.203 99.2656C139.375 99.2656 138.68 99.4453 138.117 99.8047C137.57 100.164 137.133 100.664 136.805 101.305C136.477 101.93 136.242 102.656 136.102 103.484C135.961 104.297 135.891 105.164 135.891 106.086ZM163.688 111.453L168.375 93.6406H173.32L171.562 102.57L166.922 119H162.961L163.688 111.453ZM161.836 93.6406L164.742 111.312L165.07 119H160.266L154.266 93.6406H161.836ZM177.492 110.938L180.422 93.6406H187.992L182.039 119H177.234L177.492 110.938ZM173.883 93.6406L178.617 111.406L179.344 119H175.336L170.789 102.617L169.102 93.6406H173.883ZM218.297 84.875V119H210.07V84.875H218.297ZM228.562 84.875V91.2266H200.039V84.875H228.562ZM225.773 106.578V106.086C225.773 104.227 226.039 102.516 226.57 100.953C227.102 99.375 227.883 98.0078 228.914 96.8516C229.945 95.6953 231.219 94.7969 232.734 94.1562C234.25 93.5 236 93.1719 237.984 93.1719C239.984 93.1719 241.742 93.5 243.258 94.1562C244.789 94.7969 246.07 95.6953 247.102 96.8516C248.133 98.0078 248.914 99.375 249.445 100.953C249.977 102.516 250.242 104.227 250.242 106.086V106.578C250.242 108.422 249.977 110.133 249.445 111.711C248.914 113.273 248.133 114.641 247.102 115.812C246.07 116.969 244.797 117.867 243.281 118.508C241.766 119.148 240.016 119.469 238.031 119.469C236.047 119.469 234.289 119.148 232.758 118.508C231.227 117.867 229.945 116.969 228.914 115.812C227.883 114.641 227.102 113.273 226.57 111.711C226.039 110.133 225.773 108.422 225.773 106.578ZM233.672 106.086V106.578C233.672 107.531 233.742 108.422 233.883 109.25C234.023 110.078 234.258 110.805 234.586 111.43C234.914 112.039 235.359 112.516 235.922 112.859C236.484 113.203 237.188 113.375 238.031 113.375C238.859 113.375 239.547 113.203 240.094 112.859C240.656 112.516 241.102 112.039 241.43 111.43C241.758 110.805 241.992 110.078 242.133 109.25C242.273 108.422 242.344 107.531 242.344 106.578V106.086C242.344 105.164 242.273 104.297 242.133 103.484C241.992 102.656 241.758 101.93 241.43 101.305C241.102 100.664 240.656 100.164 240.094 99.8047C239.531 99.4453 238.828 99.2656 237.984 99.2656C237.156 99.2656 236.461 99.4453 235.898 99.8047C235.352 100.164 234.914 100.664 234.586 101.305C234.258 101.93 234.023 102.656 233.883 103.484C233.742 104.297 233.672 105.164 233.672 106.086ZM266.086 84.875H279.516C282.141 84.875 284.422 85.2656 286.359 86.0469C288.297 86.8281 289.789 87.9844 290.836 89.5156C291.898 91.0469 292.43 92.9375 292.43 95.1875C292.43 97.1406 292.125 98.7734 291.516 100.086C290.906 101.398 290.055 102.484 288.961 103.344C287.883 104.188 286.625 104.883 285.188 105.43L282.492 106.953H271.219L271.172 100.602H279.516C280.562 100.602 281.43 100.414 282.117 100.039C282.805 99.6641 283.32 99.1328 283.664 98.4453C284.023 97.7422 284.203 96.9062 284.203 95.9375C284.203 94.9531 284.023 94.1094 283.664 93.4062C283.305 92.7031 282.773 92.1641 282.07 91.7891C281.383 91.4141 280.531 91.2266 279.516 91.2266H274.312V119H266.086V84.875ZM284.766 119L277.219 103.906L285.938 103.859L293.578 118.648V119H284.766ZM311.836 112.836V93.6406H319.758V119H312.352L311.836 112.836ZM312.586 107.68L314.648 107.633C314.648 109.336 314.445 110.914 314.039 112.367C313.633 113.805 313.031 115.055 312.234 116.117C311.453 117.18 310.484 118.008 309.328 118.602C308.188 119.18 306.867 119.469 305.367 119.469C304.117 119.469 302.969 119.297 301.922 118.953C300.891 118.594 300 118.039 299.25 117.289C298.5 116.523 297.914 115.547 297.492 114.359C297.086 113.156 296.883 111.719 296.883 110.047V93.6406H304.781V110.094C304.781 110.656 304.852 111.141 304.992 111.547C305.133 111.953 305.336 112.297 305.602 112.578C305.867 112.844 306.195 113.047 306.586 113.188C306.992 113.312 307.453 113.375 307.969 113.375C309.156 113.375 310.086 113.125 310.758 112.625C311.43 112.125 311.898 111.445 312.164 110.586C312.445 109.727 312.586 108.758 312.586 107.68ZM331.875 99.0547V119H323.977V93.6406H331.383L331.875 99.0547ZM330.938 105.453L329.086 105.5C329.086 103.562 329.32 101.836 329.789 100.32C330.258 98.7891 330.922 97.4922 331.781 96.4297C332.641 95.3672 333.664 94.5625 334.852 94.0156C336.055 93.4531 337.391 93.1719 338.859 93.1719C340.031 93.1719 341.102 93.3438 342.07 93.6875C343.055 94.0312 343.898 94.5859 344.602 95.3516C345.32 96.1172 345.867 97.1328 346.242 98.3984C346.633 99.6484 346.828 101.195 346.828 103.039V119H338.883V103.016C338.883 102 338.742 101.227 338.461 100.695C338.18 100.148 337.773 99.7734 337.242 99.5703C336.711 99.3672 336.062 99.2656 335.297 99.2656C334.484 99.2656 333.797 99.4219 333.234 99.7344C332.672 100.047 332.219 100.484 331.875 101.047C331.547 101.594 331.305 102.242 331.148 102.992C331.008 103.742 330.938 104.562 330.938 105.453ZM363.773 108.195H357.047C357.047 106.82 357.141 105.609 357.328 104.562C357.531 103.5 357.875 102.547 358.359 101.703C358.844 100.859 359.5 100.078 360.328 99.3594C361.062 98.75 361.695 98.1641 362.227 97.6016C362.758 97.0391 363.164 96.4688 363.445 95.8906C363.727 95.3125 363.867 94.6953 363.867 94.0391C363.867 93.2266 363.75 92.5625 363.516 92.0469C363.297 91.5312 362.961 91.1484 362.508 90.8984C362.07 90.6328 361.516 90.5 360.844 90.5C360.297 90.5 359.781 90.6328 359.297 90.8984C358.828 91.1641 358.445 91.5781 358.148 92.1406C357.852 92.6875 357.688 93.4141 357.656 94.3203H349.711C349.758 91.9922 350.273 90.1016 351.258 88.6484C352.258 87.1797 353.586 86.1094 355.242 85.4375C356.914 84.75 358.781 84.4062 360.844 84.4062C363.125 84.4062 365.086 84.7578 366.727 85.4609C368.367 86.1641 369.625 87.2109 370.5 88.6016C371.375 89.9766 371.812 91.6719 371.812 93.6875C371.812 95.0312 371.555 96.2031 371.039 97.2031C370.539 98.1875 369.859 99.1094 369 99.9688C368.156 100.812 367.211 101.719 366.164 102.688C365.258 103.484 364.641 104.297 364.312 105.125C363.984 105.938 363.805 106.961 363.773 108.195ZM356.086 115.32C356.086 114.195 356.492 113.258 357.305 112.508C358.117 111.742 359.172 111.359 360.469 111.359C361.766 111.359 362.82 111.742 363.633 112.508C364.445 113.258 364.852 114.195 364.852 115.32C364.852 116.445 364.445 117.391 363.633 118.156C362.82 118.906 361.766 119.281 360.469 119.281C359.172 119.281 358.117 118.906 357.305 118.156C356.492 117.391 356.086 116.445 356.086 115.32Z" fill="black"/>
<path d="M1134 0H1348C1356.28 0 1363 6.71573 1363 15V148C1363 156.284 1356.28 163 1348 163H1134V0Z" fill="#5BE1E6"/>
<path d="M1260.62 78.8847C1263.81 78.8847 1266.93 79.805 1269.59 81.5293C1272.25 83.2536 1274.32 85.7044 1275.54 88.5718C1276.76 91.4391 1277.08 94.5943 1276.46 97.6383C1275.84 100.682 1274.3 103.478 1272.04 105.673C1269.78 107.868 1266.9 109.362 1263.77 109.968C1260.63 110.573 1257.39 110.262 1254.43 109.075C1251.48 107.887 1248.96 105.876 1247.18 103.295C1245.41 100.714 1244.46 97.6806 1244.46 94.5769C1244.46 90.4151 1246.16 86.4237 1249.19 83.4808C1252.22 80.538 1256.33 78.8847 1260.62 78.8847ZM1260.62 73.6539C1256.36 73.6539 1252.19 74.881 1248.65 77.1801C1245.11 79.4791 1242.35 82.7469 1240.72 86.57C1239.09 90.3932 1238.66 94.6001 1239.49 98.6588C1240.32 102.717 1242.37 106.446 1245.39 109.372C1248.4 112.298 1252.24 114.291 1256.41 115.098C1260.59 115.905 1264.92 115.491 1268.86 113.907C1272.79 112.324 1276.16 109.642 1278.52 106.201C1280.89 102.76 1282.15 98.7151 1282.15 94.5769C1282.15 89.0278 1279.88 83.706 1275.85 79.7821C1271.81 75.8583 1266.33 73.6539 1260.62 73.6539Z" fill="white"/>
<path d="M1274.08 47.5H1220.23C1218.8 47.5 1217.43 48.0511 1216.42 49.0321C1215.41 50.013 1214.85 51.3435 1214.85 52.7307V105.038C1214.85 106.426 1215.41 107.756 1216.42 108.737C1217.43 109.718 1218.8 110.269 1220.23 110.269H1231V105.038H1220.23V68.423H1279.46V52.7307C1279.46 51.3435 1278.89 50.013 1277.88 49.0321C1276.87 48.0511 1275.5 47.5 1274.08 47.5ZM1220.23 63.1922V52.7307H1274.08V63.1922H1220.23Z" fill="white"/>
<path d="M1255.23 86.731V102.423L1268.69 94.5771L1255.23 86.731Z" fill="white"/>
</svg>
