<svg width="1363" height="163" viewBox="0 0 1363 163" fill="none" xmlns="http://www.w3.org/2000/svg">
<path d="M0 15C0 6.71573 6.71573 0 15 0H37V163H15C6.71573 163 0 156.284 0 148V15Z" fill="#424242"/>
<rect width="1097" height="163" transform="translate(37)" fill="#F0F0F0"/>
<path d="M101.906 53.9219L94.3945 51.2383V48.0859L104.602 52.375V54.6367L101.906 53.9219ZM94.3945 56.1719L101.918 53.4297L104.602 52.7852V55.0352L94.3945 59.3242V56.1719ZM122.789 55.3398H126.293C126.223 56.4883 125.906 57.5078 125.344 58.3984C124.789 59.2891 124.012 59.9844 123.012 60.4844C122.02 60.9844 120.824 61.2344 119.426 61.2344C118.332 61.2344 117.352 61.0469 116.484 60.6719C115.617 60.2891 114.875 59.7422 114.258 59.0312C113.648 58.3203 113.184 57.4609 112.863 56.4531C112.543 55.4453 112.383 54.3164 112.383 53.0664V51.8828C112.383 50.6328 112.547 49.5039 112.875 48.4961C113.211 47.4805 113.688 46.6172 114.305 45.9062C114.93 45.1953 115.676 44.6484 116.543 44.2656C117.41 43.8828 118.379 43.6914 119.449 43.6914C120.871 43.6914 122.07 43.9492 123.047 44.4648C124.031 44.9805 124.793 45.6914 125.332 46.5977C125.879 47.5039 126.207 48.5352 126.316 49.6914H122.801C122.762 49.0039 122.625 48.4219 122.391 47.9453C122.156 47.4609 121.801 47.0977 121.324 46.8555C120.855 46.6055 120.23 46.4805 119.449 46.4805C118.863 46.4805 118.352 46.5898 117.914 46.8086C117.477 47.0273 117.109 47.3594 116.812 47.8047C116.516 48.25 116.293 48.8125 116.145 49.4922C116.004 50.1641 115.934 50.9531 115.934 51.8594V53.0664C115.934 53.9492 116 54.7266 116.133 55.3984C116.266 56.0625 116.469 56.625 116.742 57.0859C117.023 57.5391 117.383 57.8828 117.82 58.1172C118.266 58.3438 118.801 58.457 119.426 58.457C120.16 58.457 120.766 58.3398 121.242 58.1055C121.719 57.8711 122.082 57.5234 122.332 57.0625C122.59 56.6016 122.742 56.0273 122.789 55.3398ZM131.766 51.0859V61H128.391V48.3203H131.566L131.766 51.0859ZM135.586 48.2383L135.527 51.3672C135.363 51.3438 135.164 51.3242 134.93 51.3086C134.703 51.2852 134.496 51.2734 134.309 51.2734C133.832 51.2734 133.418 51.3359 133.066 51.4609C132.723 51.5781 132.434 51.7539 132.199 51.9883C131.973 52.2227 131.801 52.5078 131.684 52.8438C131.574 53.1797 131.512 53.5625 131.496 53.9922L130.816 53.7812C130.816 52.9609 130.898 52.207 131.062 51.5195C131.227 50.8242 131.465 50.2188 131.777 49.7031C132.098 49.1875 132.488 48.7891 132.949 48.5078C133.41 48.2266 133.938 48.0859 134.531 48.0859C134.719 48.0859 134.91 48.1016 135.105 48.1328C135.301 48.1562 135.461 48.1914 135.586 48.2383ZM142.781 61.2344C141.797 61.2344 140.914 61.0781 140.133 60.7656C139.352 60.4453 138.688 60.0039 138.141 59.4414C137.602 58.8789 137.188 58.2266 136.898 57.4844C136.609 56.7344 136.465 55.9375 136.465 55.0938V54.625C136.465 53.6641 136.602 52.7852 136.875 51.9883C137.148 51.1914 137.539 50.5 138.047 49.9141C138.562 49.3281 139.188 48.8789 139.922 48.5664C140.656 48.2461 141.484 48.0859 142.406 48.0859C143.305 48.0859 144.102 48.2344 144.797 48.5312C145.492 48.8281 146.074 49.25 146.543 49.7969C147.02 50.3438 147.379 51 147.621 51.7656C147.863 52.5234 147.984 53.3672 147.984 54.2969V55.7031H137.906V53.4531H144.668V53.1953C144.668 52.7266 144.582 52.3086 144.41 51.9414C144.246 51.5664 143.996 51.2695 143.66 51.0508C143.324 50.832 142.895 50.7227 142.371 50.7227C141.926 50.7227 141.543 50.8203 141.223 51.0156C140.902 51.2109 140.641 51.4844 140.438 51.8359C140.242 52.1875 140.094 52.6016 139.992 53.0781C139.898 53.5469 139.852 54.0625 139.852 54.625V55.0938C139.852 55.6016 139.922 56.0703 140.062 56.5C140.211 56.9297 140.418 57.3008 140.684 57.6133C140.957 57.9258 141.285 58.168 141.668 58.3398C142.059 58.5117 142.5 58.5977 142.992 58.5977C143.602 58.5977 144.168 58.4805 144.691 58.2461C145.223 58.0039 145.68 57.6406 146.062 57.1562L147.703 58.9375C147.438 59.3203 147.074 59.6875 146.613 60.0391C146.16 60.3906 145.613 60.6797 144.973 60.9062C144.332 61.125 143.602 61.2344 142.781 61.2344ZM157.395 58.2344V43H160.793V61H157.734L157.395 58.2344ZM149.379 54.8125V54.5664C149.379 53.5977 149.488 52.7188 149.707 51.9297C149.926 51.1328 150.246 50.4492 150.668 49.8789C151.09 49.3086 151.609 48.8672 152.227 48.5547C152.844 48.2422 153.547 48.0859 154.336 48.0859C155.078 48.0859 155.727 48.2422 156.281 48.5547C156.844 48.8672 157.32 49.3125 157.711 49.8906C158.109 50.4609 158.43 51.1367 158.672 51.918C158.914 52.6914 159.09 53.5391 159.199 54.4609V55C159.09 55.8828 158.914 56.7031 158.672 57.4609C158.43 58.2188 158.109 58.8828 157.711 59.4531C157.32 60.0156 156.844 60.4531 156.281 60.7656C155.719 61.0781 155.062 61.2344 154.312 61.2344C153.523 61.2344 152.82 61.0742 152.203 60.7539C151.594 60.4336 151.078 59.9844 150.656 59.4062C150.242 58.8281 149.926 58.1484 149.707 57.3672C149.488 56.5859 149.379 55.7344 149.379 54.8125ZM152.754 54.5664V54.8125C152.754 55.3359 152.793 55.8242 152.871 56.2773C152.957 56.7305 153.094 57.1328 153.281 57.4844C153.477 57.8281 153.727 58.0977 154.031 58.293C154.344 58.4805 154.723 58.5742 155.168 58.5742C155.746 58.5742 156.223 58.4453 156.598 58.1875C156.973 57.9219 157.258 57.5586 157.453 57.0977C157.656 56.6367 157.773 56.1055 157.805 55.5039V53.9688C157.781 53.4766 157.711 53.0352 157.594 52.6445C157.484 52.2461 157.32 51.9062 157.102 51.625C156.891 51.3438 156.625 51.125 156.305 50.9688C155.992 50.8125 155.621 50.7344 155.191 50.7344C154.754 50.7344 154.379 50.8359 154.066 51.0391C153.754 51.2344 153.5 51.5039 153.305 51.8477C153.117 52.1914 152.977 52.5977 152.883 53.0664C152.797 53.5273 152.754 54.0273 152.754 54.5664ZM166.992 48.3203V61H163.605V48.3203H166.992ZM163.395 45.0156C163.395 44.5234 163.566 44.1172 163.91 43.7969C164.254 43.4766 164.715 43.3164 165.293 43.3164C165.863 43.3164 166.32 43.4766 166.664 43.7969C167.016 44.1172 167.191 44.5234 167.191 45.0156C167.191 45.5078 167.016 45.9141 166.664 46.2344C166.32 46.5547 165.863 46.7148 165.293 46.7148C164.715 46.7148 164.254 46.5547 163.91 46.2344C163.566 45.9141 163.395 45.5078 163.395 45.0156ZM175.992 48.3203V50.7109H168.609V48.3203H175.992ZM170.438 45.1914H173.812V57.1797C173.812 57.5469 173.859 57.8281 173.953 58.0234C174.055 58.2188 174.203 58.3555 174.398 58.4336C174.594 58.5039 174.84 58.5391 175.137 58.5391C175.348 58.5391 175.535 58.5312 175.699 58.5156C175.871 58.4922 176.016 58.4688 176.133 58.4453L176.145 60.9297C175.855 61.0234 175.543 61.0977 175.207 61.1523C174.871 61.207 174.5 61.2344 174.094 61.2344C173.352 61.2344 172.703 61.1133 172.148 60.8711C171.602 60.6211 171.18 60.2227 170.883 59.6758C170.586 59.1289 170.438 58.4102 170.438 57.5195V45.1914ZM191.648 52.082V58.8438C191.383 59.1641 190.973 59.5117 190.418 59.8867C189.863 60.2539 189.148 60.5703 188.273 60.8359C187.398 61.1016 186.34 61.2344 185.098 61.2344C183.996 61.2344 182.992 61.0547 182.086 60.6953C181.18 60.3281 180.398 59.793 179.742 59.0898C179.094 58.3867 178.594 57.5273 178.242 56.5117C177.891 55.4883 177.715 54.3203 177.715 53.0078V51.9414C177.715 50.6289 177.883 49.4609 178.219 48.4375C178.562 47.4141 179.051 46.5508 179.684 45.8477C180.316 45.1445 181.07 44.6094 181.945 44.2422C182.82 43.875 183.793 43.6914 184.863 43.6914C186.348 43.6914 187.566 43.9336 188.52 44.418C189.473 44.8945 190.199 45.5586 190.699 46.4102C191.207 47.2539 191.52 48.2227 191.637 49.3164H188.227C188.141 48.7383 187.977 48.2344 187.734 47.8047C187.492 47.375 187.145 47.0391 186.691 46.7969C186.246 46.5547 185.668 46.4336 184.957 46.4336C184.371 46.4336 183.848 46.5547 183.387 46.7969C182.934 47.0312 182.551 47.3789 182.238 47.8398C181.926 48.3008 181.688 48.8711 181.523 49.5508C181.359 50.2305 181.277 51.0195 181.277 51.918V53.0078C181.277 53.8984 181.363 54.6875 181.535 55.375C181.707 56.0547 181.961 56.6289 182.297 57.0977C182.641 57.5586 183.062 57.9062 183.562 58.1406C184.062 58.375 184.645 58.4922 185.309 58.4922C185.863 58.4922 186.324 58.4453 186.691 58.3516C187.066 58.2578 187.367 58.1445 187.594 58.0117C187.828 57.8711 188.008 57.7383 188.133 57.6133V54.5898H184.922V52.082H191.648ZM201.773 57.9648V48.3203H205.148V61H201.973L201.773 57.9648ZM202.148 55.3633L203.145 55.3398C203.145 56.1836 203.047 56.9688 202.852 57.6953C202.656 58.4141 202.363 59.0391 201.973 59.5703C201.582 60.0938 201.09 60.5039 200.496 60.8008C199.902 61.0898 199.203 61.2344 198.398 61.2344C197.781 61.2344 197.211 61.1484 196.688 60.9766C196.172 60.7969 195.727 60.5195 195.352 60.1445C194.984 59.7617 194.695 59.2734 194.484 58.6797C194.281 58.0781 194.18 57.3555 194.18 56.5117V48.3203H197.555V56.5352C197.555 56.9102 197.598 57.2266 197.684 57.4844C197.777 57.7422 197.906 57.9531 198.07 58.1172C198.234 58.2812 198.426 58.3984 198.645 58.4688C198.871 58.5391 199.121 58.5742 199.395 58.5742C200.09 58.5742 200.637 58.4336 201.035 58.1523C201.441 57.8711 201.727 57.4883 201.891 57.0039C202.062 56.5117 202.148 55.9648 202.148 55.3633ZM214.57 58.1406V52.4922C214.57 52.0859 214.504 51.7383 214.371 51.4492C214.238 51.1523 214.031 50.9219 213.75 50.7578C213.477 50.5938 213.121 50.5117 212.684 50.5117C212.309 50.5117 211.984 50.5781 211.711 50.7109C211.438 50.8359 211.227 51.0195 211.078 51.2617C210.93 51.4961 210.855 51.7734 210.855 52.0938H207.48C207.48 51.5547 207.605 51.043 207.855 50.5586C208.105 50.0742 208.469 49.6484 208.945 49.2812C209.422 48.9062 209.988 48.6133 210.645 48.4023C211.309 48.1914 212.051 48.0859 212.871 48.0859C213.855 48.0859 214.73 48.25 215.496 48.5781C216.262 48.9062 216.863 49.3984 217.301 50.0547C217.746 50.7109 217.969 51.5312 217.969 52.5156V57.9414C217.969 58.6367 218.012 59.207 218.098 59.6523C218.184 60.0898 218.309 60.4727 218.473 60.8008V61H215.062C214.898 60.6562 214.773 60.2266 214.688 59.7109C214.609 59.1875 214.57 58.6641 214.57 58.1406ZM215.016 53.2773L215.039 55.1875H213.152C212.707 55.1875 212.32 55.2383 211.992 55.3398C211.664 55.4414 211.395 55.5859 211.184 55.7734C210.973 55.9531 210.816 56.1641 210.715 56.4062C210.621 56.6484 210.574 56.9141 210.574 57.2031C210.574 57.4922 210.641 57.7539 210.773 57.9883C210.906 58.2148 211.098 58.3945 211.348 58.5273C211.598 58.6523 211.891 58.7148 212.227 58.7148C212.734 58.7148 213.176 58.6133 213.551 58.4102C213.926 58.207 214.215 57.957 214.418 57.6602C214.629 57.3633 214.738 57.082 214.746 56.8164L215.637 58.2461C215.512 58.5664 215.34 58.8984 215.121 59.2422C214.91 59.5859 214.641 59.9102 214.312 60.2148C213.984 60.5117 213.59 60.7578 213.129 60.9531C212.668 61.1406 212.121 61.2344 211.488 61.2344C210.684 61.2344 209.953 61.0742 209.297 60.7539C208.648 60.4258 208.133 59.9766 207.75 59.4062C207.375 58.8281 207.188 58.1719 207.188 57.4375C207.188 56.7734 207.312 56.1836 207.562 55.668C207.812 55.1523 208.18 54.7188 208.664 54.3672C209.156 54.0078 209.77 53.7383 210.504 53.5586C211.238 53.3711 212.09 53.2773 213.059 53.2773H215.016ZM223.945 51.0859V61H220.57V48.3203H223.746L223.945 51.0859ZM227.766 48.2383L227.707 51.3672C227.543 51.3438 227.344 51.3242 227.109 51.3086C226.883 51.2852 226.676 51.2734 226.488 51.2734C226.012 51.2734 225.598 51.3359 225.246 51.4609C224.902 51.5781 224.613 51.7539 224.379 51.9883C224.152 52.2227 223.98 52.5078 223.863 52.8438C223.754 53.1797 223.691 53.5625 223.676 53.9922L222.996 53.7812C222.996 52.9609 223.078 52.207 223.242 51.5195C223.406 50.8242 223.645 50.2188 223.957 49.7031C224.277 49.1875 224.668 48.7891 225.129 48.5078C225.59 48.2266 226.117 48.0859 226.711 48.0859C226.898 48.0859 227.09 48.1016 227.285 48.1328C227.48 48.1562 227.641 48.1914 227.766 48.2383ZM236.613 58.2344V43H240.012V61H236.953L236.613 58.2344ZM228.598 54.8125V54.5664C228.598 53.5977 228.707 52.7188 228.926 51.9297C229.145 51.1328 229.465 50.4492 229.887 49.8789C230.309 49.3086 230.828 48.8672 231.445 48.5547C232.062 48.2422 232.766 48.0859 233.555 48.0859C234.297 48.0859 234.945 48.2422 235.5 48.5547C236.062 48.8672 236.539 49.3125 236.93 49.8906C237.328 50.4609 237.648 51.1367 237.891 51.918C238.133 52.6914 238.309 53.5391 238.418 54.4609V55C238.309 55.8828 238.133 56.7031 237.891 57.4609C237.648 58.2188 237.328 58.8828 236.93 59.4531C236.539 60.0156 236.062 60.4531 235.5 60.7656C234.938 61.0781 234.281 61.2344 233.531 61.2344C232.742 61.2344 232.039 61.0742 231.422 60.7539C230.812 60.4336 230.297 59.9844 229.875 59.4062C229.461 58.8281 229.145 58.1484 228.926 57.3672C228.707 56.5859 228.598 55.7344 228.598 54.8125ZM231.973 54.5664V54.8125C231.973 55.3359 232.012 55.8242 232.09 56.2773C232.176 56.7305 232.312 57.1328 232.5 57.4844C232.695 57.8281 232.945 58.0977 233.25 58.293C233.562 58.4805 233.941 58.5742 234.387 58.5742C234.965 58.5742 235.441 58.4453 235.816 58.1875C236.191 57.9219 236.477 57.5586 236.672 57.0977C236.875 56.6367 236.992 56.1055 237.023 55.5039V53.9688C237 53.4766 236.93 53.0352 236.812 52.6445C236.703 52.2461 236.539 51.9062 236.32 51.625C236.109 51.3438 235.844 51.125 235.523 50.9688C235.211 50.8125 234.84 50.7344 234.41 50.7344C233.973 50.7344 233.598 50.8359 233.285 51.0391C232.973 51.2344 232.719 51.5039 232.523 51.8477C232.336 52.1914 232.195 52.5977 232.102 53.0664C232.016 53.5273 231.973 54.0273 231.973 54.5664Z" fill="#888888"/>
<path d="M114.117 84.875H122.344V107.164C122.344 109.82 121.789 112.07 120.68 113.914C119.57 115.742 118.016 117.125 116.016 118.062C114.016 119 111.664 119.469 108.961 119.469C106.289 119.469 103.938 119 101.906 118.062C99.8906 117.125 98.3125 115.742 97.1719 113.914C96.0469 112.07 95.4844 109.82 95.4844 107.164V84.875H103.734V107.164C103.734 108.57 103.938 109.719 104.344 110.609C104.75 111.484 105.344 112.125 106.125 112.531C106.906 112.938 107.852 113.141 108.961 113.141C110.086 113.141 111.031 112.938 111.797 112.531C112.562 112.125 113.141 111.484 113.531 110.609C113.922 109.719 114.117 108.57 114.117 107.164V84.875ZM136.266 84.875V119H128.062V84.875H136.266ZM172.523 84.875H180.75V107.164C180.75 109.82 180.195 112.07 179.086 113.914C177.977 115.742 176.422 117.125 174.422 118.062C172.422 119 170.07 119.469 167.367 119.469C164.695 119.469 162.344 119 160.312 118.062C158.297 117.125 156.719 115.742 155.578 113.914C154.453 112.07 153.891 109.82 153.891 107.164V84.875H162.141V107.164C162.141 108.57 162.344 109.719 162.75 110.609C163.156 111.484 163.75 112.125 164.531 112.531C165.312 112.938 166.258 113.141 167.367 113.141C168.492 113.141 169.438 112.938 170.203 112.531C170.969 112.125 171.547 111.484 171.938 110.609C172.328 109.719 172.523 108.57 172.523 107.164V84.875ZM193.078 84.875L198.656 96.2188L204.234 84.875H213.609L204.094 101.797L213.867 119H204.398L198.656 107.445L192.914 119H183.422L193.219 101.797L183.68 84.875H193.078Z" fill="black"/>
<path d="M1134 0H1348C1356.28 0 1363 6.71573 1363 15V148C1363 156.284 1356.28 163 1348 163H1134V0Z" fill="#5BE1E6"/>
<path d="M1248.5 111.917C1244.51 111.917 1240.55 111.13 1236.86 109.601C1233.17 108.073 1229.82 105.832 1226.99 103.008C1221.29 97.3036 1218.08 89.567 1218.08 81.5C1218.08 73.433 1221.29 65.6964 1226.99 59.9922C1232.7 54.2879 1240.43 51.0833 1248.5 51.0833C1265.23 51.0833 1278.92 63.25 1278.92 78.4583C1278.92 83.2985 1276.99 87.9405 1273.57 91.363C1270.15 94.7856 1265.51 96.7083 1260.67 96.7083H1255.19C1254.28 96.7083 1253.67 97.3167 1253.67 98.2292C1253.67 98.5333 1253.97 98.8375 1253.97 99.1417C1255.19 100.662 1255.8 102.487 1255.8 104.312C1256.1 108.571 1252.76 111.917 1248.5 111.917ZM1248.5 57.1667C1242.05 57.1667 1235.86 59.7303 1231.29 64.2937C1226.73 68.8571 1224.17 75.0464 1224.17 81.5C1224.17 87.9536 1226.73 94.1429 1231.29 98.7063C1235.86 103.27 1242.05 105.833 1248.5 105.833C1249.41 105.833 1250.02 105.225 1250.02 104.312C1250.02 103.704 1249.72 103.4 1249.72 103.096C1248.5 101.575 1247.89 100.054 1247.89 98.2292C1247.89 93.9708 1251.24 90.625 1255.5 90.625H1260.67C1263.89 90.625 1266.99 89.3432 1269.27 87.0615C1271.55 84.7798 1272.83 81.6851 1272.83 78.4583C1272.83 66.5958 1261.88 57.1667 1248.5 57.1667ZM1231.77 75.4167C1234.2 75.4167 1236.33 77.5458 1236.33 79.9792C1236.33 82.4125 1234.2 84.5417 1231.77 84.5417C1229.34 84.5417 1227.21 82.4125 1227.21 79.9792C1227.21 77.5458 1229.34 75.4167 1231.77 75.4167ZM1240.9 63.25C1243.33 63.25 1245.46 65.3792 1245.46 67.8125C1245.46 70.2458 1243.33 72.375 1240.9 72.375C1238.46 72.375 1236.33 70.2458 1236.33 67.8125C1236.33 65.3792 1238.46 63.25 1240.9 63.25ZM1256.1 63.25C1258.54 63.25 1260.67 65.3792 1260.67 67.8125C1260.67 70.2458 1258.54 72.375 1256.1 72.375C1253.67 72.375 1251.54 70.2458 1251.54 67.8125C1251.54 65.3792 1253.67 63.25 1256.1 63.25ZM1265.23 75.4167C1267.66 75.4167 1269.79 77.5458 1269.79 79.9792C1269.79 82.4125 1267.66 84.5417 1265.23 84.5417C1262.8 84.5417 1260.67 82.4125 1260.67 79.9792C1260.67 77.5458 1262.8 75.4167 1265.23 75.4167Z" fill="white"/>
</svg>
