<svg width="1363" height="163" viewBox="0 0 1363 163" fill="none" xmlns="http://www.w3.org/2000/svg">
<path d="M0 15C0 6.71573 6.71573 0 15 0H37V163H15C6.71573 163 0 156.284 0 148V15Z" fill="#424242"/>
<rect width="1097" height="163" transform="translate(37)" fill="#F0F0F0"/>
<path d="M101.906 53.9219L94.3945 51.2383V48.0859L104.602 52.375V54.6367L101.906 53.9219ZM94.3945 56.1719L101.918 53.4297L104.602 52.7852V55.0352L94.3945 59.3242V56.1719ZM122.789 55.3398H126.293C126.223 56.4883 125.906 57.5078 125.344 58.3984C124.789 59.2891 124.012 59.9844 123.012 60.4844C122.02 60.9844 120.824 61.2344 119.426 61.2344C118.332 61.2344 117.352 61.0469 116.484 60.6719C115.617 60.2891 114.875 59.7422 114.258 59.0312C113.648 58.3203 113.184 57.4609 112.863 56.4531C112.543 55.4453 112.383 54.3164 112.383 53.0664V51.8828C112.383 50.6328 112.547 49.5039 112.875 48.4961C113.211 47.4805 113.688 46.6172 114.305 45.9062C114.93 45.1953 115.676 44.6484 116.543 44.2656C117.41 43.8828 118.379 43.6914 119.449 43.6914C120.871 43.6914 122.07 43.9492 123.047 44.4648C124.031 44.9805 124.793 45.6914 125.332 46.5977C125.879 47.5039 126.207 48.5352 126.316 49.6914H122.801C122.762 49.0039 122.625 48.4219 122.391 47.9453C122.156 47.4609 121.801 47.0977 121.324 46.8555C120.855 46.6055 120.23 46.4805 119.449 46.4805C118.863 46.4805 118.352 46.5898 117.914 46.8086C117.477 47.0273 117.109 47.3594 116.812 47.8047C116.516 48.25 116.293 48.8125 116.145 49.4922C116.004 50.1641 115.934 50.9531 115.934 51.8594V53.0664C115.934 53.9492 116 54.7266 116.133 55.3984C116.266 56.0625 116.469 56.625 116.742 57.0859C117.023 57.5391 117.383 57.8828 117.82 58.1172C118.266 58.3438 118.801 58.457 119.426 58.457C120.16 58.457 120.766 58.3398 121.242 58.1055C121.719 57.8711 122.082 57.5234 122.332 57.0625C122.59 56.6016 122.742 56.0273 122.789 55.3398ZM131.766 51.0859V61H128.391V48.3203H131.566L131.766 51.0859ZM135.586 48.2383L135.527 51.3672C135.363 51.3438 135.164 51.3242 134.93 51.3086C134.703 51.2852 134.496 51.2734 134.309 51.2734C133.832 51.2734 133.418 51.3359 133.066 51.4609C132.723 51.5781 132.434 51.7539 132.199 51.9883C131.973 52.2227 131.801 52.5078 131.684 52.8438C131.574 53.1797 131.512 53.5625 131.496 53.9922L130.816 53.7812C130.816 52.9609 130.898 52.207 131.062 51.5195C131.227 50.8242 131.465 50.2188 131.777 49.7031C132.098 49.1875 132.488 48.7891 132.949 48.5078C133.41 48.2266 133.938 48.0859 134.531 48.0859C134.719 48.0859 134.91 48.1016 135.105 48.1328C135.301 48.1562 135.461 48.1914 135.586 48.2383ZM142.781 61.2344C141.797 61.2344 140.914 61.0781 140.133 60.7656C139.352 60.4453 138.688 60.0039 138.141 59.4414C137.602 58.8789 137.188 58.2266 136.898 57.4844C136.609 56.7344 136.465 55.9375 136.465 55.0938V54.625C136.465 53.6641 136.602 52.7852 136.875 51.9883C137.148 51.1914 137.539 50.5 138.047 49.9141C138.562 49.3281 139.188 48.8789 139.922 48.5664C140.656 48.2461 141.484 48.0859 142.406 48.0859C143.305 48.0859 144.102 48.2344 144.797 48.5312C145.492 48.8281 146.074 49.25 146.543 49.7969C147.02 50.3438 147.379 51 147.621 51.7656C147.863 52.5234 147.984 53.3672 147.984 54.2969V55.7031H137.906V53.4531H144.668V53.1953C144.668 52.7266 144.582 52.3086 144.41 51.9414C144.246 51.5664 143.996 51.2695 143.66 51.0508C143.324 50.832 142.895 50.7227 142.371 50.7227C141.926 50.7227 141.543 50.8203 141.223 51.0156C140.902 51.2109 140.641 51.4844 140.438 51.8359C140.242 52.1875 140.094 52.6016 139.992 53.0781C139.898 53.5469 139.852 54.0625 139.852 54.625V55.0938C139.852 55.6016 139.922 56.0703 140.062 56.5C140.211 56.9297 140.418 57.3008 140.684 57.6133C140.957 57.9258 141.285 58.168 141.668 58.3398C142.059 58.5117 142.5 58.5977 142.992 58.5977C143.602 58.5977 144.168 58.4805 144.691 58.2461C145.223 58.0039 145.68 57.6406 146.062 57.1562L147.703 58.9375C147.438 59.3203 147.074 59.6875 146.613 60.0391C146.16 60.3906 145.613 60.6797 144.973 60.9062C144.332 61.125 143.602 61.2344 142.781 61.2344ZM157.395 58.2344V43H160.793V61H157.734L157.395 58.2344ZM149.379 54.8125V54.5664C149.379 53.5977 149.488 52.7188 149.707 51.9297C149.926 51.1328 150.246 50.4492 150.668 49.8789C151.09 49.3086 151.609 48.8672 152.227 48.5547C152.844 48.2422 153.547 48.0859 154.336 48.0859C155.078 48.0859 155.727 48.2422 156.281 48.5547C156.844 48.8672 157.32 49.3125 157.711 49.8906C158.109 50.4609 158.43 51.1367 158.672 51.918C158.914 52.6914 159.09 53.5391 159.199 54.4609V55C159.09 55.8828 158.914 56.7031 158.672 57.4609C158.43 58.2188 158.109 58.8828 157.711 59.4531C157.32 60.0156 156.844 60.4531 156.281 60.7656C155.719 61.0781 155.062 61.2344 154.312 61.2344C153.523 61.2344 152.82 61.0742 152.203 60.7539C151.594 60.4336 151.078 59.9844 150.656 59.4062C150.242 58.8281 149.926 58.1484 149.707 57.3672C149.488 56.5859 149.379 55.7344 149.379 54.8125ZM152.754 54.5664V54.8125C152.754 55.3359 152.793 55.8242 152.871 56.2773C152.957 56.7305 153.094 57.1328 153.281 57.4844C153.477 57.8281 153.727 58.0977 154.031 58.293C154.344 58.4805 154.723 58.5742 155.168 58.5742C155.746 58.5742 156.223 58.4453 156.598 58.1875C156.973 57.9219 157.258 57.5586 157.453 57.0977C157.656 56.6367 157.773 56.1055 157.805 55.5039V53.9688C157.781 53.4766 157.711 53.0352 157.594 52.6445C157.484 52.2461 157.32 51.9062 157.102 51.625C156.891 51.3438 156.625 51.125 156.305 50.9688C155.992 50.8125 155.621 50.7344 155.191 50.7344C154.754 50.7344 154.379 50.8359 154.066 51.0391C153.754 51.2344 153.5 51.5039 153.305 51.8477C153.117 52.1914 152.977 52.5977 152.883 53.0664C152.797 53.5273 152.754 54.0273 152.754 54.5664ZM166.992 48.3203V61H163.605V48.3203H166.992ZM163.395 45.0156C163.395 44.5234 163.566 44.1172 163.91 43.7969C164.254 43.4766 164.715 43.3164 165.293 43.3164C165.863 43.3164 166.32 43.4766 166.664 43.7969C167.016 44.1172 167.191 44.5234 167.191 45.0156C167.191 45.5078 167.016 45.9141 166.664 46.2344C166.32 46.5547 165.863 46.7148 165.293 46.7148C164.715 46.7148 164.254 46.5547 163.91 46.2344C163.566 45.9141 163.395 45.5078 163.395 45.0156ZM175.992 48.3203V50.7109H168.609V48.3203H175.992ZM170.438 45.1914H173.812V57.1797C173.812 57.5469 173.859 57.8281 173.953 58.0234C174.055 58.2188 174.203 58.3555 174.398 58.4336C174.594 58.5039 174.84 58.5391 175.137 58.5391C175.348 58.5391 175.535 58.5312 175.699 58.5156C175.871 58.4922 176.016 58.4688 176.133 58.4453L176.145 60.9297C175.855 61.0234 175.543 61.0977 175.207 61.1523C174.871 61.207 174.5 61.2344 174.094 61.2344C173.352 61.2344 172.703 61.1133 172.148 60.8711C171.602 60.6211 171.18 60.2227 170.883 59.6758C170.586 59.1289 170.438 58.4102 170.438 57.5195V45.1914ZM191.648 52.082V58.8438C191.383 59.1641 190.973 59.5117 190.418 59.8867C189.863 60.2539 189.148 60.5703 188.273 60.8359C187.398 61.1016 186.34 61.2344 185.098 61.2344C183.996 61.2344 182.992 61.0547 182.086 60.6953C181.18 60.3281 180.398 59.793 179.742 59.0898C179.094 58.3867 178.594 57.5273 178.242 56.5117C177.891 55.4883 177.715 54.3203 177.715 53.0078V51.9414C177.715 50.6289 177.883 49.4609 178.219 48.4375C178.562 47.4141 179.051 46.5508 179.684 45.8477C180.316 45.1445 181.07 44.6094 181.945 44.2422C182.82 43.875 183.793 43.6914 184.863 43.6914C186.348 43.6914 187.566 43.9336 188.52 44.418C189.473 44.8945 190.199 45.5586 190.699 46.4102C191.207 47.2539 191.52 48.2227 191.637 49.3164H188.227C188.141 48.7383 187.977 48.2344 187.734 47.8047C187.492 47.375 187.145 47.0391 186.691 46.7969C186.246 46.5547 185.668 46.4336 184.957 46.4336C184.371 46.4336 183.848 46.5547 183.387 46.7969C182.934 47.0312 182.551 47.3789 182.238 47.8398C181.926 48.3008 181.688 48.8711 181.523 49.5508C181.359 50.2305 181.277 51.0195 181.277 51.918V53.0078C181.277 53.8984 181.363 54.6875 181.535 55.375C181.707 56.0547 181.961 56.6289 182.297 57.0977C182.641 57.5586 183.062 57.9062 183.562 58.1406C184.062 58.375 184.645 58.4922 185.309 58.4922C185.863 58.4922 186.324 58.4453 186.691 58.3516C187.066 58.2578 187.367 58.1445 187.594 58.0117C187.828 57.8711 188.008 57.7383 188.133 57.6133V54.5898H184.922V52.082H191.648ZM201.773 57.9648V48.3203H205.148V61H201.973L201.773 57.9648ZM202.148 55.3633L203.145 55.3398C203.145 56.1836 203.047 56.9688 202.852 57.6953C202.656 58.4141 202.363 59.0391 201.973 59.5703C201.582 60.0938 201.09 60.5039 200.496 60.8008C199.902 61.0898 199.203 61.2344 198.398 61.2344C197.781 61.2344 197.211 61.1484 196.688 60.9766C196.172 60.7969 195.727 60.5195 195.352 60.1445C194.984 59.7617 194.695 59.2734 194.484 58.6797C194.281 58.0781 194.18 57.3555 194.18 56.5117V48.3203H197.555V56.5352C197.555 56.9102 197.598 57.2266 197.684 57.4844C197.777 57.7422 197.906 57.9531 198.07 58.1172C198.234 58.2812 198.426 58.3984 198.645 58.4688C198.871 58.5391 199.121 58.5742 199.395 58.5742C200.09 58.5742 200.637 58.4336 201.035 58.1523C201.441 57.8711 201.727 57.4883 201.891 57.0039C202.062 56.5117 202.148 55.9648 202.148 55.3633ZM214.57 58.1406V52.4922C214.57 52.0859 214.504 51.7383 214.371 51.4492C214.238 51.1523 214.031 50.9219 213.75 50.7578C213.477 50.5938 213.121 50.5117 212.684 50.5117C212.309 50.5117 211.984 50.5781 211.711 50.7109C211.438 50.8359 211.227 51.0195 211.078 51.2617C210.93 51.4961 210.855 51.7734 210.855 52.0938H207.48C207.48 51.5547 207.605 51.043 207.855 50.5586C208.105 50.0742 208.469 49.6484 208.945 49.2812C209.422 48.9062 209.988 48.6133 210.645 48.4023C211.309 48.1914 212.051 48.0859 212.871 48.0859C213.855 48.0859 214.73 48.25 215.496 48.5781C216.262 48.9062 216.863 49.3984 217.301 50.0547C217.746 50.7109 217.969 51.5312 217.969 52.5156V57.9414C217.969 58.6367 218.012 59.207 218.098 59.6523C218.184 60.0898 218.309 60.4727 218.473 60.8008V61H215.062C214.898 60.6562 214.773 60.2266 214.688 59.7109C214.609 59.1875 214.57 58.6641 214.57 58.1406ZM215.016 53.2773L215.039 55.1875H213.152C212.707 55.1875 212.32 55.2383 211.992 55.3398C211.664 55.4414 211.395 55.5859 211.184 55.7734C210.973 55.9531 210.816 56.1641 210.715 56.4062C210.621 56.6484 210.574 56.9141 210.574 57.2031C210.574 57.4922 210.641 57.7539 210.773 57.9883C210.906 58.2148 211.098 58.3945 211.348 58.5273C211.598 58.6523 211.891 58.7148 212.227 58.7148C212.734 58.7148 213.176 58.6133 213.551 58.4102C213.926 58.207 214.215 57.957 214.418 57.6602C214.629 57.3633 214.738 57.082 214.746 56.8164L215.637 58.2461C215.512 58.5664 215.34 58.8984 215.121 59.2422C214.91 59.5859 214.641 59.9102 214.312 60.2148C213.984 60.5117 213.59 60.7578 213.129 60.9531C212.668 61.1406 212.121 61.2344 211.488 61.2344C210.684 61.2344 209.953 61.0742 209.297 60.7539C208.648 60.4258 208.133 59.9766 207.75 59.4062C207.375 58.8281 207.188 58.1719 207.188 57.4375C207.188 56.7734 207.312 56.1836 207.562 55.668C207.812 55.1523 208.18 54.7188 208.664 54.3672C209.156 54.0078 209.77 53.7383 210.504 53.5586C211.238 53.3711 212.09 53.2773 213.059 53.2773H215.016ZM223.945 51.0859V61H220.57V48.3203H223.746L223.945 51.0859ZM227.766 48.2383L227.707 51.3672C227.543 51.3438 227.344 51.3242 227.109 51.3086C226.883 51.2852 226.676 51.2734 226.488 51.2734C226.012 51.2734 225.598 51.3359 225.246 51.4609C224.902 51.5781 224.613 51.7539 224.379 51.9883C224.152 52.2227 223.98 52.5078 223.863 52.8438C223.754 53.1797 223.691 53.5625 223.676 53.9922L222.996 53.7812C222.996 52.9609 223.078 52.207 223.242 51.5195C223.406 50.8242 223.645 50.2188 223.957 49.7031C224.277 49.1875 224.668 48.7891 225.129 48.5078C225.59 48.2266 226.117 48.0859 226.711 48.0859C226.898 48.0859 227.09 48.1016 227.285 48.1328C227.48 48.1562 227.641 48.1914 227.766 48.2383ZM236.613 58.2344V43H240.012V61H236.953L236.613 58.2344ZM228.598 54.8125V54.5664C228.598 53.5977 228.707 52.7188 228.926 51.9297C229.145 51.1328 229.465 50.4492 229.887 49.8789C230.309 49.3086 230.828 48.8672 231.445 48.5547C232.062 48.2422 232.766 48.0859 233.555 48.0859C234.297 48.0859 234.945 48.2422 235.5 48.5547C236.062 48.8672 236.539 49.3125 236.93 49.8906C237.328 50.4609 237.648 51.1367 237.891 51.918C238.133 52.6914 238.309 53.5391 238.418 54.4609V55C238.309 55.8828 238.133 56.7031 237.891 57.4609C237.648 58.2188 237.328 58.8828 236.93 59.4531C236.539 60.0156 236.062 60.4531 235.5 60.7656C234.938 61.0781 234.281 61.2344 233.531 61.2344C232.742 61.2344 232.039 61.0742 231.422 60.7539C230.812 60.4336 230.297 59.9844 229.875 59.4062C229.461 58.8281 229.145 58.1484 228.926 57.3672C228.707 56.5859 228.598 55.7344 228.598 54.8125ZM231.973 54.5664V54.8125C231.973 55.3359 232.012 55.8242 232.09 56.2773C232.176 56.7305 232.312 57.1328 232.5 57.4844C232.695 57.8281 232.945 58.0977 233.25 58.293C233.562 58.4805 233.941 58.5742 234.387 58.5742C234.965 58.5742 235.441 58.4453 235.816 58.1875C236.191 57.9219 236.477 57.5586 236.672 57.0977C236.875 56.6367 236.992 56.1055 237.023 55.5039V53.9688C237 53.4766 236.93 53.0352 236.812 52.6445C236.703 52.2461 236.539 51.9062 236.32 51.625C236.109 51.3438 235.844 51.125 235.523 50.9688C235.211 50.8125 234.84 50.7344 234.41 50.7344C233.973 50.7344 233.598 50.8359 233.285 51.0391C232.973 51.2344 232.719 51.5039 232.523 51.8477C232.336 52.1914 232.195 52.5977 232.102 53.0664C232.016 53.5273 231.973 54.0273 231.973 54.5664Z" fill="#888888"/>
<path d="M99.6797 84.875H106.383L114 108.617L121.617 84.875H128.32L116.719 119H111.281L99.6797 84.875ZM95.6016 84.875H102.539L103.828 111.031V119H95.6016V84.875ZM125.461 84.875H132.422V119H124.172V111.031L125.461 84.875ZM150.492 112.625V102.172C150.492 101.453 150.391 100.836 150.188 100.32C149.984 99.8047 149.664 99.4062 149.227 99.125C148.789 98.8281 148.203 98.6797 147.469 98.6797C146.875 98.6797 146.367 98.7812 145.945 98.9844C145.523 99.1875 145.203 99.4922 144.984 99.8984C144.766 100.305 144.656 100.82 144.656 101.445H136.758C136.758 100.273 137.016 99.1875 137.531 98.1875C138.062 97.1719 138.812 96.2891 139.781 95.5391C140.766 94.7891 141.938 94.2109 143.297 93.8047C144.672 93.3828 146.203 93.1719 147.891 93.1719C149.906 93.1719 151.703 93.5078 153.281 94.1797C154.875 94.8516 156.133 95.8594 157.055 97.2031C157.977 98.5312 158.438 100.203 158.438 102.219V112.602C158.438 114.258 158.531 115.516 158.719 116.375C158.906 117.219 159.172 117.961 159.516 118.602V119H151.594C151.219 118.219 150.938 117.266 150.75 116.141C150.578 115 150.492 113.828 150.492 112.625ZM151.453 103.508L151.5 107.727H148.008C147.273 107.727 146.648 107.828 146.133 108.031C145.633 108.234 145.227 108.516 144.914 108.875C144.617 109.219 144.398 109.609 144.258 110.047C144.133 110.484 144.07 110.945 144.07 111.43C144.07 111.898 144.18 112.32 144.398 112.695C144.633 113.055 144.945 113.336 145.336 113.539C145.727 113.742 146.164 113.844 146.648 113.844C147.523 113.844 148.266 113.68 148.875 113.352C149.5 113.008 149.977 112.594 150.305 112.109C150.633 111.625 150.797 111.172 150.797 110.75L152.531 113.984C152.219 114.609 151.859 115.242 151.453 115.883C151.062 116.523 150.57 117.117 149.977 117.664C149.398 118.195 148.688 118.633 147.844 118.977C147 119.305 145.977 119.469 144.773 119.469C143.211 119.469 141.773 119.148 140.461 118.508C139.164 117.867 138.125 116.977 137.344 115.836C136.562 114.68 136.172 113.352 136.172 111.852C136.172 110.539 136.406 109.367 136.875 108.336C137.359 107.305 138.086 106.43 139.055 105.711C140.023 104.992 141.258 104.445 142.758 104.07C144.258 103.695 146.023 103.508 148.055 103.508H151.453ZM173.531 113.375C174.266 113.375 174.891 113.242 175.406 112.977C175.938 112.695 176.336 112.305 176.602 111.805C176.883 111.289 177.016 110.672 177 109.953H184.43C184.445 111.859 183.977 113.531 183.023 114.969C182.086 116.391 180.805 117.5 179.18 118.297C177.57 119.078 175.75 119.469 173.719 119.469C171.734 119.469 170 119.148 168.516 118.508C167.031 117.852 165.789 116.945 164.789 115.789C163.805 114.617 163.062 113.25 162.562 111.688C162.078 110.125 161.836 108.43 161.836 106.602V106.062C161.836 104.234 162.078 102.539 162.562 100.977C163.062 99.3984 163.805 98.0312 164.789 96.875C165.789 95.7031 167.023 94.7969 168.492 94.1562C169.977 93.5 171.703 93.1719 173.672 93.1719C175.781 93.1719 177.641 93.5703 179.25 94.3672C180.875 95.1641 182.148 96.3203 183.07 97.8359C183.992 99.3516 184.445 101.188 184.43 103.344H177C177.016 102.578 176.898 101.891 176.648 101.281C176.398 100.672 176.008 100.188 175.477 99.8281C174.961 99.4531 174.297 99.2656 173.484 99.2656C172.672 99.2656 172.016 99.4453 171.516 99.8047C171.016 100.164 170.633 100.664 170.367 101.305C170.117 101.93 169.945 102.648 169.852 103.461C169.773 104.273 169.734 105.141 169.734 106.062V106.602C169.734 107.539 169.773 108.422 169.852 109.25C169.945 110.062 170.125 110.781 170.391 111.406C170.656 112.016 171.039 112.5 171.539 112.859C172.039 113.203 172.703 113.375 173.531 113.375ZM195.539 83V119H187.641V83H195.539ZM194.602 105.453L192.75 105.5C192.75 103.719 192.969 102.078 193.406 100.578C193.844 99.0781 194.469 97.7734 195.281 96.6641C196.094 95.5547 197.07 94.6953 198.211 94.0859C199.352 93.4766 200.617 93.1719 202.008 93.1719C203.258 93.1719 204.398 93.3516 205.43 93.7109C206.477 94.0703 207.375 94.6484 208.125 95.4453C208.891 96.2422 209.477 97.2812 209.883 98.5625C210.305 99.8438 210.516 101.406 210.516 103.25V119H202.57V103.203C202.57 102.172 202.422 101.375 202.125 100.812C201.844 100.234 201.438 99.8359 200.906 99.6172C200.375 99.3828 199.727 99.2656 198.961 99.2656C198.039 99.2656 197.289 99.4219 196.711 99.7344C196.133 100.047 195.688 100.484 195.375 101.047C195.078 101.594 194.875 102.242 194.766 102.992C194.656 103.742 194.602 104.562 194.602 105.453ZM223.242 93.6406V119H215.32V93.6406H223.242ZM214.852 87.1016C214.852 85.9766 215.258 85.0547 216.07 84.3359C216.883 83.6172 217.938 83.2578 219.234 83.2578C220.531 83.2578 221.586 83.6172 222.398 84.3359C223.211 85.0547 223.617 85.9766 223.617 87.1016C223.617 88.2266 223.211 89.1484 222.398 89.8672C221.586 90.5859 220.531 90.9453 219.234 90.9453C217.938 90.9453 216.883 90.5859 216.07 89.8672C215.258 89.1484 214.852 88.2266 214.852 87.1016ZM235.875 99.0547V119H227.977V93.6406H235.383L235.875 99.0547ZM234.938 105.453L233.086 105.5C233.086 103.562 233.32 101.836 233.789 100.32C234.258 98.7891 234.922 97.4922 235.781 96.4297C236.641 95.3672 237.664 94.5625 238.852 94.0156C240.055 93.4531 241.391 93.1719 242.859 93.1719C244.031 93.1719 245.102 93.3438 246.07 93.6875C247.055 94.0312 247.898 94.5859 248.602 95.3516C249.32 96.1172 249.867 97.1328 250.242 98.3984C250.633 99.6484 250.828 101.195 250.828 103.039V119H242.883V103.016C242.883 102 242.742 101.227 242.461 100.695C242.18 100.148 241.773 99.7734 241.242 99.5703C240.711 99.3672 240.062 99.2656 239.297 99.2656C238.484 99.2656 237.797 99.4219 237.234 99.7344C236.672 100.047 236.219 100.484 235.875 101.047C235.547 101.594 235.305 102.242 235.148 102.992C235.008 103.742 234.938 104.562 234.938 105.453ZM267.492 119.469C265.43 119.469 263.586 119.148 261.961 118.508C260.336 117.852 258.961 116.953 257.836 115.812C256.727 114.672 255.875 113.359 255.281 111.875C254.703 110.391 254.414 108.82 254.414 107.164V106.273C254.414 104.414 254.672 102.695 255.188 101.117C255.703 99.5234 256.469 98.1328 257.484 96.9453C258.5 95.7578 259.773 94.8359 261.305 94.1797C262.836 93.5078 264.617 93.1719 266.648 93.1719C268.445 93.1719 270.055 93.4609 271.477 94.0391C272.898 94.6172 274.102 95.4453 275.086 96.5234C276.086 97.6016 276.844 98.9062 277.359 100.438C277.891 101.969 278.156 103.688 278.156 105.594V108.805H257.438V103.859H270.445V103.25C270.461 102.406 270.312 101.688 270 101.094C269.703 100.5 269.266 100.047 268.688 99.7344C268.109 99.4219 267.406 99.2656 266.578 99.2656C265.719 99.2656 265.008 99.4531 264.445 99.8281C263.898 100.203 263.469 100.719 263.156 101.375C262.859 102.016 262.648 102.758 262.523 103.602C262.398 104.445 262.336 105.336 262.336 106.273V107.164C262.336 108.102 262.461 108.953 262.711 109.719C262.977 110.484 263.352 111.141 263.836 111.688C264.336 112.219 264.93 112.633 265.617 112.93C266.32 113.227 267.117 113.375 268.008 113.375C269.086 113.375 270.148 113.172 271.195 112.766C272.242 112.359 273.141 111.688 273.891 110.75L277.477 115.016C276.961 115.75 276.227 116.461 275.273 117.148C274.336 117.836 273.211 118.398 271.898 118.836C270.586 119.258 269.117 119.469 267.492 119.469ZM316.242 112.672V119H298.992V112.672H316.242ZM301.922 84.875V119H293.695V84.875H301.922ZM331.617 119.469C329.555 119.469 327.711 119.148 326.086 118.508C324.461 117.852 323.086 116.953 321.961 115.812C320.852 114.672 320 113.359 319.406 111.875C318.828 110.391 318.539 108.82 318.539 107.164V106.273C318.539 104.414 318.797 102.695 319.312 101.117C319.828 99.5234 320.594 98.1328 321.609 96.9453C322.625 95.7578 323.898 94.8359 325.43 94.1797C326.961 93.5078 328.742 93.1719 330.773 93.1719C332.57 93.1719 334.18 93.4609 335.602 94.0391C337.023 94.6172 338.227 95.4453 339.211 96.5234C340.211 97.6016 340.969 98.9062 341.484 100.438C342.016 101.969 342.281 103.688 342.281 105.594V108.805H321.562V103.859H334.57V103.25C334.586 102.406 334.438 101.688 334.125 101.094C333.828 100.5 333.391 100.047 332.812 99.7344C332.234 99.4219 331.531 99.2656 330.703 99.2656C329.844 99.2656 329.133 99.4531 328.57 99.8281C328.023 100.203 327.594 100.719 327.281 101.375C326.984 102.016 326.773 102.758 326.648 103.602C326.523 104.445 326.461 105.336 326.461 106.273V107.164C326.461 108.102 326.586 108.953 326.836 109.719C327.102 110.484 327.477 111.141 327.961 111.688C328.461 112.219 329.055 112.633 329.742 112.93C330.445 113.227 331.242 113.375 332.133 113.375C333.211 113.375 334.273 113.172 335.32 112.766C336.367 112.359 337.266 111.688 338.016 110.75L341.602 115.016C341.086 115.75 340.352 116.461 339.398 117.148C338.461 117.836 337.336 118.398 336.023 118.836C334.711 119.258 333.242 119.469 331.617 119.469ZM358.664 112.625V102.172C358.664 101.453 358.562 100.836 358.359 100.32C358.156 99.8047 357.836 99.4062 357.398 99.125C356.961 98.8281 356.375 98.6797 355.641 98.6797C355.047 98.6797 354.539 98.7812 354.117 98.9844C353.695 99.1875 353.375 99.4922 353.156 99.8984C352.938 100.305 352.828 100.82 352.828 101.445H344.93C344.93 100.273 345.188 99.1875 345.703 98.1875C346.234 97.1719 346.984 96.2891 347.953 95.5391C348.938 94.7891 350.109 94.2109 351.469 93.8047C352.844 93.3828 354.375 93.1719 356.062 93.1719C358.078 93.1719 359.875 93.5078 361.453 94.1797C363.047 94.8516 364.305 95.8594 365.227 97.2031C366.148 98.5312 366.609 100.203 366.609 102.219V112.602C366.609 114.258 366.703 115.516 366.891 116.375C367.078 117.219 367.344 117.961 367.688 118.602V119H359.766C359.391 118.219 359.109 117.266 358.922 116.141C358.75 115 358.664 113.828 358.664 112.625ZM359.625 103.508L359.672 107.727H356.18C355.445 107.727 354.82 107.828 354.305 108.031C353.805 108.234 353.398 108.516 353.086 108.875C352.789 109.219 352.57 109.609 352.43 110.047C352.305 110.484 352.242 110.945 352.242 111.43C352.242 111.898 352.352 112.32 352.57 112.695C352.805 113.055 353.117 113.336 353.508 113.539C353.898 113.742 354.336 113.844 354.82 113.844C355.695 113.844 356.438 113.68 357.047 113.352C357.672 113.008 358.148 112.594 358.477 112.109C358.805 111.625 358.969 111.172 358.969 110.75L360.703 113.984C360.391 114.609 360.031 115.242 359.625 115.883C359.234 116.523 358.742 117.117 358.148 117.664C357.57 118.195 356.859 118.633 356.016 118.977C355.172 119.305 354.148 119.469 352.945 119.469C351.383 119.469 349.945 119.148 348.633 118.508C347.336 117.867 346.297 116.977 345.516 115.836C344.734 114.68 344.344 113.352 344.344 111.852C344.344 110.539 344.578 109.367 345.047 108.336C345.531 107.305 346.258 106.43 347.227 105.711C348.195 104.992 349.43 104.445 350.93 104.07C352.43 103.695 354.195 103.508 356.227 103.508H359.625ZM378.961 99.9219V119H371.062V93.6406H378.445L378.961 99.9219ZM386.461 93.4531L386.32 100.789C386.008 100.758 385.586 100.719 385.055 100.672C384.523 100.625 384.078 100.602 383.719 100.602C382.797 100.602 382 100.711 381.328 100.93C380.672 101.133 380.125 101.445 379.688 101.867C379.266 102.273 378.953 102.789 378.75 103.414C378.562 104.039 378.477 104.766 378.492 105.594L377.062 104.656C377.062 102.953 377.227 101.406 377.555 100.016C377.898 98.6094 378.383 97.3984 379.008 96.3828C379.633 95.3516 380.391 94.5625 381.281 94.0156C382.172 93.4531 383.172 93.1719 384.281 93.1719C384.672 93.1719 385.055 93.1953 385.43 93.2422C385.82 93.2891 386.164 93.3594 386.461 93.4531ZM396.938 99.0547V119H389.039V93.6406H396.445L396.938 99.0547ZM396 105.453L394.148 105.5C394.148 103.562 394.383 101.836 394.852 100.32C395.32 98.7891 395.984 97.4922 396.844 96.4297C397.703 95.3672 398.727 94.5625 399.914 94.0156C401.117 93.4531 402.453 93.1719 403.922 93.1719C405.094 93.1719 406.164 93.3438 407.133 93.6875C408.117 94.0312 408.961 94.5859 409.664 95.3516C410.383 96.1172 410.93 97.1328 411.305 98.3984C411.695 99.6484 411.891 101.195 411.891 103.039V119H403.945V103.016C403.945 102 403.805 101.227 403.523 100.695C403.242 100.148 402.836 99.7734 402.305 99.5703C401.773 99.3672 401.125 99.2656 400.359 99.2656C399.547 99.2656 398.859 99.4219 398.297 99.7344C397.734 100.047 397.281 100.484 396.938 101.047C396.609 101.594 396.367 102.242 396.211 102.992C396.07 103.742 396 104.562 396 105.453ZM424.617 93.6406V119H416.695V93.6406H424.617ZM416.227 87.1016C416.227 85.9766 416.633 85.0547 417.445 84.3359C418.258 83.6172 419.312 83.2578 420.609 83.2578C421.906 83.2578 422.961 83.6172 423.773 84.3359C424.586 85.0547 424.992 85.9766 424.992 87.1016C424.992 88.2266 424.586 89.1484 423.773 89.8672C422.961 90.5859 421.906 90.9453 420.609 90.9453C419.312 90.9453 418.258 90.5859 417.445 89.8672C416.633 89.1484 416.227 88.2266 416.227 87.1016ZM437.25 99.0547V119H429.352V93.6406H436.758L437.25 99.0547ZM436.312 105.453L434.461 105.5C434.461 103.562 434.695 101.836 435.164 100.32C435.633 98.7891 436.297 97.4922 437.156 96.4297C438.016 95.3672 439.039 94.5625 440.227 94.0156C441.43 93.4531 442.766 93.1719 444.234 93.1719C445.406 93.1719 446.477 93.3438 447.445 93.6875C448.43 94.0312 449.273 94.5859 449.977 95.3516C450.695 96.1172 451.242 97.1328 451.617 98.3984C452.008 99.6484 452.203 101.195 452.203 103.039V119H444.258V103.016C444.258 102 444.117 101.227 443.836 100.695C443.555 100.148 443.148 99.7734 442.617 99.5703C442.086 99.3672 441.438 99.2656 440.672 99.2656C439.859 99.2656 439.172 99.4219 438.609 99.7344C438.047 100.047 437.594 100.484 437.25 101.047C436.922 101.594 436.68 102.242 436.523 102.992C436.383 103.742 436.312 104.562 436.312 105.453ZM472.523 93.6406H479.695V118.016C479.695 120.359 479.156 122.344 478.078 123.969C477 125.609 475.492 126.852 473.555 127.695C471.633 128.555 469.383 128.984 466.805 128.984C465.664 128.984 464.5 128.836 463.312 128.539C462.125 128.258 461.016 127.836 459.984 127.273C458.953 126.711 458.086 126.016 457.383 125.188L460.688 120.547C461.328 121.266 462.133 121.875 463.102 122.375C464.07 122.891 465.211 123.148 466.523 123.148C467.664 123.148 468.617 122.945 469.383 122.539C470.164 122.133 470.758 121.539 471.164 120.758C471.57 119.992 471.773 119.062 471.773 117.969V99.6406L472.523 93.6406ZM455.672 106.625V106.133C455.672 104.211 455.906 102.461 456.375 100.883C456.859 99.2891 457.547 97.9219 458.438 96.7812C459.344 95.625 460.438 94.7344 461.719 94.1094C463 93.4844 464.445 93.1719 466.055 93.1719C467.789 93.1719 469.211 93.5078 470.32 94.1797C471.445 94.8359 472.344 95.7578 473.016 96.9453C473.703 98.1328 474.234 99.5234 474.609 101.117C475 102.695 475.328 104.398 475.594 106.227V106.812C475.328 108.531 474.961 110.156 474.492 111.688C474.039 113.203 473.445 114.547 472.711 115.719C471.977 116.891 471.055 117.812 469.945 118.484C468.852 119.141 467.539 119.469 466.008 119.469C464.414 119.469 462.977 119.148 461.695 118.508C460.43 117.867 459.344 116.969 458.438 115.812C457.547 114.656 456.859 113.297 456.375 111.734C455.906 110.172 455.672 108.469 455.672 106.625ZM463.57 106.133V106.625C463.57 107.578 463.656 108.461 463.828 109.273C464.016 110.086 464.297 110.805 464.672 111.43C465.047 112.039 465.508 112.516 466.055 112.859C466.617 113.203 467.273 113.375 468.023 113.375C469.164 113.375 470.086 113.133 470.789 112.648C471.492 112.164 472 111.477 472.312 110.586C472.625 109.695 472.758 108.648 472.711 107.445V105.594C472.742 104.562 472.672 103.656 472.5 102.875C472.328 102.078 472.055 101.414 471.68 100.883C471.32 100.352 470.836 99.9531 470.227 99.6875C469.633 99.4062 468.914 99.2656 468.07 99.2656C467.336 99.2656 466.688 99.4375 466.125 99.7812C465.562 100.125 465.094 100.609 464.719 101.234C464.344 101.844 464.055 102.57 463.852 103.414C463.664 104.242 463.57 105.148 463.57 106.133ZM500.648 84.875H507.352L514.969 108.617L522.586 84.875H529.289L517.688 119H512.25L500.648 84.875ZM496.57 84.875H503.508L504.797 111.031V119H496.57V84.875ZM526.43 84.875H533.391V119H525.141V111.031L526.43 84.875ZM537.305 106.578V106.086C537.305 104.227 537.57 102.516 538.102 100.953C538.633 99.375 539.414 98.0078 540.445 96.8516C541.477 95.6953 542.75 94.7969 544.266 94.1562C545.781 93.5 547.531 93.1719 549.516 93.1719C551.516 93.1719 553.273 93.5 554.789 94.1562C556.32 94.7969 557.602 95.6953 558.633 96.8516C559.664 98.0078 560.445 99.375 560.977 100.953C561.508 102.516 561.773 104.227 561.773 106.086V106.578C561.773 108.422 561.508 110.133 560.977 111.711C560.445 113.273 559.664 114.641 558.633 115.812C557.602 116.969 556.328 117.867 554.812 118.508C553.297 119.148 551.547 119.469 549.562 119.469C547.578 119.469 545.82 119.148 544.289 118.508C542.758 117.867 541.477 116.969 540.445 115.812C539.414 114.641 538.633 113.273 538.102 111.711C537.57 110.133 537.305 108.422 537.305 106.578ZM545.203 106.086V106.578C545.203 107.531 545.273 108.422 545.414 109.25C545.555 110.078 545.789 110.805 546.117 111.43C546.445 112.039 546.891 112.516 547.453 112.859C548.016 113.203 548.719 113.375 549.562 113.375C550.391 113.375 551.078 113.203 551.625 112.859C552.188 112.516 552.633 112.039 552.961 111.43C553.289 110.805 553.523 110.078 553.664 109.25C553.805 108.422 553.875 107.531 553.875 106.578V106.086C553.875 105.164 553.805 104.297 553.664 103.484C553.523 102.656 553.289 101.93 552.961 101.305C552.633 100.664 552.188 100.164 551.625 99.8047C551.062 99.4453 550.359 99.2656 549.516 99.2656C548.688 99.2656 547.992 99.4453 547.43 99.8047C546.883 100.164 546.445 100.664 546.117 101.305C545.789 101.93 545.555 102.656 545.414 103.484C545.273 104.297 545.203 105.164 545.203 106.086ZM579.867 113.188V83H587.812V119H580.688L579.867 113.188ZM564.305 106.625V106.133C564.305 104.211 564.516 102.461 564.938 100.883C565.359 99.2891 565.984 97.9219 566.812 96.7812C567.641 95.625 568.672 94.7344 569.906 94.1094C571.141 93.4844 572.562 93.1719 574.172 93.1719C575.609 93.1719 576.867 93.5078 577.945 94.1797C579.023 94.8359 579.945 95.7578 580.711 96.9453C581.477 98.1328 582.102 99.5234 582.586 101.117C583.07 102.695 583.438 104.398 583.688 106.227V106.812C583.438 108.531 583.07 110.156 582.586 111.688C582.102 113.203 581.477 114.547 580.711 115.719C579.945 116.891 579.016 117.812 577.922 118.484C576.844 119.141 575.578 119.469 574.125 119.469C572.516 119.469 571.094 119.148 569.859 118.508C568.641 117.867 567.617 116.969 566.789 115.812C565.977 114.656 565.359 113.297 564.938 111.734C564.516 110.172 564.305 108.469 564.305 106.625ZM572.203 106.133V106.625C572.203 107.578 572.266 108.461 572.391 109.273C572.516 110.086 572.727 110.805 573.023 111.43C573.336 112.039 573.742 112.516 574.242 112.859C574.758 113.203 575.391 113.375 576.141 113.375C577.156 113.375 577.992 113.133 578.648 112.648C579.32 112.164 579.812 111.477 580.125 110.586C580.453 109.695 580.594 108.648 580.547 107.445V105.594C580.578 104.562 580.508 103.656 580.336 102.875C580.164 102.078 579.891 101.414 579.516 100.883C579.156 100.352 578.695 99.9531 578.133 99.6875C577.586 99.4062 576.938 99.2656 576.188 99.2656C575.453 99.2656 574.828 99.4375 574.312 99.7812C573.812 100.125 573.406 100.609 573.094 101.234C572.781 101.844 572.555 102.57 572.414 103.414C572.273 104.242 572.203 105.148 572.203 106.133ZM604.57 119.469C602.508 119.469 600.664 119.148 599.039 118.508C597.414 117.852 596.039 116.953 594.914 115.812C593.805 114.672 592.953 113.359 592.359 111.875C591.781 110.391 591.492 108.82 591.492 107.164V106.273C591.492 104.414 591.75 102.695 592.266 101.117C592.781 99.5234 593.547 98.1328 594.562 96.9453C595.578 95.7578 596.852 94.8359 598.383 94.1797C599.914 93.5078 601.695 93.1719 603.727 93.1719C605.523 93.1719 607.133 93.4609 608.555 94.0391C609.977 94.6172 611.18 95.4453 612.164 96.5234C613.164 97.6016 613.922 98.9062 614.438 100.438C614.969 101.969 615.234 103.688 615.234 105.594V108.805H594.516V103.859H607.523V103.25C607.539 102.406 607.391 101.688 607.078 101.094C606.781 100.5 606.344 100.047 605.766 99.7344C605.188 99.4219 604.484 99.2656 603.656 99.2656C602.797 99.2656 602.086 99.4531 601.523 99.8281C600.977 100.203 600.547 100.719 600.234 101.375C599.938 102.016 599.727 102.758 599.602 103.602C599.477 104.445 599.414 105.336 599.414 106.273V107.164C599.414 108.102 599.539 108.953 599.789 109.719C600.055 110.484 600.43 111.141 600.914 111.688C601.414 112.219 602.008 112.633 602.695 112.93C603.398 113.227 604.195 113.375 605.086 113.375C606.164 113.375 607.227 113.172 608.273 112.766C609.32 112.359 610.219 111.688 610.969 110.75L614.555 115.016C614.039 115.75 613.305 116.461 612.352 117.148C611.414 117.836 610.289 118.398 608.977 118.836C607.664 119.258 606.195 119.469 604.57 119.469ZM626.789 83V119H618.867V83H626.789Z" fill="black"/>
<path d="M1134 0H1348C1356.28 0 1363 6.71573 1363 15V148C1363 156.284 1356.28 163 1348 163H1134V0Z" fill="#5BE1E6"/>
<mask id="path-5-outside-1_3_82" maskUnits="userSpaceOnUse" x="1212.5" y="43.5" width="72" height="76" fill="black">
<rect fill="white" x="1212.5" y="43.5" width="72" height="76"/>
<path d="M1257.78 110.795L1258.17 117.033C1258.2 117.55 1257.82 118.005 1257.3 118.082C1255.41 118.359 1253.48 118.5 1251.56 118.5C1249.65 118.5 1247.72 118.359 1245.83 118.082C1245.3 118.005 1244.93 117.55 1244.96 117.033L1245.29 111.677C1241.26 110.891 1237.48 109.371 1234.05 107.148L1230.39 111.163C1230.04 111.55 1229.44 111.612 1229.01 111.305C1225.91 109.088 1223.19 106.436 1220.9 103.423C1220.59 103.006 1220.65 102.425 1221.05 102.081L1225.18 98.5235C1222.89 95.1861 1221.33 91.5191 1220.52 87.5987L1215.01 87.921C1214.48 87.9525 1214.01 87.5844 1213.93 87.0723C1213.64 85.2408 1213.5 83.3658 1213.5 81.4989C1213.5 79.6323 1213.64 77.7573 1213.93 75.9255C1214.01 75.4134 1214.48 75.037 1215.01 75.0768L1220.52 75.3991C1221.33 71.48 1222.89 67.8127 1225.18 64.4753L1221.05 60.9166C1220.65 60.5732 1220.59 59.9915 1220.9 59.5751C1223.18 56.565 1225.91 53.9132 1229.01 51.6928C1229.44 51.3858 1230.04 51.448 1230.39 51.8344L1234.05 55.8498C1237.51 53.619 1241.42 52.0541 1245.48 51.2839L1245.04 45.9743C1245 45.4495 1245.38 44.9818 1245.92 44.9043C1249.64 44.3652 1253.49 44.3652 1257.21 44.9043C1257.75 44.9818 1258.13 45.4496 1258.09 45.9743L1257.57 52.1893C1257.52 52.7401 1257.02 53.1503 1256.46 53.105C1255.89 53.0601 1255.47 52.5776 1255.52 52.0273L1255.96 46.7572C1253.05 46.4128 1250.08 46.4128 1247.17 46.7572L1247.61 52.0268C1247.66 52.546 1247.28 53.0109 1246.75 53.0949C1242.36 53.7915 1238.12 55.4843 1234.48 57.9899C1234.05 58.2849 1233.46 58.2181 1233.11 57.8373L1229.48 53.8537C1227.1 55.6511 1224.97 57.7247 1223.12 60.034L1227.22 63.565C1227.61 63.9035 1227.68 64.4749 1227.38 64.8912C1224.81 68.4236 1223.12 72.3693 1222.38 76.6188C1222.29 77.1218 1221.82 77.4795 1221.3 77.4485L1215.84 77.1288C1215.65 78.5723 1215.56 80.0384 1215.56 81.499C1215.56 82.9599 1215.65 84.4259 1215.84 85.8692L1221.3 85.5495C1221.82 85.5157 1222.29 85.8767 1222.38 86.3793C1223.12 90.6301 1224.81 94.5761 1227.38 98.1078C1227.68 98.5242 1227.61 99.0954 1227.22 99.434L1223.12 102.964C1224.97 105.276 1227.11 107.349 1229.48 109.144L1233.11 105.161C1233.46 104.779 1234.05 104.713 1234.48 105.008C1238.11 107.508 1242.17 109.143 1246.54 109.869C1247.06 109.955 1247.43 110.406 1247.4 110.915L1247.07 116.229C1250.04 116.589 1253.09 116.589 1256.06 116.229L1255.73 110.915C1255.7 110.363 1256.13 109.89 1256.7 109.857C1257.26 109.827 1257.75 110.244 1257.78 110.795ZM1279.87 67.5195C1281.52 67.5195 1282.86 68.8234 1282.86 70.4259C1282.86 72.0285 1281.52 73.3323 1279.87 73.3323C1279.49 73.3323 1279.13 73.2564 1278.8 73.131L1276 75.947C1275.8 76.142 1275.54 76.2524 1275.26 76.2524H1260.97C1260.4 76.2524 1259.94 75.8048 1259.94 75.2524C1259.94 74.7 1260.4 74.2524 1260.97 74.2524H1274.82L1277.25 71.8052C1277.02 71.3928 1276.88 70.9277 1276.88 70.4261C1276.88 68.8232 1278.22 67.5195 1279.87 67.5195ZM1278.93 70.4259C1278.93 70.9256 1279.35 71.3321 1279.87 71.3321C1280.38 71.3321 1280.8 70.9256 1280.8 70.4259C1280.8 69.9263 1280.38 69.5197 1279.87 69.5197C1279.35 69.5196 1278.93 69.9261 1278.93 70.4259ZM1268.7 64.8892L1272.51 59.5583C1272.12 59.0691 1271.89 58.4651 1271.89 57.8029C1271.89 56.2003 1273.23 54.8965 1274.87 54.8965C1276.52 54.8965 1277.86 56.2003 1277.86 57.8029C1277.86 59.4054 1276.52 60.7092 1274.87 60.7092C1274.66 60.7092 1274.45 60.6835 1274.24 60.6403L1270.08 66.4604C1269.89 66.729 1269.57 66.8895 1269.23 66.8895H1257.92C1257.35 66.8895 1256.89 66.4419 1256.89 65.8895C1256.89 65.3371 1257.35 64.8895 1257.92 64.8895H1268.7V64.8892ZM1273.94 57.8029C1273.94 58.3025 1274.36 58.7091 1274.87 58.7091C1275.39 58.7091 1275.81 58.3025 1275.81 57.8029C1275.81 57.3032 1275.39 56.8967 1274.87 56.8967C1274.36 56.8965 1273.94 57.3031 1273.94 57.8029ZM1277.62 105.196C1277.62 106.798 1276.28 108.102 1274.63 108.102C1272.98 108.102 1271.64 106.798 1271.64 105.196C1271.64 104.412 1271.96 103.703 1272.48 103.179L1268.69 97.8852H1257.92C1257.35 97.8852 1256.89 97.4376 1256.89 96.8852C1256.89 96.3328 1257.35 95.8852 1257.92 95.8852H1269.23C1269.57 95.8852 1269.89 96.0456 1270.08 96.3143L1274.37 102.315C1274.46 102.307 1274.54 102.289 1274.63 102.289C1276.28 102.289 1277.62 103.593 1277.62 105.196ZM1275.56 105.196C1275.56 104.696 1275.14 104.289 1274.63 104.289C1274.11 104.289 1273.69 104.696 1273.69 105.196C1273.69 105.695 1274.11 106.102 1274.63 106.102C1275.14 106.102 1275.56 105.695 1275.56 105.196ZM1282.61 92.8506C1282.61 94.4532 1281.27 95.757 1279.62 95.757C1277.97 95.757 1276.63 94.4532 1276.63 92.8506C1276.63 92.2267 1276.84 91.6518 1277.18 91.1777L1274.82 88.8004H1260.97C1260.4 88.8004 1259.94 88.3528 1259.94 87.8004C1259.94 87.248 1260.4 86.8004 1260.97 86.8004H1275.26C1275.54 86.8004 1275.8 86.9109 1276 87.1058L1278.91 90.0363C1279.14 89.9817 1279.37 89.9444 1279.62 89.9444C1281.27 89.9443 1282.61 91.2479 1282.61 92.8506ZM1280.55 92.8506C1280.55 92.351 1280.13 91.9444 1279.62 91.9444C1279.11 91.9444 1278.69 92.351 1278.69 92.8506C1278.69 93.3503 1279.11 93.7569 1279.62 93.7569C1280.13 93.7569 1280.55 93.3503 1280.55 92.8506ZM1283.5 81.5261C1283.5 83.1286 1282.16 84.4324 1280.51 84.4324C1279.22 84.4324 1278.14 83.6352 1277.71 82.5258H1255.16V100.204C1255.16 103.826 1252.13 106.773 1248.41 106.773C1245.68 106.773 1243.27 105.218 1242.21 102.835C1242.17 102.836 1242.13 102.837 1242.08 102.837C1238.36 102.837 1235.33 99.8896 1235.33 96.2674C1235.33 96.0939 1235.33 95.9203 1235.35 95.7475C1233.74 95.4353 1232.22 94.6326 1230.98 93.4249C1229.39 91.8756 1228.51 89.8161 1228.51 87.6253C1228.51 85.4345 1229.39 83.3749 1230.98 81.826C1231.1 81.7098 1231.23 81.6079 1231.36 81.4992C1231.23 81.3903 1231.1 81.2884 1230.98 81.1724C1229.39 79.6232 1228.51 77.5636 1228.51 75.3731C1228.51 73.1823 1229.39 71.1227 1230.98 69.5735C1232.22 68.3658 1233.74 67.563 1235.35 67.2509C1235.33 67.078 1235.33 66.9046 1235.33 66.731C1235.33 63.1085 1238.36 60.1615 1242.08 60.1615C1242.13 60.1615 1242.17 60.1618 1242.21 60.1628C1243.27 57.7799 1245.68 56.2252 1248.41 56.2252C1252.13 56.2252 1255.16 59.1721 1255.16 62.7944V80.5259H1277.71C1278.14 79.4168 1279.22 78.62 1280.51 78.62C1282.16 78.6198 1283.5 79.9235 1283.5 81.5261ZM1232.44 79.7581C1232.72 80.0356 1233.05 80.2792 1233.39 80.499H1253.11V62.7941C1253.11 60.2745 1251 58.225 1248.41 58.225C1246.68 58.225 1245.14 59.1203 1244.32 60.5297C1245.15 60.813 1245.92 61.2544 1246.59 61.8364C1246.6 61.8432 1246.6 61.8529 1246.61 61.8598C1246.99 61.6858 1247.42 61.5815 1247.87 61.5815C1249.51 61.5815 1250.86 62.8853 1250.86 64.4874C1250.86 66.09 1249.51 67.3938 1247.87 67.3938C1246.22 67.3938 1244.88 66.09 1244.88 64.4874C1244.88 64.0541 1244.98 63.6465 1245.16 63.2768C1244.3 62.5582 1243.22 62.1612 1242.08 62.1612C1239.49 62.1612 1237.38 64.2111 1237.38 66.7307C1237.38 66.8749 1237.4 67.0183 1237.41 67.1615C1238.63 67.284 1239.8 67.6579 1240.85 68.27C1241.31 67.9875 1241.85 67.8176 1242.43 67.8176C1244.08 67.8176 1245.42 69.1214 1245.42 70.7239C1245.42 72.3262 1244.08 73.6299 1242.43 73.6299C1240.78 73.6299 1239.44 72.3261 1239.44 70.7239C1239.44 70.43 1239.5 70.1516 1239.58 69.8839C1238.66 69.388 1237.63 69.1172 1236.55 69.1139C1235.06 69.1935 1233.6 69.857 1232.44 70.9873C1231.23 72.1588 1230.57 73.7162 1230.57 75.3728C1230.57 77.0293 1231.23 78.5866 1232.44 79.7581ZM1241.5 70.7241C1241.5 71.2237 1241.92 71.63 1242.43 71.63C1242.95 71.63 1243.36 71.2237 1243.36 70.7241C1243.36 70.2244 1242.95 69.8179 1242.43 69.8179C1241.92 69.8177 1241.5 70.2243 1241.5 70.7241ZM1247.87 65.3938C1248.38 65.3938 1248.8 64.9872 1248.8 64.4876C1248.8 63.9879 1248.38 63.5816 1247.87 63.5816C1247.35 63.5816 1246.93 63.9879 1246.93 64.4876C1246.93 64.9872 1247.35 65.3938 1247.87 65.3938ZM1253.11 100.204V82.499H1233.37C1233.03 82.7166 1232.72 82.9651 1232.44 83.2399C1231.23 84.4112 1230.57 85.9685 1230.57 87.6251C1230.57 89.2817 1231.23 90.8391 1232.44 92.0106C1233.6 93.1409 1235.06 93.8044 1236.55 93.884C1237.61 93.8807 1238.63 93.62 1239.54 93.1388C1239.48 92.9112 1239.44 92.6768 1239.44 92.4315C1239.44 90.8289 1240.78 89.5251 1242.43 89.5251C1244.08 89.5251 1245.42 90.8289 1245.42 92.4315C1245.42 94.0341 1244.08 95.3379 1242.43 95.3379C1241.79 95.3379 1241.2 95.1364 1240.71 94.8008C1239.7 95.3682 1238.58 95.7192 1237.41 95.8365C1237.4 95.9797 1237.38 96.1231 1237.38 96.2674C1237.38 98.787 1239.49 100.836 1242.08 100.836C1243.19 100.836 1244.26 100.455 1245.1 99.7652C1244.96 99.4261 1244.88 99.0564 1244.88 98.6677C1244.88 97.0652 1246.22 95.7614 1247.87 95.7614C1249.51 95.7614 1250.86 97.0652 1250.86 98.6677C1250.86 100.27 1249.51 101.574 1247.87 101.574C1247.37 101.574 1246.91 101.445 1246.5 101.236C1245.85 101.779 1245.11 102.198 1244.32 102.468C1245.14 103.878 1246.68 104.773 1248.41 104.773C1251 104.773 1253.11 102.724 1253.11 100.204ZM1247.87 99.5741C1248.38 99.5741 1248.8 99.1675 1248.8 98.6679C1248.8 98.1682 1248.38 97.7617 1247.87 97.7617C1247.35 97.7617 1246.93 98.1682 1246.93 98.6679C1246.93 99.1675 1247.35 99.5741 1247.87 99.5741ZM1242.43 93.3379C1242.95 93.3379 1243.36 92.9313 1243.36 92.4316C1243.36 91.932 1242.95 91.5254 1242.43 91.5254C1241.92 91.5254 1241.5 91.932 1241.5 92.4316C1241.5 92.5993 1241.55 92.7544 1241.63 92.8892C1241.65 92.9087 1241.67 92.9252 1241.68 92.9463C1241.7 92.9687 1241.71 92.9933 1241.73 93.0166C1241.9 93.2114 1242.15 93.3379 1242.43 93.3379ZM1281.44 81.5261C1281.44 81.0264 1281.02 80.6198 1280.51 80.6198C1280 80.6198 1279.58 81.0264 1279.58 81.5261C1279.58 82.0257 1280 82.4323 1280.51 82.4323C1281.02 82.4323 1281.44 82.0257 1281.44 81.5261Z"/>
</mask>
<path d="M1257.78 110.795L1258.17 117.033C1258.2 117.55 1257.82 118.005 1257.3 118.082C1255.41 118.359 1253.48 118.5 1251.56 118.5C1249.65 118.5 1247.72 118.359 1245.83 118.082C1245.3 118.005 1244.93 117.55 1244.96 117.033L1245.29 111.677C1241.26 110.891 1237.48 109.371 1234.05 107.148L1230.39 111.163C1230.04 111.55 1229.44 111.612 1229.01 111.305C1225.91 109.088 1223.19 106.436 1220.9 103.423C1220.59 103.006 1220.65 102.425 1221.05 102.081L1225.18 98.5235C1222.89 95.1861 1221.33 91.5191 1220.52 87.5987L1215.01 87.921C1214.48 87.9525 1214.01 87.5844 1213.93 87.0723C1213.64 85.2408 1213.5 83.3658 1213.5 81.4989C1213.5 79.6323 1213.64 77.7573 1213.93 75.9255C1214.01 75.4134 1214.48 75.037 1215.01 75.0768L1220.52 75.3991C1221.33 71.48 1222.89 67.8127 1225.18 64.4753L1221.05 60.9166C1220.65 60.5732 1220.59 59.9915 1220.9 59.5751C1223.18 56.565 1225.91 53.9132 1229.01 51.6928C1229.44 51.3858 1230.04 51.448 1230.39 51.8344L1234.05 55.8498C1237.51 53.619 1241.42 52.0541 1245.48 51.2839L1245.04 45.9743C1245 45.4495 1245.38 44.9818 1245.92 44.9043C1249.64 44.3652 1253.49 44.3652 1257.21 44.9043C1257.75 44.9818 1258.13 45.4496 1258.09 45.9743L1257.57 52.1893C1257.52 52.7401 1257.02 53.1503 1256.46 53.105C1255.89 53.0601 1255.47 52.5776 1255.52 52.0273L1255.96 46.7572C1253.05 46.4128 1250.08 46.4128 1247.17 46.7572L1247.61 52.0268C1247.66 52.546 1247.28 53.0109 1246.75 53.0949C1242.36 53.7915 1238.12 55.4843 1234.48 57.9899C1234.05 58.2849 1233.46 58.2181 1233.11 57.8373L1229.48 53.8537C1227.1 55.6511 1224.97 57.7247 1223.12 60.034L1227.22 63.565C1227.61 63.9035 1227.68 64.4749 1227.38 64.8912C1224.81 68.4236 1223.12 72.3693 1222.38 76.6188C1222.29 77.1218 1221.82 77.4795 1221.3 77.4485L1215.84 77.1288C1215.65 78.5723 1215.56 80.0384 1215.56 81.499C1215.56 82.9599 1215.65 84.4259 1215.84 85.8692L1221.3 85.5495C1221.82 85.5157 1222.29 85.8767 1222.38 86.3793C1223.12 90.6301 1224.81 94.5761 1227.38 98.1078C1227.68 98.5242 1227.61 99.0954 1227.22 99.434L1223.12 102.964C1224.97 105.276 1227.11 107.349 1229.48 109.144L1233.11 105.161C1233.46 104.779 1234.05 104.713 1234.48 105.008C1238.11 107.508 1242.17 109.143 1246.54 109.869C1247.06 109.955 1247.43 110.406 1247.4 110.915L1247.07 116.229C1250.04 116.589 1253.09 116.589 1256.06 116.229L1255.73 110.915C1255.7 110.363 1256.13 109.89 1256.7 109.857C1257.26 109.827 1257.75 110.244 1257.78 110.795ZM1279.87 67.5195C1281.52 67.5195 1282.86 68.8234 1282.86 70.4259C1282.86 72.0285 1281.52 73.3323 1279.87 73.3323C1279.49 73.3323 1279.13 73.2564 1278.8 73.131L1276 75.947C1275.8 76.142 1275.54 76.2524 1275.26 76.2524H1260.97C1260.4 76.2524 1259.94 75.8048 1259.94 75.2524C1259.94 74.7 1260.4 74.2524 1260.97 74.2524H1274.82L1277.25 71.8052C1277.02 71.3928 1276.88 70.9277 1276.88 70.4261C1276.88 68.8232 1278.22 67.5195 1279.87 67.5195ZM1278.93 70.4259C1278.93 70.9256 1279.35 71.3321 1279.87 71.3321C1280.38 71.3321 1280.8 70.9256 1280.8 70.4259C1280.8 69.9263 1280.38 69.5197 1279.87 69.5197C1279.35 69.5196 1278.93 69.9261 1278.93 70.4259ZM1268.7 64.8892L1272.51 59.5583C1272.12 59.0691 1271.89 58.4651 1271.89 57.8029C1271.89 56.2003 1273.23 54.8965 1274.87 54.8965C1276.52 54.8965 1277.86 56.2003 1277.86 57.8029C1277.86 59.4054 1276.52 60.7092 1274.87 60.7092C1274.66 60.7092 1274.45 60.6835 1274.24 60.6403L1270.08 66.4604C1269.89 66.729 1269.57 66.8895 1269.23 66.8895H1257.92C1257.35 66.8895 1256.89 66.4419 1256.89 65.8895C1256.89 65.3371 1257.35 64.8895 1257.92 64.8895H1268.7V64.8892ZM1273.94 57.8029C1273.94 58.3025 1274.36 58.7091 1274.87 58.7091C1275.39 58.7091 1275.81 58.3025 1275.81 57.8029C1275.81 57.3032 1275.39 56.8967 1274.87 56.8967C1274.36 56.8965 1273.94 57.3031 1273.94 57.8029ZM1277.62 105.196C1277.62 106.798 1276.28 108.102 1274.63 108.102C1272.98 108.102 1271.64 106.798 1271.64 105.196C1271.64 104.412 1271.96 103.703 1272.48 103.179L1268.69 97.8852H1257.92C1257.35 97.8852 1256.89 97.4376 1256.89 96.8852C1256.89 96.3328 1257.35 95.8852 1257.92 95.8852H1269.23C1269.57 95.8852 1269.89 96.0456 1270.08 96.3143L1274.37 102.315C1274.46 102.307 1274.54 102.289 1274.63 102.289C1276.28 102.289 1277.62 103.593 1277.62 105.196ZM1275.56 105.196C1275.56 104.696 1275.14 104.289 1274.63 104.289C1274.11 104.289 1273.69 104.696 1273.69 105.196C1273.69 105.695 1274.11 106.102 1274.63 106.102C1275.14 106.102 1275.56 105.695 1275.56 105.196ZM1282.61 92.8506C1282.61 94.4532 1281.27 95.757 1279.62 95.757C1277.97 95.757 1276.63 94.4532 1276.63 92.8506C1276.63 92.2267 1276.84 91.6518 1277.18 91.1777L1274.82 88.8004H1260.97C1260.4 88.8004 1259.94 88.3528 1259.94 87.8004C1259.94 87.248 1260.4 86.8004 1260.97 86.8004H1275.26C1275.54 86.8004 1275.8 86.9109 1276 87.1058L1278.91 90.0363C1279.14 89.9817 1279.37 89.9444 1279.62 89.9444C1281.27 89.9443 1282.61 91.2479 1282.61 92.8506ZM1280.55 92.8506C1280.55 92.351 1280.13 91.9444 1279.62 91.9444C1279.11 91.9444 1278.69 92.351 1278.69 92.8506C1278.69 93.3503 1279.11 93.7569 1279.62 93.7569C1280.13 93.7569 1280.55 93.3503 1280.55 92.8506ZM1283.5 81.5261C1283.5 83.1286 1282.16 84.4324 1280.51 84.4324C1279.22 84.4324 1278.14 83.6352 1277.71 82.5258H1255.16V100.204C1255.16 103.826 1252.13 106.773 1248.41 106.773C1245.68 106.773 1243.27 105.218 1242.21 102.835C1242.17 102.836 1242.13 102.837 1242.08 102.837C1238.36 102.837 1235.33 99.8896 1235.33 96.2674C1235.33 96.0939 1235.33 95.9203 1235.35 95.7475C1233.74 95.4353 1232.22 94.6326 1230.98 93.4249C1229.39 91.8756 1228.51 89.8161 1228.51 87.6253C1228.51 85.4345 1229.39 83.3749 1230.98 81.826C1231.1 81.7098 1231.23 81.6079 1231.36 81.4992C1231.23 81.3903 1231.1 81.2884 1230.98 81.1724C1229.39 79.6232 1228.51 77.5636 1228.51 75.3731C1228.51 73.1823 1229.39 71.1227 1230.98 69.5735C1232.22 68.3658 1233.74 67.563 1235.35 67.2509C1235.33 67.078 1235.33 66.9046 1235.33 66.731C1235.33 63.1085 1238.36 60.1615 1242.08 60.1615C1242.13 60.1615 1242.17 60.1618 1242.21 60.1628C1243.27 57.7799 1245.68 56.2252 1248.41 56.2252C1252.13 56.2252 1255.16 59.1721 1255.16 62.7944V80.5259H1277.71C1278.14 79.4168 1279.22 78.62 1280.51 78.62C1282.16 78.6198 1283.5 79.9235 1283.5 81.5261ZM1232.44 79.7581C1232.72 80.0356 1233.05 80.2792 1233.39 80.499H1253.11V62.7941C1253.11 60.2745 1251 58.225 1248.41 58.225C1246.68 58.225 1245.14 59.1203 1244.32 60.5297C1245.15 60.813 1245.92 61.2544 1246.59 61.8364C1246.6 61.8432 1246.6 61.8529 1246.61 61.8598C1246.99 61.6858 1247.42 61.5815 1247.87 61.5815C1249.51 61.5815 1250.86 62.8853 1250.86 64.4874C1250.86 66.09 1249.51 67.3938 1247.87 67.3938C1246.22 67.3938 1244.88 66.09 1244.88 64.4874C1244.88 64.0541 1244.98 63.6465 1245.16 63.2768C1244.3 62.5582 1243.22 62.1612 1242.08 62.1612C1239.49 62.1612 1237.38 64.2111 1237.38 66.7307C1237.38 66.8749 1237.4 67.0183 1237.41 67.1615C1238.63 67.284 1239.8 67.6579 1240.85 68.27C1241.31 67.9875 1241.85 67.8176 1242.43 67.8176C1244.08 67.8176 1245.42 69.1214 1245.42 70.7239C1245.42 72.3262 1244.08 73.6299 1242.43 73.6299C1240.78 73.6299 1239.44 72.3261 1239.44 70.7239C1239.44 70.43 1239.5 70.1516 1239.58 69.8839C1238.66 69.388 1237.63 69.1172 1236.55 69.1139C1235.06 69.1935 1233.6 69.857 1232.44 70.9873C1231.23 72.1588 1230.57 73.7162 1230.57 75.3728C1230.57 77.0293 1231.23 78.5866 1232.44 79.7581ZM1241.5 70.7241C1241.5 71.2237 1241.92 71.63 1242.43 71.63C1242.95 71.63 1243.36 71.2237 1243.36 70.7241C1243.36 70.2244 1242.95 69.8179 1242.43 69.8179C1241.92 69.8177 1241.5 70.2243 1241.5 70.7241ZM1247.87 65.3938C1248.38 65.3938 1248.8 64.9872 1248.8 64.4876C1248.8 63.9879 1248.38 63.5816 1247.87 63.5816C1247.35 63.5816 1246.93 63.9879 1246.93 64.4876C1246.93 64.9872 1247.35 65.3938 1247.87 65.3938ZM1253.11 100.204V82.499H1233.37C1233.03 82.7166 1232.72 82.9651 1232.44 83.2399C1231.23 84.4112 1230.57 85.9685 1230.57 87.6251C1230.57 89.2817 1231.23 90.8391 1232.44 92.0106C1233.6 93.1409 1235.06 93.8044 1236.55 93.884C1237.61 93.8807 1238.63 93.62 1239.54 93.1388C1239.48 92.9112 1239.44 92.6768 1239.44 92.4315C1239.44 90.8289 1240.78 89.5251 1242.43 89.5251C1244.08 89.5251 1245.42 90.8289 1245.42 92.4315C1245.42 94.0341 1244.08 95.3379 1242.43 95.3379C1241.79 95.3379 1241.2 95.1364 1240.71 94.8008C1239.7 95.3682 1238.58 95.7192 1237.41 95.8365C1237.4 95.9797 1237.38 96.1231 1237.38 96.2674C1237.38 98.787 1239.49 100.836 1242.08 100.836C1243.19 100.836 1244.26 100.455 1245.1 99.7652C1244.96 99.4261 1244.88 99.0564 1244.88 98.6677C1244.88 97.0652 1246.22 95.7614 1247.87 95.7614C1249.51 95.7614 1250.86 97.0652 1250.86 98.6677C1250.86 100.27 1249.51 101.574 1247.87 101.574C1247.37 101.574 1246.91 101.445 1246.5 101.236C1245.85 101.779 1245.11 102.198 1244.32 102.468C1245.14 103.878 1246.68 104.773 1248.41 104.773C1251 104.773 1253.11 102.724 1253.11 100.204ZM1247.87 99.5741C1248.38 99.5741 1248.8 99.1675 1248.8 98.6679C1248.8 98.1682 1248.38 97.7617 1247.87 97.7617C1247.35 97.7617 1246.93 98.1682 1246.93 98.6679C1246.93 99.1675 1247.35 99.5741 1247.87 99.5741ZM1242.43 93.3379C1242.95 93.3379 1243.36 92.9313 1243.36 92.4316C1243.36 91.932 1242.95 91.5254 1242.43 91.5254C1241.92 91.5254 1241.5 91.932 1241.5 92.4316C1241.5 92.5993 1241.55 92.7544 1241.63 92.8892C1241.65 92.9087 1241.67 92.9252 1241.68 92.9463C1241.7 92.9687 1241.71 92.9933 1241.73 93.0166C1241.9 93.2114 1242.15 93.3379 1242.43 93.3379ZM1281.44 81.5261C1281.44 81.0264 1281.02 80.6198 1280.51 80.6198C1280 80.6198 1279.58 81.0264 1279.58 81.5261C1279.58 82.0257 1280 82.4323 1280.51 82.4323C1281.02 82.4323 1281.44 82.0257 1281.44 81.5261Z" fill="white"/>
<path d="M1257.78 110.795L1258.17 117.033C1258.2 117.55 1257.82 118.005 1257.3 118.082C1255.41 118.359 1253.48 118.5 1251.56 118.5C1249.65 118.5 1247.72 118.359 1245.83 118.082C1245.3 118.005 1244.93 117.55 1244.96 117.033L1245.29 111.677C1241.26 110.891 1237.48 109.371 1234.05 107.148L1230.39 111.163C1230.04 111.55 1229.44 111.612 1229.01 111.305C1225.91 109.088 1223.19 106.436 1220.9 103.423C1220.59 103.006 1220.65 102.425 1221.05 102.081L1225.18 98.5235C1222.89 95.1861 1221.33 91.5191 1220.52 87.5987L1215.01 87.921C1214.48 87.9525 1214.01 87.5844 1213.93 87.0723C1213.64 85.2408 1213.5 83.3658 1213.5 81.4989C1213.5 79.6323 1213.64 77.7573 1213.93 75.9255C1214.01 75.4134 1214.48 75.037 1215.01 75.0768L1220.52 75.3991C1221.33 71.48 1222.89 67.8127 1225.18 64.4753L1221.05 60.9166C1220.65 60.5732 1220.59 59.9915 1220.9 59.5751C1223.18 56.565 1225.91 53.9132 1229.01 51.6928C1229.44 51.3858 1230.04 51.448 1230.39 51.8344L1234.05 55.8498C1237.51 53.619 1241.42 52.0541 1245.48 51.2839L1245.04 45.9743C1245 45.4495 1245.38 44.9818 1245.92 44.9043C1249.64 44.3652 1253.49 44.3652 1257.21 44.9043C1257.75 44.9818 1258.13 45.4496 1258.09 45.9743L1257.57 52.1893C1257.52 52.7401 1257.02 53.1503 1256.46 53.105C1255.89 53.0601 1255.47 52.5776 1255.52 52.0273L1255.96 46.7572C1253.05 46.4128 1250.08 46.4128 1247.17 46.7572L1247.61 52.0268C1247.66 52.546 1247.28 53.0109 1246.75 53.0949C1242.36 53.7915 1238.12 55.4843 1234.48 57.9899C1234.05 58.2849 1233.46 58.2181 1233.11 57.8373L1229.48 53.8537C1227.1 55.6511 1224.97 57.7247 1223.12 60.034L1227.22 63.565C1227.61 63.9035 1227.68 64.4749 1227.38 64.8912C1224.81 68.4236 1223.12 72.3693 1222.38 76.6188C1222.29 77.1218 1221.82 77.4795 1221.3 77.4485L1215.84 77.1288C1215.65 78.5723 1215.56 80.0384 1215.56 81.499C1215.56 82.9599 1215.65 84.4259 1215.84 85.8692L1221.3 85.5495C1221.82 85.5157 1222.29 85.8767 1222.38 86.3793C1223.12 90.6301 1224.81 94.5761 1227.38 98.1078C1227.68 98.5242 1227.61 99.0954 1227.22 99.434L1223.12 102.964C1224.97 105.276 1227.11 107.349 1229.48 109.144L1233.11 105.161C1233.46 104.779 1234.05 104.713 1234.48 105.008C1238.11 107.508 1242.17 109.143 1246.54 109.869C1247.06 109.955 1247.43 110.406 1247.4 110.915L1247.07 116.229C1250.04 116.589 1253.09 116.589 1256.06 116.229L1255.73 110.915C1255.7 110.363 1256.13 109.89 1256.7 109.857C1257.26 109.827 1257.75 110.244 1257.78 110.795ZM1279.87 67.5195C1281.52 67.5195 1282.86 68.8234 1282.86 70.4259C1282.86 72.0285 1281.52 73.3323 1279.87 73.3323C1279.49 73.3323 1279.13 73.2564 1278.8 73.131L1276 75.947C1275.8 76.142 1275.54 76.2524 1275.26 76.2524H1260.97C1260.4 76.2524 1259.94 75.8048 1259.94 75.2524C1259.94 74.7 1260.4 74.2524 1260.97 74.2524H1274.82L1277.25 71.8052C1277.02 71.3928 1276.88 70.9277 1276.88 70.4261C1276.88 68.8232 1278.22 67.5195 1279.87 67.5195ZM1278.93 70.4259C1278.93 70.9256 1279.35 71.3321 1279.87 71.3321C1280.38 71.3321 1280.8 70.9256 1280.8 70.4259C1280.8 69.9263 1280.38 69.5197 1279.87 69.5197C1279.35 69.5196 1278.93 69.9261 1278.93 70.4259ZM1268.7 64.8892L1272.51 59.5583C1272.12 59.0691 1271.89 58.4651 1271.89 57.8029C1271.89 56.2003 1273.23 54.8965 1274.87 54.8965C1276.52 54.8965 1277.86 56.2003 1277.86 57.8029C1277.86 59.4054 1276.52 60.7092 1274.87 60.7092C1274.66 60.7092 1274.45 60.6835 1274.24 60.6403L1270.08 66.4604C1269.89 66.729 1269.57 66.8895 1269.23 66.8895H1257.92C1257.35 66.8895 1256.89 66.4419 1256.89 65.8895C1256.89 65.3371 1257.35 64.8895 1257.92 64.8895H1268.7V64.8892ZM1273.94 57.8029C1273.94 58.3025 1274.36 58.7091 1274.87 58.7091C1275.39 58.7091 1275.81 58.3025 1275.81 57.8029C1275.81 57.3032 1275.39 56.8967 1274.87 56.8967C1274.36 56.8965 1273.94 57.3031 1273.94 57.8029ZM1277.62 105.196C1277.62 106.798 1276.28 108.102 1274.63 108.102C1272.98 108.102 1271.64 106.798 1271.64 105.196C1271.64 104.412 1271.96 103.703 1272.48 103.179L1268.69 97.8852H1257.92C1257.35 97.8852 1256.89 97.4376 1256.89 96.8852C1256.89 96.3328 1257.35 95.8852 1257.92 95.8852H1269.23C1269.57 95.8852 1269.89 96.0456 1270.08 96.3143L1274.37 102.315C1274.46 102.307 1274.54 102.289 1274.63 102.289C1276.28 102.289 1277.62 103.593 1277.62 105.196ZM1275.56 105.196C1275.56 104.696 1275.14 104.289 1274.63 104.289C1274.11 104.289 1273.69 104.696 1273.69 105.196C1273.69 105.695 1274.11 106.102 1274.63 106.102C1275.14 106.102 1275.56 105.695 1275.56 105.196ZM1282.61 92.8506C1282.61 94.4532 1281.27 95.757 1279.62 95.757C1277.97 95.757 1276.63 94.4532 1276.63 92.8506C1276.63 92.2267 1276.84 91.6518 1277.18 91.1777L1274.82 88.8004H1260.97C1260.4 88.8004 1259.94 88.3528 1259.94 87.8004C1259.94 87.248 1260.4 86.8004 1260.97 86.8004H1275.26C1275.54 86.8004 1275.8 86.9109 1276 87.1058L1278.91 90.0363C1279.14 89.9817 1279.37 89.9444 1279.62 89.9444C1281.27 89.9443 1282.61 91.2479 1282.61 92.8506ZM1280.55 92.8506C1280.55 92.351 1280.13 91.9444 1279.62 91.9444C1279.11 91.9444 1278.69 92.351 1278.69 92.8506C1278.69 93.3503 1279.11 93.7569 1279.62 93.7569C1280.13 93.7569 1280.55 93.3503 1280.55 92.8506ZM1283.5 81.5261C1283.5 83.1286 1282.16 84.4324 1280.51 84.4324C1279.22 84.4324 1278.14 83.6352 1277.71 82.5258H1255.16V100.204C1255.16 103.826 1252.13 106.773 1248.41 106.773C1245.68 106.773 1243.27 105.218 1242.21 102.835C1242.17 102.836 1242.13 102.837 1242.08 102.837C1238.36 102.837 1235.33 99.8896 1235.33 96.2674C1235.33 96.0939 1235.33 95.9203 1235.35 95.7475C1233.74 95.4353 1232.22 94.6326 1230.98 93.4249C1229.39 91.8756 1228.51 89.8161 1228.51 87.6253C1228.51 85.4345 1229.39 83.3749 1230.98 81.826C1231.1 81.7098 1231.23 81.6079 1231.36 81.4992C1231.23 81.3903 1231.1 81.2884 1230.98 81.1724C1229.39 79.6232 1228.51 77.5636 1228.51 75.3731C1228.51 73.1823 1229.39 71.1227 1230.98 69.5735C1232.22 68.3658 1233.74 67.563 1235.35 67.2509C1235.33 67.078 1235.33 66.9046 1235.33 66.731C1235.33 63.1085 1238.36 60.1615 1242.08 60.1615C1242.13 60.1615 1242.17 60.1618 1242.21 60.1628C1243.27 57.7799 1245.68 56.2252 1248.41 56.2252C1252.13 56.2252 1255.16 59.1721 1255.16 62.7944V80.5259H1277.71C1278.14 79.4168 1279.22 78.62 1280.51 78.62C1282.16 78.6198 1283.5 79.9235 1283.5 81.5261ZM1232.44 79.7581C1232.72 80.0356 1233.05 80.2792 1233.39 80.499H1253.11V62.7941C1253.11 60.2745 1251 58.225 1248.41 58.225C1246.68 58.225 1245.14 59.1203 1244.32 60.5297C1245.15 60.813 1245.92 61.2544 1246.59 61.8364C1246.6 61.8432 1246.6 61.8529 1246.61 61.8598C1246.99 61.6858 1247.42 61.5815 1247.87 61.5815C1249.51 61.5815 1250.86 62.8853 1250.86 64.4874C1250.86 66.09 1249.51 67.3938 1247.87 67.3938C1246.22 67.3938 1244.88 66.09 1244.88 64.4874C1244.88 64.0541 1244.98 63.6465 1245.16 63.2768C1244.3 62.5582 1243.22 62.1612 1242.08 62.1612C1239.49 62.1612 1237.38 64.2111 1237.38 66.7307C1237.38 66.8749 1237.4 67.0183 1237.41 67.1615C1238.63 67.284 1239.8 67.6579 1240.85 68.27C1241.31 67.9875 1241.85 67.8176 1242.43 67.8176C1244.08 67.8176 1245.42 69.1214 1245.42 70.7239C1245.42 72.3262 1244.08 73.6299 1242.43 73.6299C1240.78 73.6299 1239.44 72.3261 1239.44 70.7239C1239.44 70.43 1239.5 70.1516 1239.58 69.8839C1238.66 69.388 1237.63 69.1172 1236.55 69.1139C1235.06 69.1935 1233.6 69.857 1232.44 70.9873C1231.23 72.1588 1230.57 73.7162 1230.57 75.3728C1230.57 77.0293 1231.23 78.5866 1232.44 79.7581ZM1241.5 70.7241C1241.5 71.2237 1241.92 71.63 1242.43 71.63C1242.95 71.63 1243.36 71.2237 1243.36 70.7241C1243.36 70.2244 1242.95 69.8179 1242.43 69.8179C1241.92 69.8177 1241.5 70.2243 1241.5 70.7241ZM1247.87 65.3938C1248.38 65.3938 1248.8 64.9872 1248.8 64.4876C1248.8 63.9879 1248.38 63.5816 1247.87 63.5816C1247.35 63.5816 1246.93 63.9879 1246.93 64.4876C1246.93 64.9872 1247.35 65.3938 1247.87 65.3938ZM1253.11 100.204V82.499H1233.37C1233.03 82.7166 1232.72 82.9651 1232.44 83.2399C1231.23 84.4112 1230.57 85.9685 1230.57 87.6251C1230.57 89.2817 1231.23 90.8391 1232.44 92.0106C1233.6 93.1409 1235.06 93.8044 1236.55 93.884C1237.61 93.8807 1238.63 93.62 1239.54 93.1388C1239.48 92.9112 1239.44 92.6768 1239.44 92.4315C1239.44 90.8289 1240.78 89.5251 1242.43 89.5251C1244.08 89.5251 1245.42 90.8289 1245.42 92.4315C1245.42 94.0341 1244.08 95.3379 1242.43 95.3379C1241.79 95.3379 1241.2 95.1364 1240.71 94.8008C1239.7 95.3682 1238.58 95.7192 1237.41 95.8365C1237.4 95.9797 1237.38 96.1231 1237.38 96.2674C1237.38 98.787 1239.49 100.836 1242.08 100.836C1243.19 100.836 1244.26 100.455 1245.1 99.7652C1244.96 99.4261 1244.88 99.0564 1244.88 98.6677C1244.88 97.0652 1246.22 95.7614 1247.87 95.7614C1249.51 95.7614 1250.86 97.0652 1250.86 98.6677C1250.86 100.27 1249.51 101.574 1247.87 101.574C1247.37 101.574 1246.91 101.445 1246.5 101.236C1245.85 101.779 1245.11 102.198 1244.32 102.468C1245.14 103.878 1246.68 104.773 1248.41 104.773C1251 104.773 1253.11 102.724 1253.11 100.204ZM1247.87 99.5741C1248.38 99.5741 1248.8 99.1675 1248.8 98.6679C1248.8 98.1682 1248.38 97.7617 1247.87 97.7617C1247.35 97.7617 1246.93 98.1682 1246.93 98.6679C1246.93 99.1675 1247.35 99.5741 1247.87 99.5741ZM1242.43 93.3379C1242.95 93.3379 1243.36 92.9313 1243.36 92.4316C1243.36 91.932 1242.95 91.5254 1242.43 91.5254C1241.92 91.5254 1241.5 91.932 1241.5 92.4316C1241.5 92.5993 1241.55 92.7544 1241.63 92.8892C1241.65 92.9087 1241.67 92.9252 1241.68 92.9463C1241.7 92.9687 1241.71 92.9933 1241.73 93.0166C1241.9 93.2114 1242.15 93.3379 1242.43 93.3379ZM1281.44 81.5261C1281.44 81.0264 1281.02 80.6198 1280.51 80.6198C1280 80.6198 1279.58 81.0264 1279.58 81.5261C1279.58 82.0257 1280 82.4323 1280.51 82.4323C1281.02 82.4323 1281.44 82.0257 1281.44 81.5261Z" stroke="white" mask="url(#path-5-outside-1_3_82)"/>
</svg>
