<svg width="1363" height="163" viewBox="0 0 1363 163" fill="none" xmlns="http://www.w3.org/2000/svg">
<path d="M0 15C0 6.71573 6.71573 0 15 0H37V163H15C6.71573 163 0 156.284 0 148V15Z" fill="#424242"/>
<rect width="1097" height="163" transform="translate(37)" fill="#F0F0F0"/>
<path d="M101.906 53.9219L94.3945 51.2383V48.0859L104.602 52.375V54.6367L101.906 53.9219ZM94.3945 56.1719L101.918 53.4297L104.602 52.7852V55.0352L94.3945 59.3242V56.1719ZM122.789 55.3398H126.293C126.223 56.4883 125.906 57.5078 125.344 58.3984C124.789 59.2891 124.012 59.9844 123.012 60.4844C122.02 60.9844 120.824 61.2344 119.426 61.2344C118.332 61.2344 117.352 61.0469 116.484 60.6719C115.617 60.2891 114.875 59.7422 114.258 59.0312C113.648 58.3203 113.184 57.4609 112.863 56.4531C112.543 55.4453 112.383 54.3164 112.383 53.0664V51.8828C112.383 50.6328 112.547 49.5039 112.875 48.4961C113.211 47.4805 113.688 46.6172 114.305 45.9062C114.93 45.1953 115.676 44.6484 116.543 44.2656C117.41 43.8828 118.379 43.6914 119.449 43.6914C120.871 43.6914 122.07 43.9492 123.047 44.4648C124.031 44.9805 124.793 45.6914 125.332 46.5977C125.879 47.5039 126.207 48.5352 126.316 49.6914H122.801C122.762 49.0039 122.625 48.4219 122.391 47.9453C122.156 47.4609 121.801 47.0977 121.324 46.8555C120.855 46.6055 120.23 46.4805 119.449 46.4805C118.863 46.4805 118.352 46.5898 117.914 46.8086C117.477 47.0273 117.109 47.3594 116.812 47.8047C116.516 48.25 116.293 48.8125 116.145 49.4922C116.004 50.1641 115.934 50.9531 115.934 51.8594V53.0664C115.934 53.9492 116 54.7266 116.133 55.3984C116.266 56.0625 116.469 56.625 116.742 57.0859C117.023 57.5391 117.383 57.8828 117.82 58.1172C118.266 58.3438 118.801 58.457 119.426 58.457C120.16 58.457 120.766 58.3398 121.242 58.1055C121.719 57.8711 122.082 57.5234 122.332 57.0625C122.59 56.6016 122.742 56.0273 122.789 55.3398ZM131.766 51.0859V61H128.391V48.3203H131.566L131.766 51.0859ZM135.586 48.2383L135.527 51.3672C135.363 51.3438 135.164 51.3242 134.93 51.3086C134.703 51.2852 134.496 51.2734 134.309 51.2734C133.832 51.2734 133.418 51.3359 133.066 51.4609C132.723 51.5781 132.434 51.7539 132.199 51.9883C131.973 52.2227 131.801 52.5078 131.684 52.8438C131.574 53.1797 131.512 53.5625 131.496 53.9922L130.816 53.7812C130.816 52.9609 130.898 52.207 131.062 51.5195C131.227 50.8242 131.465 50.2188 131.777 49.7031C132.098 49.1875 132.488 48.7891 132.949 48.5078C133.41 48.2266 133.938 48.0859 134.531 48.0859C134.719 48.0859 134.91 48.1016 135.105 48.1328C135.301 48.1562 135.461 48.1914 135.586 48.2383ZM142.781 61.2344C141.797 61.2344 140.914 61.0781 140.133 60.7656C139.352 60.4453 138.688 60.0039 138.141 59.4414C137.602 58.8789 137.188 58.2266 136.898 57.4844C136.609 56.7344 136.465 55.9375 136.465 55.0938V54.625C136.465 53.6641 136.602 52.7852 136.875 51.9883C137.148 51.1914 137.539 50.5 138.047 49.9141C138.562 49.3281 139.188 48.8789 139.922 48.5664C140.656 48.2461 141.484 48.0859 142.406 48.0859C143.305 48.0859 144.102 48.2344 144.797 48.5312C145.492 48.8281 146.074 49.25 146.543 49.7969C147.02 50.3438 147.379 51 147.621 51.7656C147.863 52.5234 147.984 53.3672 147.984 54.2969V55.7031H137.906V53.4531H144.668V53.1953C144.668 52.7266 144.582 52.3086 144.41 51.9414C144.246 51.5664 143.996 51.2695 143.66 51.0508C143.324 50.832 142.895 50.7227 142.371 50.7227C141.926 50.7227 141.543 50.8203 141.223 51.0156C140.902 51.2109 140.641 51.4844 140.438 51.8359C140.242 52.1875 140.094 52.6016 139.992 53.0781C139.898 53.5469 139.852 54.0625 139.852 54.625V55.0938C139.852 55.6016 139.922 56.0703 140.062 56.5C140.211 56.9297 140.418 57.3008 140.684 57.6133C140.957 57.9258 141.285 58.168 141.668 58.3398C142.059 58.5117 142.5 58.5977 142.992 58.5977C143.602 58.5977 144.168 58.4805 144.691 58.2461C145.223 58.0039 145.68 57.6406 146.062 57.1562L147.703 58.9375C147.438 59.3203 147.074 59.6875 146.613 60.0391C146.16 60.3906 145.613 60.6797 144.973 60.9062C144.332 61.125 143.602 61.2344 142.781 61.2344ZM157.395 58.2344V43H160.793V61H157.734L157.395 58.2344ZM149.379 54.8125V54.5664C149.379 53.5977 149.488 52.7188 149.707 51.9297C149.926 51.1328 150.246 50.4492 150.668 49.8789C151.09 49.3086 151.609 48.8672 152.227 48.5547C152.844 48.2422 153.547 48.0859 154.336 48.0859C155.078 48.0859 155.727 48.2422 156.281 48.5547C156.844 48.8672 157.32 49.3125 157.711 49.8906C158.109 50.4609 158.43 51.1367 158.672 51.918C158.914 52.6914 159.09 53.5391 159.199 54.4609V55C159.09 55.8828 158.914 56.7031 158.672 57.4609C158.43 58.2188 158.109 58.8828 157.711 59.4531C157.32 60.0156 156.844 60.4531 156.281 60.7656C155.719 61.0781 155.062 61.2344 154.312 61.2344C153.523 61.2344 152.82 61.0742 152.203 60.7539C151.594 60.4336 151.078 59.9844 150.656 59.4062C150.242 58.8281 149.926 58.1484 149.707 57.3672C149.488 56.5859 149.379 55.7344 149.379 54.8125ZM152.754 54.5664V54.8125C152.754 55.3359 152.793 55.8242 152.871 56.2773C152.957 56.7305 153.094 57.1328 153.281 57.4844C153.477 57.8281 153.727 58.0977 154.031 58.293C154.344 58.4805 154.723 58.5742 155.168 58.5742C155.746 58.5742 156.223 58.4453 156.598 58.1875C156.973 57.9219 157.258 57.5586 157.453 57.0977C157.656 56.6367 157.773 56.1055 157.805 55.5039V53.9688C157.781 53.4766 157.711 53.0352 157.594 52.6445C157.484 52.2461 157.32 51.9062 157.102 51.625C156.891 51.3438 156.625 51.125 156.305 50.9688C155.992 50.8125 155.621 50.7344 155.191 50.7344C154.754 50.7344 154.379 50.8359 154.066 51.0391C153.754 51.2344 153.5 51.5039 153.305 51.8477C153.117 52.1914 152.977 52.5977 152.883 53.0664C152.797 53.5273 152.754 54.0273 152.754 54.5664ZM166.992 48.3203V61H163.605V48.3203H166.992ZM163.395 45.0156C163.395 44.5234 163.566 44.1172 163.91 43.7969C164.254 43.4766 164.715 43.3164 165.293 43.3164C165.863 43.3164 166.32 43.4766 166.664 43.7969C167.016 44.1172 167.191 44.5234 167.191 45.0156C167.191 45.5078 167.016 45.9141 166.664 46.2344C166.32 46.5547 165.863 46.7148 165.293 46.7148C164.715 46.7148 164.254 46.5547 163.91 46.2344C163.566 45.9141 163.395 45.5078 163.395 45.0156ZM175.992 48.3203V50.7109H168.609V48.3203H175.992ZM170.438 45.1914H173.812V57.1797C173.812 57.5469 173.859 57.8281 173.953 58.0234C174.055 58.2188 174.203 58.3555 174.398 58.4336C174.594 58.5039 174.84 58.5391 175.137 58.5391C175.348 58.5391 175.535 58.5312 175.699 58.5156C175.871 58.4922 176.016 58.4688 176.133 58.4453L176.145 60.9297C175.855 61.0234 175.543 61.0977 175.207 61.1523C174.871 61.207 174.5 61.2344 174.094 61.2344C173.352 61.2344 172.703 61.1133 172.148 60.8711C171.602 60.6211 171.18 60.2227 170.883 59.6758C170.586 59.1289 170.438 58.4102 170.438 57.5195V45.1914ZM191.648 52.082V58.8438C191.383 59.1641 190.973 59.5117 190.418 59.8867C189.863 60.2539 189.148 60.5703 188.273 60.8359C187.398 61.1016 186.34 61.2344 185.098 61.2344C183.996 61.2344 182.992 61.0547 182.086 60.6953C181.18 60.3281 180.398 59.793 179.742 59.0898C179.094 58.3867 178.594 57.5273 178.242 56.5117C177.891 55.4883 177.715 54.3203 177.715 53.0078V51.9414C177.715 50.6289 177.883 49.4609 178.219 48.4375C178.562 47.4141 179.051 46.5508 179.684 45.8477C180.316 45.1445 181.07 44.6094 181.945 44.2422C182.82 43.875 183.793 43.6914 184.863 43.6914C186.348 43.6914 187.566 43.9336 188.52 44.418C189.473 44.8945 190.199 45.5586 190.699 46.4102C191.207 47.2539 191.52 48.2227 191.637 49.3164H188.227C188.141 48.7383 187.977 48.2344 187.734 47.8047C187.492 47.375 187.145 47.0391 186.691 46.7969C186.246 46.5547 185.668 46.4336 184.957 46.4336C184.371 46.4336 183.848 46.5547 183.387 46.7969C182.934 47.0312 182.551 47.3789 182.238 47.8398C181.926 48.3008 181.688 48.8711 181.523 49.5508C181.359 50.2305 181.277 51.0195 181.277 51.918V53.0078C181.277 53.8984 181.363 54.6875 181.535 55.375C181.707 56.0547 181.961 56.6289 182.297 57.0977C182.641 57.5586 183.062 57.9062 183.562 58.1406C184.062 58.375 184.645 58.4922 185.309 58.4922C185.863 58.4922 186.324 58.4453 186.691 58.3516C187.066 58.2578 187.367 58.1445 187.594 58.0117C187.828 57.8711 188.008 57.7383 188.133 57.6133V54.5898H184.922V52.082H191.648ZM201.773 57.9648V48.3203H205.148V61H201.973L201.773 57.9648ZM202.148 55.3633L203.145 55.3398C203.145 56.1836 203.047 56.9688 202.852 57.6953C202.656 58.4141 202.363 59.0391 201.973 59.5703C201.582 60.0938 201.09 60.5039 200.496 60.8008C199.902 61.0898 199.203 61.2344 198.398 61.2344C197.781 61.2344 197.211 61.1484 196.688 60.9766C196.172 60.7969 195.727 60.5195 195.352 60.1445C194.984 59.7617 194.695 59.2734 194.484 58.6797C194.281 58.0781 194.18 57.3555 194.18 56.5117V48.3203H197.555V56.5352C197.555 56.9102 197.598 57.2266 197.684 57.4844C197.777 57.7422 197.906 57.9531 198.07 58.1172C198.234 58.2812 198.426 58.3984 198.645 58.4688C198.871 58.5391 199.121 58.5742 199.395 58.5742C200.09 58.5742 200.637 58.4336 201.035 58.1523C201.441 57.8711 201.727 57.4883 201.891 57.0039C202.062 56.5117 202.148 55.9648 202.148 55.3633ZM214.57 58.1406V52.4922C214.57 52.0859 214.504 51.7383 214.371 51.4492C214.238 51.1523 214.031 50.9219 213.75 50.7578C213.477 50.5938 213.121 50.5117 212.684 50.5117C212.309 50.5117 211.984 50.5781 211.711 50.7109C211.438 50.8359 211.227 51.0195 211.078 51.2617C210.93 51.4961 210.855 51.7734 210.855 52.0938H207.48C207.48 51.5547 207.605 51.043 207.855 50.5586C208.105 50.0742 208.469 49.6484 208.945 49.2812C209.422 48.9062 209.988 48.6133 210.645 48.4023C211.309 48.1914 212.051 48.0859 212.871 48.0859C213.855 48.0859 214.73 48.25 215.496 48.5781C216.262 48.9062 216.863 49.3984 217.301 50.0547C217.746 50.7109 217.969 51.5312 217.969 52.5156V57.9414C217.969 58.6367 218.012 59.207 218.098 59.6523C218.184 60.0898 218.309 60.4727 218.473 60.8008V61H215.062C214.898 60.6562 214.773 60.2266 214.688 59.7109C214.609 59.1875 214.57 58.6641 214.57 58.1406ZM215.016 53.2773L215.039 55.1875H213.152C212.707 55.1875 212.32 55.2383 211.992 55.3398C211.664 55.4414 211.395 55.5859 211.184 55.7734C210.973 55.9531 210.816 56.1641 210.715 56.4062C210.621 56.6484 210.574 56.9141 210.574 57.2031C210.574 57.4922 210.641 57.7539 210.773 57.9883C210.906 58.2148 211.098 58.3945 211.348 58.5273C211.598 58.6523 211.891 58.7148 212.227 58.7148C212.734 58.7148 213.176 58.6133 213.551 58.4102C213.926 58.207 214.215 57.957 214.418 57.6602C214.629 57.3633 214.738 57.082 214.746 56.8164L215.637 58.2461C215.512 58.5664 215.34 58.8984 215.121 59.2422C214.91 59.5859 214.641 59.9102 214.312 60.2148C213.984 60.5117 213.59 60.7578 213.129 60.9531C212.668 61.1406 212.121 61.2344 211.488 61.2344C210.684 61.2344 209.953 61.0742 209.297 60.7539C208.648 60.4258 208.133 59.9766 207.75 59.4062C207.375 58.8281 207.188 58.1719 207.188 57.4375C207.188 56.7734 207.312 56.1836 207.562 55.668C207.812 55.1523 208.18 54.7188 208.664 54.3672C209.156 54.0078 209.77 53.7383 210.504 53.5586C211.238 53.3711 212.09 53.2773 213.059 53.2773H215.016ZM223.945 51.0859V61H220.57V48.3203H223.746L223.945 51.0859ZM227.766 48.2383L227.707 51.3672C227.543 51.3438 227.344 51.3242 227.109 51.3086C226.883 51.2852 226.676 51.2734 226.488 51.2734C226.012 51.2734 225.598 51.3359 225.246 51.4609C224.902 51.5781 224.613 51.7539 224.379 51.9883C224.152 52.2227 223.98 52.5078 223.863 52.8438C223.754 53.1797 223.691 53.5625 223.676 53.9922L222.996 53.7812C222.996 52.9609 223.078 52.207 223.242 51.5195C223.406 50.8242 223.645 50.2188 223.957 49.7031C224.277 49.1875 224.668 48.7891 225.129 48.5078C225.59 48.2266 226.117 48.0859 226.711 48.0859C226.898 48.0859 227.09 48.1016 227.285 48.1328C227.48 48.1562 227.641 48.1914 227.766 48.2383ZM236.613 58.2344V43H240.012V61H236.953L236.613 58.2344ZM228.598 54.8125V54.5664C228.598 53.5977 228.707 52.7188 228.926 51.9297C229.145 51.1328 229.465 50.4492 229.887 49.8789C230.309 49.3086 230.828 48.8672 231.445 48.5547C232.062 48.2422 232.766 48.0859 233.555 48.0859C234.297 48.0859 234.945 48.2422 235.5 48.5547C236.062 48.8672 236.539 49.3125 236.93 49.8906C237.328 50.4609 237.648 51.1367 237.891 51.918C238.133 52.6914 238.309 53.5391 238.418 54.4609V55C238.309 55.8828 238.133 56.7031 237.891 57.4609C237.648 58.2188 237.328 58.8828 236.93 59.4531C236.539 60.0156 236.062 60.4531 235.5 60.7656C234.938 61.0781 234.281 61.2344 233.531 61.2344C232.742 61.2344 232.039 61.0742 231.422 60.7539C230.812 60.4336 230.297 59.9844 229.875 59.4062C229.461 58.8281 229.145 58.1484 228.926 57.3672C228.707 56.5859 228.598 55.7344 228.598 54.8125ZM231.973 54.5664V54.8125C231.973 55.3359 232.012 55.8242 232.09 56.2773C232.176 56.7305 232.312 57.1328 232.5 57.4844C232.695 57.8281 232.945 58.0977 233.25 58.293C233.562 58.4805 233.941 58.5742 234.387 58.5742C234.965 58.5742 235.441 58.4453 235.816 58.1875C236.191 57.9219 236.477 57.5586 236.672 57.0977C236.875 56.6367 236.992 56.1055 237.023 55.5039V53.9688C237 53.4766 236.93 53.0352 236.812 52.6445C236.703 52.2461 236.539 51.9062 236.32 51.625C236.109 51.3438 235.844 51.125 235.523 50.9688C235.211 50.8125 234.84 50.7344 234.41 50.7344C233.973 50.7344 233.598 50.8359 233.285 51.0391C232.973 51.2344 232.719 51.5039 232.523 51.8477C232.336 52.1914 232.195 52.5977 232.102 53.0664C232.016 53.5273 231.973 54.0273 231.973 54.5664Z" fill="#888888"/>
<path d="M112.125 84.875V119H103.898V84.875H112.125ZM122.391 84.875V91.2266H93.8672V84.875H122.391ZM135.68 119.469C133.617 119.469 131.773 119.148 130.148 118.508C128.523 117.852 127.148 116.953 126.023 115.812C124.914 114.672 124.062 113.359 123.469 111.875C122.891 110.391 122.602 108.82 122.602 107.164V106.273C122.602 104.414 122.859 102.695 123.375 101.117C123.891 99.5234 124.656 98.1328 125.672 96.9453C126.688 95.7578 127.961 94.8359 129.492 94.1797C131.023 93.5078 132.805 93.1719 134.836 93.1719C136.633 93.1719 138.242 93.4609 139.664 94.0391C141.086 94.6172 142.289 95.4453 143.273 96.5234C144.273 97.6016 145.031 98.9062 145.547 100.438C146.078 101.969 146.344 103.688 146.344 105.594V108.805H125.625V103.859H138.633V103.25C138.648 102.406 138.5 101.688 138.188 101.094C137.891 100.5 137.453 100.047 136.875 99.7344C136.297 99.4219 135.594 99.2656 134.766 99.2656C133.906 99.2656 133.195 99.4531 132.633 99.8281C132.086 100.203 131.656 100.719 131.344 101.375C131.047 102.016 130.836 102.758 130.711 103.602C130.586 104.445 130.523 105.336 130.523 106.273V107.164C130.523 108.102 130.648 108.953 130.898 109.719C131.164 110.484 131.539 111.141 132.023 111.688C132.523 112.219 133.117 112.633 133.805 112.93C134.508 113.227 135.305 113.375 136.195 113.375C137.273 113.375 138.336 113.172 139.383 112.766C140.43 112.359 141.328 111.688 142.078 110.75L145.664 115.016C145.148 115.75 144.414 116.461 143.461 117.148C142.523 117.836 141.398 118.398 140.086 118.836C138.773 119.258 137.305 119.469 135.68 119.469ZM160.266 113.375C161 113.375 161.625 113.242 162.141 112.977C162.672 112.695 163.07 112.305 163.336 111.805C163.617 111.289 163.75 110.672 163.734 109.953H171.164C171.18 111.859 170.711 113.531 169.758 114.969C168.82 116.391 167.539 117.5 165.914 118.297C164.305 119.078 162.484 119.469 160.453 119.469C158.469 119.469 156.734 119.148 155.25 118.508C153.766 117.852 152.523 116.945 151.523 115.789C150.539 114.617 149.797 113.25 149.297 111.688C148.812 110.125 148.57 108.43 148.57 106.602V106.062C148.57 104.234 148.812 102.539 149.297 100.977C149.797 99.3984 150.539 98.0312 151.523 96.875C152.523 95.7031 153.758 94.7969 155.227 94.1562C156.711 93.5 158.438 93.1719 160.406 93.1719C162.516 93.1719 164.375 93.5703 165.984 94.3672C167.609 95.1641 168.883 96.3203 169.805 97.8359C170.727 99.3516 171.18 101.188 171.164 103.344H163.734C163.75 102.578 163.633 101.891 163.383 101.281C163.133 100.672 162.742 100.188 162.211 99.8281C161.695 99.4531 161.031 99.2656 160.219 99.2656C159.406 99.2656 158.75 99.4453 158.25 99.8047C157.75 100.164 157.367 100.664 157.102 101.305C156.852 101.93 156.68 102.648 156.586 103.461C156.508 104.273 156.469 105.141 156.469 106.062V106.602C156.469 107.539 156.508 108.422 156.586 109.25C156.68 110.062 156.859 110.781 157.125 111.406C157.391 112.016 157.773 112.5 158.273 112.859C158.773 113.203 159.438 113.375 160.266 113.375ZM182.273 83V119H174.375V83H182.273ZM181.336 105.453L179.484 105.5C179.484 103.719 179.703 102.078 180.141 100.578C180.578 99.0781 181.203 97.7734 182.016 96.6641C182.828 95.5547 183.805 94.6953 184.945 94.0859C186.086 93.4766 187.352 93.1719 188.742 93.1719C189.992 93.1719 191.133 93.3516 192.164 93.7109C193.211 94.0703 194.109 94.6484 194.859 95.4453C195.625 96.2422 196.211 97.2812 196.617 98.5625C197.039 99.8438 197.25 101.406 197.25 103.25V119H189.305V103.203C189.305 102.172 189.156 101.375 188.859 100.812C188.578 100.234 188.172 99.8359 187.641 99.6172C187.109 99.3828 186.461 99.2656 185.695 99.2656C184.773 99.2656 184.023 99.4219 183.445 99.7344C182.867 100.047 182.422 100.484 182.109 101.047C181.812 101.594 181.609 102.242 181.5 102.992C181.391 103.742 181.336 104.562 181.336 105.453ZM231.539 109.93C231.539 109.398 231.461 108.922 231.305 108.5C231.148 108.062 230.859 107.656 230.438 107.281C230.016 106.906 229.406 106.531 228.609 106.156C227.828 105.766 226.797 105.359 225.516 104.938C224.016 104.438 222.57 103.875 221.18 103.25C219.789 102.609 218.547 101.867 217.453 101.023C216.359 100.164 215.492 99.1641 214.852 98.0234C214.211 96.8672 213.891 95.5234 213.891 93.9922C213.891 92.5234 214.219 91.2031 214.875 90.0312C215.531 88.8438 216.445 87.8359 217.617 87.0078C218.805 86.1641 220.195 85.5234 221.789 85.0859C223.383 84.6328 225.125 84.4062 227.016 84.4062C229.516 84.4062 231.719 84.8438 233.625 85.7188C235.547 86.5781 237.047 87.8047 238.125 89.3984C239.219 90.9766 239.766 92.8438 239.766 95H231.586C231.586 94.1406 231.406 93.3828 231.047 92.7266C230.703 92.0703 230.18 91.5547 229.477 91.1797C228.773 90.8047 227.891 90.6172 226.828 90.6172C225.797 90.6172 224.93 90.7734 224.227 91.0859C223.523 91.3984 222.992 91.8203 222.633 92.3516C222.273 92.8672 222.094 93.4375 222.094 94.0625C222.094 94.5781 222.234 95.0469 222.516 95.4688C222.812 95.875 223.227 96.2578 223.758 96.6172C224.305 96.9766 224.961 97.3203 225.727 97.6484C226.508 97.9766 227.383 98.2969 228.352 98.6094C230.164 99.1875 231.773 99.8359 233.18 100.555C234.602 101.258 235.797 102.062 236.766 102.969C237.75 103.859 238.492 104.875 238.992 106.016C239.508 107.156 239.766 108.445 239.766 109.883C239.766 111.414 239.469 112.773 238.875 113.961C238.281 115.148 237.43 116.156 236.32 116.984C235.211 117.797 233.883 118.414 232.336 118.836C230.789 119.258 229.062 119.469 227.156 119.469C225.406 119.469 223.68 119.25 221.977 118.812C220.289 118.359 218.758 117.672 217.383 116.75C216.008 115.812 214.906 114.617 214.078 113.164C213.266 111.695 212.859 109.953 212.859 107.938H221.109C221.109 108.938 221.242 109.781 221.508 110.469C221.773 111.156 222.164 111.711 222.68 112.133C223.195 112.539 223.828 112.836 224.578 113.023C225.328 113.195 226.188 113.281 227.156 113.281C228.203 113.281 229.047 113.133 229.688 112.836C230.328 112.523 230.797 112.117 231.094 111.617C231.391 111.102 231.539 110.539 231.539 109.93ZM256.992 93.6406V99.125H241.711V93.6406H256.992ZM244.922 87.3359H252.82V110.727C252.82 111.398 252.898 111.922 253.055 112.297C253.211 112.656 253.477 112.914 253.852 113.07C254.242 113.211 254.758 113.281 255.398 113.281C255.852 113.281 256.227 113.273 256.523 113.258C256.82 113.227 257.102 113.188 257.367 113.141V118.789C256.695 119.008 255.992 119.172 255.258 119.281C254.523 119.406 253.742 119.469 252.914 119.469C251.227 119.469 249.781 119.203 248.578 118.672C247.391 118.141 246.484 117.305 245.859 116.164C245.234 115.023 244.922 113.539 244.922 111.711V87.3359ZM273.305 112.625V102.172C273.305 101.453 273.203 100.836 273 100.32C272.797 99.8047 272.477 99.4062 272.039 99.125C271.602 98.8281 271.016 98.6797 270.281 98.6797C269.688 98.6797 269.18 98.7812 268.758 98.9844C268.336 99.1875 268.016 99.4922 267.797 99.8984C267.578 100.305 267.469 100.82 267.469 101.445H259.57C259.57 100.273 259.828 99.1875 260.344 98.1875C260.875 97.1719 261.625 96.2891 262.594 95.5391C263.578 94.7891 264.75 94.2109 266.109 93.8047C267.484 93.3828 269.016 93.1719 270.703 93.1719C272.719 93.1719 274.516 93.5078 276.094 94.1797C277.688 94.8516 278.945 95.8594 279.867 97.2031C280.789 98.5312 281.25 100.203 281.25 102.219V112.602C281.25 114.258 281.344 115.516 281.531 116.375C281.719 117.219 281.984 117.961 282.328 118.602V119H274.406C274.031 118.219 273.75 117.266 273.562 116.141C273.391 115 273.305 113.828 273.305 112.625ZM274.266 103.508L274.312 107.727H270.82C270.086 107.727 269.461 107.828 268.945 108.031C268.445 108.234 268.039 108.516 267.727 108.875C267.43 109.219 267.211 109.609 267.07 110.047C266.945 110.484 266.883 110.945 266.883 111.43C266.883 111.898 266.992 112.32 267.211 112.695C267.445 113.055 267.758 113.336 268.148 113.539C268.539 113.742 268.977 113.844 269.461 113.844C270.336 113.844 271.078 113.68 271.688 113.352C272.312 113.008 272.789 112.594 273.117 112.109C273.445 111.625 273.609 111.172 273.609 110.75L275.344 113.984C275.031 114.609 274.672 115.242 274.266 115.883C273.875 116.523 273.383 117.117 272.789 117.664C272.211 118.195 271.5 118.633 270.656 118.977C269.812 119.305 268.789 119.469 267.586 119.469C266.023 119.469 264.586 119.148 263.273 118.508C261.977 117.867 260.938 116.977 260.156 115.836C259.375 114.68 258.984 113.352 258.984 111.852C258.984 110.539 259.219 109.367 259.688 108.336C260.172 107.305 260.898 106.43 261.867 105.711C262.836 104.992 264.07 104.445 265.57 104.07C267.07 103.695 268.836 103.508 270.867 103.508H274.266ZM296.344 113.375C297.078 113.375 297.703 113.242 298.219 112.977C298.75 112.695 299.148 112.305 299.414 111.805C299.695 111.289 299.828 110.672 299.812 109.953H307.242C307.258 111.859 306.789 113.531 305.836 114.969C304.898 116.391 303.617 117.5 301.992 118.297C300.383 119.078 298.562 119.469 296.531 119.469C294.547 119.469 292.812 119.148 291.328 118.508C289.844 117.852 288.602 116.945 287.602 115.789C286.617 114.617 285.875 113.25 285.375 111.688C284.891 110.125 284.648 108.43 284.648 106.602V106.062C284.648 104.234 284.891 102.539 285.375 100.977C285.875 99.3984 286.617 98.0312 287.602 96.875C288.602 95.7031 289.836 94.7969 291.305 94.1562C292.789 93.5 294.516 93.1719 296.484 93.1719C298.594 93.1719 300.453 93.5703 302.062 94.3672C303.688 95.1641 304.961 96.3203 305.883 97.8359C306.805 99.3516 307.258 101.188 307.242 103.344H299.812C299.828 102.578 299.711 101.891 299.461 101.281C299.211 100.672 298.82 100.188 298.289 99.8281C297.773 99.4531 297.109 99.2656 296.297 99.2656C295.484 99.2656 294.828 99.4453 294.328 99.8047C293.828 100.164 293.445 100.664 293.18 101.305C292.93 101.93 292.758 102.648 292.664 103.461C292.586 104.273 292.547 105.141 292.547 106.062V106.602C292.547 107.539 292.586 108.422 292.664 109.25C292.758 110.062 292.938 110.781 293.203 111.406C293.469 112.016 293.852 112.5 294.352 112.859C294.852 113.203 295.516 113.375 296.344 113.375ZM318.586 82.9766V119H310.688V82.9766H318.586ZM334.805 93.6406L323.789 106.555L318.023 112.32L314.578 107.305L319.383 101.047L325.336 93.6406H334.805ZM326.344 119L319.57 107.445L325.406 103.297L335.391 119H326.344ZM350.156 111.875C350.156 111.438 350.008 111.062 349.711 110.75C349.43 110.422 348.93 110.125 348.211 109.859C347.492 109.578 346.484 109.297 345.188 109.016C343.953 108.75 342.789 108.398 341.695 107.961C340.617 107.523 339.672 106.992 338.859 106.367C338.047 105.742 337.406 105 336.938 104.141C336.484 103.281 336.258 102.297 336.258 101.188C336.258 100.109 336.484 99.0938 336.938 98.1406C337.406 97.1719 338.086 96.3203 338.977 95.5859C339.883 94.8359 340.984 94.25 342.281 93.8281C343.578 93.3906 345.055 93.1719 346.711 93.1719C348.992 93.1719 350.961 93.5234 352.617 94.2266C354.273 94.9141 355.547 95.8828 356.438 97.1328C357.344 98.3672 357.797 99.7969 357.797 101.422H349.898C349.898 100.781 349.789 100.234 349.57 99.7812C349.367 99.3281 349.031 98.9844 348.562 98.75C348.094 98.5 347.469 98.375 346.688 98.375C346.141 98.375 345.641 98.4766 345.188 98.6797C344.75 98.8828 344.398 99.1641 344.133 99.5234C343.867 99.8828 343.734 100.305 343.734 100.789C343.734 101.133 343.812 101.445 343.969 101.727C344.141 101.992 344.398 102.242 344.742 102.477C345.086 102.695 345.523 102.898 346.055 103.086C346.586 103.258 347.227 103.414 347.977 103.555C349.68 103.867 351.273 104.312 352.758 104.891C354.242 105.469 355.445 106.289 356.367 107.352C357.305 108.414 357.773 109.844 357.773 111.641C357.773 112.766 357.516 113.805 357 114.758C356.484 115.695 355.742 116.523 354.773 117.242C353.805 117.945 352.641 118.492 351.281 118.883C349.922 119.273 348.391 119.469 346.688 119.469C344.266 119.469 342.219 119.039 340.547 118.18C338.875 117.305 337.609 116.211 336.75 114.898C335.906 113.57 335.484 112.227 335.484 110.867H342.844C342.875 111.648 343.062 112.289 343.406 112.789C343.766 113.289 344.242 113.656 344.836 113.891C345.43 114.125 346.117 114.242 346.898 114.242C347.617 114.242 348.211 114.141 348.68 113.938C349.164 113.734 349.531 113.461 349.781 113.117C350.031 112.758 350.156 112.344 350.156 111.875Z" fill="black"/>
<path d="M1134 0H1348C1356.28 0 1363 6.71573 1363 15V148C1363 156.284 1356.28 163 1348 163H1134V0Z" fill="#5BE1E6"/>
<path fill-rule="evenodd" clip-rule="evenodd" d="M1219.98 53C1219.85 53 1219.73 53.0527 1219.64 53.1464C1219.55 53.2402 1219.5 53.3674 1219.5 53.5V109.5C1219.5 109.633 1219.55 109.76 1219.64 109.854C1219.73 109.947 1219.85 110 1219.98 110H1277.02C1277.15 110 1277.27 109.947 1277.36 109.854C1277.45 109.76 1277.5 109.633 1277.5 109.5V64C1277.5 63.8674 1277.45 63.7402 1277.36 63.6464C1277.27 63.5527 1277.15 63.5 1277.02 63.5H1248.5C1247.65 63.5 1246.84 63.1045 1246.29 62.4206L1238.77 53H1219.98ZM1215.58 48.9038C1216.74 47.6848 1218.33 47 1219.98 47H1240.11C1240.97 47 1241.77 47.3955 1242.32 48.0794L1249.85 57.5H1277.02C1278.67 57.5 1280.26 58.1848 1281.42 59.4038C1282.59 60.6228 1283.25 62.2761 1283.25 64V109.5C1283.25 111.224 1282.59 112.877 1281.42 114.096C1280.26 115.315 1278.67 116 1277.02 116H1219.98C1218.33 116 1216.74 115.315 1215.58 114.096C1214.41 112.877 1213.75 111.224 1213.75 109.5V53.5C1213.75 51.7761 1214.41 50.1228 1215.58 48.9038Z" fill="white"/>
<path fill-rule="evenodd" clip-rule="evenodd" d="M1244.16 75.5251C1245.47 76.892 1245.47 79.108 1244.16 80.4749L1238.15 86.75L1244.16 93.0251C1245.47 94.392 1245.47 96.608 1244.16 97.9749C1242.85 99.3417 1240.73 99.3417 1239.42 97.9749L1231.03 89.2249C1229.72 87.858 1229.72 85.642 1231.03 84.2751L1239.42 75.5251C1240.73 74.1583 1242.85 74.1583 1244.16 75.5251Z" fill="white"/>
<path fill-rule="evenodd" clip-rule="evenodd" d="M1252.12 97.9749C1250.81 96.608 1250.81 94.392 1252.12 93.0251L1258.13 86.75L1252.12 80.4749C1250.81 79.108 1250.81 76.892 1252.12 75.5251C1253.43 74.1583 1255.55 74.1583 1256.86 75.5251L1265.25 84.2751C1266.56 85.642 1266.56 87.858 1265.25 89.2249L1256.86 97.9749C1255.55 99.3417 1253.43 99.3417 1252.12 97.9749Z" fill="white"/>
</svg>
